<?xml version="1.0" encoding="utf-8"?>
<svg xmlns="http://www.w3.org/2000/svg" xmlns:xlink="http://www.w3.org/1999/xlink" width="600" height="400" viewBox="0 0 2400 1600">
<defs>
  <clipPath id="clip290">
    <rect x="0" y="0" width="2400" height="1600"/>
  </clipPath>
</defs>
<path clip-path="url(#clip290)" d="
M0 1600 L2400 1600 L2400 0 L0 0  Z
  " fill="#ffffff" fill-rule="evenodd" fill-opacity="1"/>
<defs>
  <clipPath id="clip291">
    <rect x="480" y="0" width="1681" height="1600"/>
  </clipPath>
</defs>
<path clip-path="url(#clip290)" d="
M246.598 1486.45 L2352.76 1486.45 L2352.76 47.2441 L246.598 47.2441  Z
  " fill="#ffffff" fill-rule="evenodd" fill-opacity="1"/>
<defs>
  <clipPath id="clip292">
    <rect x="246" y="47" width="2107" height="1440"/>
  </clipPath>
</defs>
<polyline clip-path="url(#clip292)" style="stroke:#000000; stroke-linecap:round; stroke-linejoin:round; stroke-width:2; stroke-opacity:0.1; fill:none" points="
  306.206,1486.45 306.206,47.2441 
  "/>
<polyline clip-path="url(#clip292)" style="stroke:#000000; stroke-linecap:round; stroke-linejoin:round; stroke-width:2; stroke-opacity:0.1; fill:none" points="
  802.941,1486.45 802.941,47.2441 
  "/>
<polyline clip-path="url(#clip292)" style="stroke:#000000; stroke-linecap:round; stroke-linejoin:round; stroke-width:2; stroke-opacity:0.1; fill:none" points="
  1299.68,1486.45 1299.68,47.2441 
  "/>
<polyline clip-path="url(#clip292)" style="stroke:#000000; stroke-linecap:round; stroke-linejoin:round; stroke-width:2; stroke-opacity:0.1; fill:none" points="
  1796.41,1486.45 1796.41,47.2441 
  "/>
<polyline clip-path="url(#clip292)" style="stroke:#000000; stroke-linecap:round; stroke-linejoin:round; stroke-width:2; stroke-opacity:0.1; fill:none" points="
  2293.15,1486.45 2293.15,47.2441 
  "/>
<polyline clip-path="url(#clip290)" style="stroke:#000000; stroke-linecap:round; stroke-linejoin:round; stroke-width:4; stroke-opacity:1; fill:none" points="
  246.598,1486.45 2352.76,1486.45 
  "/>
<polyline clip-path="url(#clip290)" style="stroke:#000000; stroke-linecap:round; stroke-linejoin:round; stroke-width:4; stroke-opacity:1; fill:none" points="
  306.206,1486.45 306.206,1467.55 
  "/>
<polyline clip-path="url(#clip290)" style="stroke:#000000; stroke-linecap:round; stroke-linejoin:round; stroke-width:4; stroke-opacity:1; fill:none" points="
  802.941,1486.45 802.941,1467.55 
  "/>
<polyline clip-path="url(#clip290)" style="stroke:#000000; stroke-linecap:round; stroke-linejoin:round; stroke-width:4; stroke-opacity:1; fill:none" points="
  1299.68,1486.45 1299.68,1467.55 
  "/>
<polyline clip-path="url(#clip290)" style="stroke:#000000; stroke-linecap:round; stroke-linejoin:round; stroke-width:4; stroke-opacity:1; fill:none" points="
  1796.41,1486.45 1796.41,1467.55 
  "/>
<polyline clip-path="url(#clip290)" style="stroke:#000000; stroke-linecap:round; stroke-linejoin:round; stroke-width:4; stroke-opacity:1; fill:none" points="
  2293.15,1486.45 2293.15,1467.55 
  "/>
<path clip-path="url(#clip290)" d="M306.206 1517.37 Q302.595 1517.37 300.766 1520.93 Q298.961 1524.47 298.961 1531.6 Q298.961 1538.71 300.766 1542.27 Q302.595 1545.82 306.206 1545.82 Q309.84 1545.82 311.646 1542.27 Q313.474 1538.71 313.474 1531.6 Q313.474 1524.47 311.646 1520.93 Q309.84 1517.37 306.206 1517.37 M306.206 1513.66 Q312.016 1513.66 315.072 1518.27 Q318.15 1522.85 318.15 1531.6 Q318.15 1540.33 315.072 1544.94 Q312.016 1549.52 306.206 1549.52 Q300.396 1549.52 297.317 1544.94 Q294.262 1540.33 294.262 1531.6 Q294.262 1522.85 297.317 1518.27 Q300.396 1513.66 306.206 1513.66 Z" fill="#000000" fill-rule="evenodd" fill-opacity="1" /><path clip-path="url(#clip290)" d="M777.629 1544.91 L785.268 1544.91 L785.268 1518.55 L776.958 1520.21 L776.958 1515.95 L785.222 1514.29 L789.898 1514.29 L789.898 1544.91 L797.536 1544.91 L797.536 1548.85 L777.629 1548.85 L777.629 1544.91 Z" fill="#000000" fill-rule="evenodd" fill-opacity="1" /><path clip-path="url(#clip290)" d="M816.981 1517.37 Q813.37 1517.37 811.541 1520.93 Q809.735 1524.47 809.735 1531.6 Q809.735 1538.71 811.541 1542.27 Q813.37 1545.82 816.981 1545.82 Q820.615 1545.82 822.42 1542.27 Q824.249 1538.71 824.249 1531.6 Q824.249 1524.47 822.42 1520.93 Q820.615 1517.37 816.981 1517.37 M816.981 1513.66 Q822.791 1513.66 825.846 1518.27 Q828.925 1522.85 828.925 1531.6 Q828.925 1540.33 825.846 1544.94 Q822.791 1549.52 816.981 1549.52 Q811.171 1549.52 808.092 1544.94 Q805.036 1540.33 805.036 1531.6 Q805.036 1522.85 808.092 1518.27 Q811.171 1513.66 816.981 1513.66 Z" fill="#000000" fill-rule="evenodd" fill-opacity="1" /><path clip-path="url(#clip290)" d="M1278.45 1544.91 L1294.77 1544.91 L1294.77 1548.85 L1272.83 1548.85 L1272.83 1544.91 Q1275.49 1542.16 1280.07 1537.53 Q1284.68 1532.88 1285.86 1531.53 Q1288.1 1529.01 1288.98 1527.27 Q1289.89 1525.51 1289.89 1523.82 Q1289.89 1521.07 1287.94 1519.33 Q1286.02 1517.6 1282.92 1517.6 Q1280.72 1517.6 1278.26 1518.36 Q1275.83 1519.13 1273.06 1520.68 L1273.06 1515.95 Q1275.88 1514.82 1278.33 1514.24 Q1280.79 1513.66 1282.83 1513.66 Q1288.2 1513.66 1291.39 1516.35 Q1294.58 1519.03 1294.58 1523.52 Q1294.58 1525.65 1293.77 1527.57 Q1292.99 1529.47 1290.88 1532.07 Q1290.3 1532.74 1287.2 1535.95 Q1284.1 1539.15 1278.45 1544.91 Z" fill="#000000" fill-rule="evenodd" fill-opacity="1" /><path clip-path="url(#clip290)" d="M1314.58 1517.37 Q1310.97 1517.37 1309.14 1520.93 Q1307.34 1524.47 1307.34 1531.6 Q1307.34 1538.71 1309.14 1542.27 Q1310.97 1545.82 1314.58 1545.82 Q1318.22 1545.82 1320.02 1542.27 Q1321.85 1538.71 1321.85 1531.6 Q1321.85 1524.47 1320.02 1520.93 Q1318.22 1517.37 1314.58 1517.37 M1314.58 1513.66 Q1320.39 1513.66 1323.45 1518.27 Q1326.53 1522.85 1326.53 1531.6 Q1326.53 1540.33 1323.45 1544.94 Q1320.39 1549.52 1314.58 1549.52 Q1308.77 1549.52 1305.7 1544.94 Q1302.64 1540.33 1302.64 1531.6 Q1302.64 1522.85 1305.7 1518.27 Q1308.77 1513.66 1314.58 1513.66 Z" fill="#000000" fill-rule="evenodd" fill-opacity="1" /><path clip-path="url(#clip290)" d="M1785.25 1530.21 Q1788.61 1530.93 1790.49 1533.2 Q1792.38 1535.47 1792.38 1538.8 Q1792.38 1543.92 1788.87 1546.72 Q1785.35 1549.52 1778.87 1549.52 Q1776.69 1549.52 1774.38 1549.08 Q1772.08 1548.66 1769.63 1547.81 L1769.63 1543.29 Q1771.57 1544.43 1773.89 1545.01 Q1776.2 1545.58 1778.73 1545.58 Q1783.13 1545.58 1785.42 1543.85 Q1787.73 1542.11 1787.73 1538.8 Q1787.73 1535.75 1785.58 1534.03 Q1783.45 1532.3 1779.63 1532.3 L1775.6 1532.3 L1775.6 1528.45 L1779.82 1528.45 Q1783.26 1528.45 1785.09 1527.09 Q1786.92 1525.7 1786.92 1523.11 Q1786.92 1520.45 1785.02 1519.03 Q1783.15 1517.6 1779.63 1517.6 Q1777.71 1517.6 1775.51 1518.01 Q1773.31 1518.43 1770.67 1519.31 L1770.67 1515.14 Q1773.33 1514.4 1775.65 1514.03 Q1777.99 1513.66 1780.05 1513.66 Q1785.37 1513.66 1788.47 1516.09 Q1791.57 1518.5 1791.57 1522.62 Q1791.57 1525.49 1789.93 1527.48 Q1788.29 1529.45 1785.25 1530.21 Z" fill="#000000" fill-rule="evenodd" fill-opacity="1" /><path clip-path="url(#clip290)" d="M1811.25 1517.37 Q1807.64 1517.37 1805.81 1520.93 Q1804 1524.47 1804 1531.6 Q1804 1538.71 1805.81 1542.27 Q1807.64 1545.82 1811.25 1545.82 Q1814.88 1545.82 1816.69 1542.27 Q1818.52 1538.71 1818.52 1531.6 Q1818.52 1524.47 1816.69 1520.93 Q1814.88 1517.37 1811.25 1517.37 M1811.25 1513.66 Q1817.06 1513.66 1820.12 1518.27 Q1823.19 1522.85 1823.19 1531.6 Q1823.19 1540.33 1820.12 1544.94 Q1817.06 1549.52 1811.25 1549.52 Q1805.44 1549.52 1802.36 1544.94 Q1799.31 1540.33 1799.31 1531.6 Q1799.31 1522.85 1802.36 1518.27 Q1805.44 1513.66 1811.25 1513.66 Z" fill="#000000" fill-rule="evenodd" fill-opacity="1" /><path clip-path="url(#clip290)" d="M2281.32 1518.36 L2269.51 1536.81 L2281.32 1536.81 L2281.32 1518.36 M2280.09 1514.29 L2285.97 1514.29 L2285.97 1536.81 L2290.9 1536.81 L2290.9 1540.7 L2285.97 1540.7 L2285.97 1548.85 L2281.32 1548.85 L2281.32 1540.7 L2265.72 1540.7 L2265.72 1536.19 L2280.09 1514.29 Z" fill="#000000" fill-rule="evenodd" fill-opacity="1" /><path clip-path="url(#clip290)" d="M2308.63 1517.37 Q2305.02 1517.37 2303.19 1520.93 Q2301.39 1524.47 2301.39 1531.6 Q2301.39 1538.71 2303.19 1542.27 Q2305.02 1545.82 2308.63 1545.82 Q2312.27 1545.82 2314.07 1542.27 Q2315.9 1538.71 2315.9 1531.6 Q2315.9 1524.47 2314.07 1520.93 Q2312.27 1517.37 2308.63 1517.37 M2308.63 1513.66 Q2314.44 1513.66 2317.5 1518.27 Q2320.58 1522.85 2320.58 1531.6 Q2320.58 1540.33 2317.5 1544.94 Q2314.44 1549.52 2308.63 1549.52 Q2302.82 1549.52 2299.74 1544.94 Q2296.69 1540.33 2296.69 1531.6 Q2296.69 1522.85 2299.74 1518.27 Q2302.82 1513.66 2308.63 1513.66 Z" fill="#000000" fill-rule="evenodd" fill-opacity="1" /><polyline clip-path="url(#clip292)" style="stroke:#000000; stroke-linecap:round; stroke-linejoin:round; stroke-width:2; stroke-opacity:0.1; fill:none" points="
  246.598,1182.77 2352.76,1182.77 
  "/>
<polyline clip-path="url(#clip292)" style="stroke:#000000; stroke-linecap:round; stroke-linejoin:round; stroke-width:2; stroke-opacity:0.1; fill:none" points="
  246.598,864.447 2352.76,864.447 
  "/>
<polyline clip-path="url(#clip292)" style="stroke:#000000; stroke-linecap:round; stroke-linejoin:round; stroke-width:2; stroke-opacity:0.1; fill:none" points="
  246.598,546.126 2352.76,546.126 
  "/>
<polyline clip-path="url(#clip292)" style="stroke:#000000; stroke-linecap:round; stroke-linejoin:round; stroke-width:2; stroke-opacity:0.1; fill:none" points="
  246.598,227.805 2352.76,227.805 
  "/>
<polyline clip-path="url(#clip290)" style="stroke:#000000; stroke-linecap:round; stroke-linejoin:round; stroke-width:4; stroke-opacity:1; fill:none" points="
  246.598,1486.45 246.598,47.2441 
  "/>
<polyline clip-path="url(#clip290)" style="stroke:#000000; stroke-linecap:round; stroke-linejoin:round; stroke-width:4; stroke-opacity:1; fill:none" points="
  246.598,1182.77 265.495,1182.77 
  "/>
<polyline clip-path="url(#clip290)" style="stroke:#000000; stroke-linecap:round; stroke-linejoin:round; stroke-width:4; stroke-opacity:1; fill:none" points="
  246.598,864.447 265.495,864.447 
  "/>
<polyline clip-path="url(#clip290)" style="stroke:#000000; stroke-linecap:round; stroke-linejoin:round; stroke-width:4; stroke-opacity:1; fill:none" points="
  246.598,546.126 265.495,546.126 
  "/>
<polyline clip-path="url(#clip290)" style="stroke:#000000; stroke-linecap:round; stroke-linejoin:round; stroke-width:4; stroke-opacity:1; fill:none" points="
  246.598,227.805 265.495,227.805 
  "/>
<path clip-path="url(#clip290)" d="M62.9365 1168.57 Q59.3254 1168.57 57.4967 1172.13 Q55.6912 1175.67 55.6912 1182.8 Q55.6912 1189.91 57.4967 1193.47 Q59.3254 1197.02 62.9365 1197.02 Q66.5707 1197.02 68.3763 1193.47 Q70.205 1189.91 70.205 1182.8 Q70.205 1175.67 68.3763 1172.13 Q66.5707 1168.57 62.9365 1168.57 M62.9365 1164.86 Q68.7467 1164.86 71.8022 1169.47 Q74.8809 1174.05 74.8809 1182.8 Q74.8809 1191.53 71.8022 1196.14 Q68.7467 1200.72 62.9365 1200.72 Q57.1264 1200.72 54.0477 1196.14 Q50.9921 1191.53 50.9921 1182.8 Q50.9921 1174.05 54.0477 1169.47 Q57.1264 1164.86 62.9365 1164.86 Z" fill="#000000" fill-rule="evenodd" fill-opacity="1" /><path clip-path="url(#clip290)" d="M83.0984 1194.17 L87.9827 1194.17 L87.9827 1200.05 L83.0984 1200.05 L83.0984 1194.17 Z" fill="#000000" fill-rule="evenodd" fill-opacity="1" /><path clip-path="url(#clip290)" d="M108.168 1168.57 Q104.557 1168.57 102.728 1172.13 Q100.922 1175.67 100.922 1182.8 Q100.922 1189.91 102.728 1193.47 Q104.557 1197.02 108.168 1197.02 Q111.802 1197.02 113.608 1193.47 Q115.436 1189.91 115.436 1182.8 Q115.436 1175.67 113.608 1172.13 Q111.802 1168.57 108.168 1168.57 M108.168 1164.86 Q113.978 1164.86 117.033 1169.47 Q120.112 1174.05 120.112 1182.8 Q120.112 1191.53 117.033 1196.14 Q113.978 1200.72 108.168 1200.72 Q102.358 1200.72 99.2789 1196.14 Q96.2234 1191.53 96.2234 1182.8 Q96.2234 1174.05 99.2789 1169.47 Q102.358 1164.86 108.168 1164.86 Z" fill="#000000" fill-rule="evenodd" fill-opacity="1" /><path clip-path="url(#clip290)" d="M138.33 1168.57 Q134.719 1168.57 132.89 1172.13 Q131.084 1175.67 131.084 1182.8 Q131.084 1189.91 132.89 1193.47 Q134.719 1197.02 138.33 1197.02 Q141.964 1197.02 143.769 1193.47 Q145.598 1189.91 145.598 1182.8 Q145.598 1175.67 143.769 1172.13 Q141.964 1168.57 138.33 1168.57 M138.33 1164.86 Q144.14 1164.86 147.195 1169.47 Q150.274 1174.05 150.274 1182.8 Q150.274 1191.53 147.195 1196.14 Q144.14 1200.72 138.33 1200.72 Q132.519 1200.72 129.441 1196.14 Q126.385 1191.53 126.385 1182.8 Q126.385 1174.05 129.441 1169.47 Q132.519 1164.86 138.33 1164.86 Z" fill="#000000" fill-rule="evenodd" fill-opacity="1" /><path clip-path="url(#clip290)" d="M168.491 1168.57 Q164.88 1168.57 163.052 1172.13 Q161.246 1175.67 161.246 1182.8 Q161.246 1189.91 163.052 1193.47 Q164.88 1197.02 168.491 1197.02 Q172.126 1197.02 173.931 1193.47 Q175.76 1189.91 175.76 1182.8 Q175.76 1175.67 173.931 1172.13 Q172.126 1168.57 168.491 1168.57 M168.491 1164.86 Q174.302 1164.86 177.357 1169.47 Q180.436 1174.05 180.436 1182.8 Q180.436 1191.53 177.357 1196.14 Q174.302 1200.72 168.491 1200.72 Q162.681 1200.72 159.603 1196.14 Q156.547 1191.53 156.547 1182.8 Q156.547 1174.05 159.603 1169.47 Q162.681 1164.86 168.491 1164.86 Z" fill="#000000" fill-rule="evenodd" fill-opacity="1" /><path clip-path="url(#clip290)" d="M198.653 1168.57 Q195.042 1168.57 193.214 1172.13 Q191.408 1175.67 191.408 1182.8 Q191.408 1189.91 193.214 1193.47 Q195.042 1197.02 198.653 1197.02 Q202.288 1197.02 204.093 1193.47 Q205.922 1189.91 205.922 1182.8 Q205.922 1175.67 204.093 1172.13 Q202.288 1168.57 198.653 1168.57 M198.653 1164.86 Q204.464 1164.86 207.519 1169.47 Q210.598 1174.05 210.598 1182.8 Q210.598 1191.53 207.519 1196.14 Q204.464 1200.72 198.653 1200.72 Q192.843 1200.72 189.765 1196.14 Q186.709 1191.53 186.709 1182.8 Q186.709 1174.05 189.765 1169.47 Q192.843 1164.86 198.653 1164.86 Z" fill="#000000" fill-rule="evenodd" fill-opacity="1" /><path clip-path="url(#clip290)" d="M64.1634 850.246 Q60.5523 850.246 58.7236 853.811 Q56.918 857.352 56.918 864.482 Q56.918 871.588 58.7236 875.153 Q60.5523 878.695 64.1634 878.695 Q67.7976 878.695 69.6031 875.153 Q71.4318 871.588 71.4318 864.482 Q71.4318 857.352 69.6031 853.811 Q67.7976 850.246 64.1634 850.246 M64.1634 846.542 Q69.9735 846.542 73.029 851.149 Q76.1077 855.732 76.1077 864.482 Q76.1077 873.209 73.029 877.815 Q69.9735 882.398 64.1634 882.398 Q58.3532 882.398 55.2745 877.815 Q52.219 873.209 52.219 864.482 Q52.219 855.732 55.2745 851.149 Q58.3532 846.542 64.1634 846.542 Z" fill="#000000" fill-rule="evenodd" fill-opacity="1" /><path clip-path="url(#clip290)" d="M84.3253 875.847 L89.2095 875.847 L89.2095 881.727 L84.3253 881.727 L84.3253 875.847 Z" fill="#000000" fill-rule="evenodd" fill-opacity="1" /><path clip-path="url(#clip290)" d="M109.395 850.246 Q105.783 850.246 103.955 853.811 Q102.149 857.352 102.149 864.482 Q102.149 871.588 103.955 875.153 Q105.783 878.695 109.395 878.695 Q113.029 878.695 114.834 875.153 Q116.663 871.588 116.663 864.482 Q116.663 857.352 114.834 853.811 Q113.029 850.246 109.395 850.246 M109.395 846.542 Q115.205 846.542 118.26 851.149 Q121.339 855.732 121.339 864.482 Q121.339 873.209 118.26 877.815 Q115.205 882.398 109.395 882.398 Q103.584 882.398 100.506 877.815 Q97.4502 873.209 97.4502 864.482 Q97.4502 855.732 100.506 851.149 Q103.584 846.542 109.395 846.542 Z" fill="#000000" fill-rule="evenodd" fill-opacity="1" /><path clip-path="url(#clip290)" d="M139.556 850.246 Q135.945 850.246 134.117 853.811 Q132.311 857.352 132.311 864.482 Q132.311 871.588 134.117 875.153 Q135.945 878.695 139.556 878.695 Q143.191 878.695 144.996 875.153 Q146.825 871.588 146.825 864.482 Q146.825 857.352 144.996 853.811 Q143.191 850.246 139.556 850.246 M139.556 846.542 Q145.367 846.542 148.422 851.149 Q151.501 855.732 151.501 864.482 Q151.501 873.209 148.422 877.815 Q145.367 882.398 139.556 882.398 Q133.746 882.398 130.668 877.815 Q127.612 873.209 127.612 864.482 Q127.612 855.732 130.668 851.149 Q133.746 846.542 139.556 846.542 Z" fill="#000000" fill-rule="evenodd" fill-opacity="1" /><path clip-path="url(#clip290)" d="M169.718 850.246 Q166.107 850.246 164.279 853.811 Q162.473 857.352 162.473 864.482 Q162.473 871.588 164.279 875.153 Q166.107 878.695 169.718 878.695 Q173.353 878.695 175.158 875.153 Q176.987 871.588 176.987 864.482 Q176.987 857.352 175.158 853.811 Q173.353 850.246 169.718 850.246 M169.718 846.542 Q175.528 846.542 178.584 851.149 Q181.663 855.732 181.663 864.482 Q181.663 873.209 178.584 877.815 Q175.528 882.398 169.718 882.398 Q163.908 882.398 160.83 877.815 Q157.774 873.209 157.774 864.482 Q157.774 855.732 160.83 851.149 Q163.908 846.542 169.718 846.542 Z" fill="#000000" fill-rule="evenodd" fill-opacity="1" /><path clip-path="url(#clip290)" d="M190.69 877.792 L198.329 877.792 L198.329 851.426 L190.019 853.093 L190.019 848.834 L198.283 847.167 L202.959 847.167 L202.959 877.792 L210.598 877.792 L210.598 881.727 L190.69 881.727 L190.69 877.792 Z" fill="#000000" fill-rule="evenodd" fill-opacity="1" /><path clip-path="url(#clip290)" d="M64.5337 531.925 Q60.9226 531.925 59.0939 535.49 Q57.2884 539.031 57.2884 546.161 Q57.2884 553.267 59.0939 556.832 Q60.9226 560.374 64.5337 560.374 Q68.168 560.374 69.9735 556.832 Q71.8022 553.267 71.8022 546.161 Q71.8022 539.031 69.9735 535.49 Q68.168 531.925 64.5337 531.925 M64.5337 528.221 Q70.3439 528.221 73.3994 532.828 Q76.4781 537.411 76.4781 546.161 Q76.4781 554.888 73.3994 559.494 Q70.3439 564.077 64.5337 564.077 Q58.7236 564.077 55.6449 559.494 Q52.5893 554.888 52.5893 546.161 Q52.5893 537.411 55.6449 532.828 Q58.7236 528.221 64.5337 528.221 Z" fill="#000000" fill-rule="evenodd" fill-opacity="1" /><path clip-path="url(#clip290)" d="M84.6956 557.527 L89.5799 557.527 L89.5799 563.406 L84.6956 563.406 L84.6956 557.527 Z" fill="#000000" fill-rule="evenodd" fill-opacity="1" /><path clip-path="url(#clip290)" d="M109.765 531.925 Q106.154 531.925 104.325 535.49 Q102.52 539.031 102.52 546.161 Q102.52 553.267 104.325 556.832 Q106.154 560.374 109.765 560.374 Q113.399 560.374 115.205 556.832 Q117.033 553.267 117.033 546.161 Q117.033 539.031 115.205 535.49 Q113.399 531.925 109.765 531.925 M109.765 528.221 Q115.575 528.221 118.631 532.828 Q121.709 537.411 121.709 546.161 Q121.709 554.888 118.631 559.494 Q115.575 564.077 109.765 564.077 Q103.955 564.077 100.876 559.494 Q97.8206 554.888 97.8206 546.161 Q97.8206 537.411 100.876 532.828 Q103.955 528.221 109.765 528.221 Z" fill="#000000" fill-rule="evenodd" fill-opacity="1" /><path clip-path="url(#clip290)" d="M139.927 531.925 Q136.316 531.925 134.487 535.49 Q132.682 539.031 132.682 546.161 Q132.682 553.267 134.487 556.832 Q136.316 560.374 139.927 560.374 Q143.561 560.374 145.367 556.832 Q147.195 553.267 147.195 546.161 Q147.195 539.031 145.367 535.49 Q143.561 531.925 139.927 531.925 M139.927 528.221 Q145.737 528.221 148.793 532.828 Q151.871 537.411 151.871 546.161 Q151.871 554.888 148.793 559.494 Q145.737 564.077 139.927 564.077 Q134.117 564.077 131.038 559.494 Q127.982 554.888 127.982 546.161 Q127.982 537.411 131.038 532.828 Q134.117 528.221 139.927 528.221 Z" fill="#000000" fill-rule="evenodd" fill-opacity="1" /><path clip-path="url(#clip290)" d="M170.089 531.925 Q166.478 531.925 164.649 535.49 Q162.843 539.031 162.843 546.161 Q162.843 553.267 164.649 556.832 Q166.478 560.374 170.089 560.374 Q173.723 560.374 175.528 556.832 Q177.357 553.267 177.357 546.161 Q177.357 539.031 175.528 535.49 Q173.723 531.925 170.089 531.925 M170.089 528.221 Q175.899 528.221 178.954 532.828 Q182.033 537.411 182.033 546.161 Q182.033 554.888 178.954 559.494 Q175.899 564.077 170.089 564.077 Q164.279 564.077 161.2 559.494 Q158.144 554.888 158.144 546.161 Q158.144 537.411 161.2 532.828 Q164.279 528.221 170.089 528.221 Z" fill="#000000" fill-rule="evenodd" fill-opacity="1" /><path clip-path="url(#clip290)" d="M194.278 559.471 L210.598 559.471 L210.598 563.406 L188.653 563.406 L188.653 559.471 Q191.315 556.716 195.899 552.087 Q200.505 547.434 201.686 546.091 Q203.931 543.568 204.811 541.832 Q205.714 540.073 205.714 538.383 Q205.714 535.628 203.769 533.892 Q201.848 532.156 198.746 532.156 Q196.547 532.156 194.093 532.92 Q191.663 533.684 188.885 535.235 L188.885 530.513 Q191.709 529.379 194.163 528.8 Q196.616 528.221 198.653 528.221 Q204.024 528.221 207.218 530.906 Q210.413 533.591 210.413 538.082 Q210.413 540.212 209.602 542.133 Q208.815 544.031 206.709 546.624 Q206.13 547.295 203.028 550.513 Q199.927 553.707 194.278 559.471 Z" fill="#000000" fill-rule="evenodd" fill-opacity="1" /><path clip-path="url(#clip290)" d="M63.5847 213.604 Q59.9736 213.604 58.1449 217.169 Q56.3393 220.71 56.3393 227.84 Q56.3393 234.946 58.1449 238.511 Q59.9736 242.053 63.5847 242.053 Q67.2189 242.053 69.0244 238.511 Q70.8531 234.946 70.8531 227.84 Q70.8531 220.71 69.0244 217.169 Q67.2189 213.604 63.5847 213.604 M63.5847 209.9 Q69.3948 209.9 72.4503 214.507 Q75.529 219.09 75.529 227.84 Q75.529 236.567 72.4503 241.173 Q69.3948 245.756 63.5847 245.756 Q57.7745 245.756 54.6958 241.173 Q51.6403 236.567 51.6403 227.84 Q51.6403 219.09 54.6958 214.507 Q57.7745 209.9 63.5847 209.9 Z" fill="#000000" fill-rule="evenodd" fill-opacity="1" /><path clip-path="url(#clip290)" d="M83.7466 239.206 L88.6308 239.206 L88.6308 245.085 L83.7466 245.085 L83.7466 239.206 Z" fill="#000000" fill-rule="evenodd" fill-opacity="1" /><path clip-path="url(#clip290)" d="M108.816 213.604 Q105.205 213.604 103.376 217.169 Q101.571 220.71 101.571 227.84 Q101.571 234.946 103.376 238.511 Q105.205 242.053 108.816 242.053 Q112.45 242.053 114.256 238.511 Q116.084 234.946 116.084 227.84 Q116.084 220.71 114.256 217.169 Q112.45 213.604 108.816 213.604 M108.816 209.9 Q114.626 209.9 117.682 214.507 Q120.76 219.09 120.76 227.84 Q120.76 236.567 117.682 241.173 Q114.626 245.756 108.816 245.756 Q103.006 245.756 99.927 241.173 Q96.8715 236.567 96.8715 227.84 Q96.8715 219.09 99.927 214.507 Q103.006 209.9 108.816 209.9 Z" fill="#000000" fill-rule="evenodd" fill-opacity="1" /><path clip-path="url(#clip290)" d="M138.978 213.604 Q135.367 213.604 133.538 217.169 Q131.732 220.71 131.732 227.84 Q131.732 234.946 133.538 238.511 Q135.367 242.053 138.978 242.053 Q142.612 242.053 144.418 238.511 Q146.246 234.946 146.246 227.84 Q146.246 220.71 144.418 217.169 Q142.612 213.604 138.978 213.604 M138.978 209.9 Q144.788 209.9 147.843 214.507 Q150.922 219.09 150.922 227.84 Q150.922 236.567 147.843 241.173 Q144.788 245.756 138.978 245.756 Q133.168 245.756 130.089 241.173 Q127.033 236.567 127.033 227.84 Q127.033 219.09 130.089 214.507 Q133.168 209.9 138.978 209.9 Z" fill="#000000" fill-rule="evenodd" fill-opacity="1" /><path clip-path="url(#clip290)" d="M169.14 213.604 Q165.529 213.604 163.7 217.169 Q161.894 220.71 161.894 227.84 Q161.894 234.946 163.7 238.511 Q165.529 242.053 169.14 242.053 Q172.774 242.053 174.579 238.511 Q176.408 234.946 176.408 227.84 Q176.408 220.71 174.579 217.169 Q172.774 213.604 169.14 213.604 M169.14 209.9 Q174.95 209.9 178.005 214.507 Q181.084 219.09 181.084 227.84 Q181.084 236.567 178.005 241.173 Q174.95 245.756 169.14 245.756 Q163.329 245.756 160.251 241.173 Q157.195 236.567 157.195 227.84 Q157.195 219.09 160.251 214.507 Q163.329 209.9 169.14 209.9 Z" fill="#000000" fill-rule="evenodd" fill-opacity="1" /><path clip-path="url(#clip290)" d="M203.468 226.451 Q206.825 227.169 208.7 229.437 Q210.598 231.706 210.598 235.039 Q210.598 240.155 207.079 242.956 Q203.561 245.756 197.079 245.756 Q194.903 245.756 192.589 245.317 Q190.297 244.9 187.843 244.044 L187.843 239.53 Q189.788 240.664 192.102 241.243 Q194.417 241.821 196.94 241.821 Q201.339 241.821 203.63 240.085 Q205.945 238.349 205.945 235.039 Q205.945 231.983 203.792 230.27 Q201.663 228.534 197.843 228.534 L193.815 228.534 L193.815 224.692 L198.028 224.692 Q201.477 224.692 203.306 223.326 Q205.135 221.937 205.135 219.345 Q205.135 216.683 203.237 215.271 Q201.362 213.835 197.843 213.835 Q195.922 213.835 193.723 214.252 Q191.524 214.669 188.885 215.548 L188.885 211.382 Q191.547 210.641 193.862 210.271 Q196.2 209.9 198.26 209.9 Q203.584 209.9 206.686 212.331 Q209.788 214.738 209.788 218.858 Q209.788 221.729 208.144 223.72 Q206.501 225.687 203.468 226.451 Z" fill="#000000" fill-rule="evenodd" fill-opacity="1" /><polyline clip-path="url(#clip292)" style="stroke:#009af9; stroke-linecap:round; stroke-linejoin:round; stroke-width:4; stroke-opacity:1; fill:none" points="
  306.206,1182.77 355.88,1373.62 405.553,1346.76 455.227,1129.68 504.9,1066.77 554.574,832.242 604.247,738.843 653.921,700.705 703.594,639.534 753.268,517.59 
  802.941,349.853 852.615,87.9763 902.288,335.16 951.962,135.502 1001.64,177.678 1051.31,310.469 1100.98,204.462 1150.66,561.765 1200.33,610.264 1250,551.565 
  1299.68,748.566 1349.35,859.219 1399.02,1250.09 1448.7,1300.38 1498.37,1344.43 1548.04,1342.19 1597.72,1229.2 1647.39,1331.06 1697.07,1265.35 1746.74,1316.99 
  1796.41,1305.04 1846.09,1372.21 1895.76,1445.72 1945.43,1445.64 1995.11,1272.39 2044.78,1153.42 2094.45,1317.02 2144.13,1257.16 2193.8,1383.23 2243.47,1245.48 
  2293.15,1174.49 
  "/>
</svg>
