<?xml version="1.0" encoding="utf-8"?>
<svg xmlns="http://www.w3.org/2000/svg" xmlns:xlink="http://www.w3.org/1999/xlink" width="800" height="400" viewBox="0 0 3200 1600">
<defs>
  <clipPath id="clip550">
    <rect x="0" y="0" width="3200" height="1600"/>
  </clipPath>
</defs>
<path clip-path="url(#clip550)" d="
M0 1600 L3200 1600 L3200 0 L0 0  Z
  " fill="#ffffff" fill-rule="evenodd" fill-opacity="1"/>
<defs>
  <clipPath id="clip551">
    <rect x="640" y="0" width="2241" height="1600"/>
  </clipPath>
</defs>
<path clip-path="url(#clip550)" d="
M194.274 1495.09 L3152.76 1495.09 L3152.76 47.2441 L194.274 47.2441  Z
  " fill="#ffffff" fill-rule="evenodd" fill-opacity="1"/>
<defs>
  <clipPath id="clip552">
    <rect x="194" y="47" width="2959" height="1449"/>
  </clipPath>
</defs>
<polyline clip-path="url(#clip552)" style="stroke:#000000; stroke-linecap:round; stroke-linejoin:round; stroke-width:2; stroke-opacity:0.1; fill:none" points="
  278.005,1495.09 278.005,47.2441 
  "/>
<polyline clip-path="url(#clip552)" style="stroke:#000000; stroke-linecap:round; stroke-linejoin:round; stroke-width:2; stroke-opacity:0.1; fill:none" points="
  831.06,1495.09 831.06,47.2441 
  "/>
<polyline clip-path="url(#clip552)" style="stroke:#000000; stroke-linecap:round; stroke-linejoin:round; stroke-width:2; stroke-opacity:0.1; fill:none" points="
  1384.12,1495.09 1384.12,47.2441 
  "/>
<polyline clip-path="url(#clip552)" style="stroke:#000000; stroke-linecap:round; stroke-linejoin:round; stroke-width:2; stroke-opacity:0.1; fill:none" points="
  1937.17,1495.09 1937.17,47.2441 
  "/>
<polyline clip-path="url(#clip552)" style="stroke:#000000; stroke-linecap:round; stroke-linejoin:round; stroke-width:2; stroke-opacity:0.1; fill:none" points="
  2490.23,1495.09 2490.23,47.2441 
  "/>
<polyline clip-path="url(#clip552)" style="stroke:#000000; stroke-linecap:round; stroke-linejoin:round; stroke-width:2; stroke-opacity:0.1; fill:none" points="
  3043.28,1495.09 3043.28,47.2441 
  "/>
<polyline clip-path="url(#clip550)" style="stroke:#000000; stroke-linecap:round; stroke-linejoin:round; stroke-width:4; stroke-opacity:1; fill:none" points="
  194.274,1495.09 3152.76,1495.09 
  "/>
<polyline clip-path="url(#clip550)" style="stroke:#000000; stroke-linecap:round; stroke-linejoin:round; stroke-width:4; stroke-opacity:1; fill:none" points="
  278.005,1495.09 278.005,1476.19 
  "/>
<polyline clip-path="url(#clip550)" style="stroke:#000000; stroke-linecap:round; stroke-linejoin:round; stroke-width:4; stroke-opacity:1; fill:none" points="
  831.06,1495.09 831.06,1476.19 
  "/>
<polyline clip-path="url(#clip550)" style="stroke:#000000; stroke-linecap:round; stroke-linejoin:round; stroke-width:4; stroke-opacity:1; fill:none" points="
  1384.12,1495.09 1384.12,1476.19 
  "/>
<polyline clip-path="url(#clip550)" style="stroke:#000000; stroke-linecap:round; stroke-linejoin:round; stroke-width:4; stroke-opacity:1; fill:none" points="
  1937.17,1495.09 1937.17,1476.19 
  "/>
<polyline clip-path="url(#clip550)" style="stroke:#000000; stroke-linecap:round; stroke-linejoin:round; stroke-width:4; stroke-opacity:1; fill:none" points="
  2490.23,1495.09 2490.23,1476.19 
  "/>
<polyline clip-path="url(#clip550)" style="stroke:#000000; stroke-linecap:round; stroke-linejoin:round; stroke-width:4; stroke-opacity:1; fill:none" points="
  3043.28,1495.09 3043.28,1476.19 
  "/>
<path clip-path="url(#clip550)" d="M278.005 1532.41 Q274.394 1532.41 272.565 1535.97 Q270.759 1539.51 270.759 1546.64 Q270.759 1553.75 272.565 1557.31 Q274.394 1560.86 278.005 1560.86 Q281.639 1560.86 283.444 1557.31 Q285.273 1553.75 285.273 1546.64 Q285.273 1539.51 283.444 1535.97 Q281.639 1532.41 278.005 1532.41 M278.005 1528.7 Q283.815 1528.7 286.87 1533.31 Q289.949 1537.89 289.949 1546.64 Q289.949 1555.37 286.87 1559.98 Q283.815 1564.56 278.005 1564.56 Q272.194 1564.56 269.116 1559.98 Q266.06 1555.37 266.06 1546.64 Q266.06 1537.89 269.116 1533.31 Q272.194 1528.7 278.005 1528.7 Z" fill="#000000" fill-rule="evenodd" fill-opacity="1" /><path clip-path="url(#clip550)" d="M805.759 1529.33 L824.116 1529.33 L824.116 1533.26 L810.042 1533.26 L810.042 1541.74 Q811.06 1541.39 812.079 1541.23 Q813.097 1541.04 814.116 1541.04 Q819.903 1541.04 823.282 1544.21 Q826.662 1547.38 826.662 1552.8 Q826.662 1558.38 823.19 1561.48 Q819.717 1564.56 813.398 1564.56 Q811.222 1564.56 808.954 1564.19 Q806.708 1563.82 804.301 1563.08 L804.301 1558.38 Q806.384 1559.51 808.606 1560.07 Q810.829 1560.62 813.305 1560.62 Q817.31 1560.62 819.648 1558.52 Q821.986 1556.41 821.986 1552.8 Q821.986 1549.19 819.648 1547.08 Q817.31 1544.98 813.305 1544.98 Q811.43 1544.98 809.555 1545.39 Q807.704 1545.81 805.759 1546.69 L805.759 1529.33 Z" fill="#000000" fill-rule="evenodd" fill-opacity="1" /><path clip-path="url(#clip550)" d="M845.875 1532.41 Q842.264 1532.41 840.435 1535.97 Q838.629 1539.51 838.629 1546.64 Q838.629 1553.75 840.435 1557.31 Q842.264 1560.86 845.875 1560.86 Q849.509 1560.86 851.315 1557.31 Q853.143 1553.75 853.143 1546.64 Q853.143 1539.51 851.315 1535.97 Q849.509 1532.41 845.875 1532.41 M845.875 1528.7 Q851.685 1528.7 854.74 1533.31 Q857.819 1537.89 857.819 1546.64 Q857.819 1555.37 854.74 1559.98 Q851.685 1564.56 845.875 1564.56 Q840.065 1564.56 836.986 1559.98 Q833.93 1555.37 833.93 1546.64 Q833.93 1537.89 836.986 1533.31 Q840.065 1528.7 845.875 1528.7 Z" fill="#000000" fill-rule="evenodd" fill-opacity="1" /><path clip-path="url(#clip550)" d="M1343.72 1559.95 L1351.36 1559.95 L1351.36 1533.59 L1343.05 1535.25 L1343.05 1530.99 L1351.31 1529.33 L1355.99 1529.33 L1355.99 1559.95 L1363.63 1559.95 L1363.63 1563.89 L1343.72 1563.89 L1343.72 1559.95 Z" fill="#000000" fill-rule="evenodd" fill-opacity="1" /><path clip-path="url(#clip550)" d="M1383.07 1532.41 Q1379.46 1532.41 1377.63 1535.97 Q1375.83 1539.51 1375.83 1546.64 Q1375.83 1553.75 1377.63 1557.31 Q1379.46 1560.86 1383.07 1560.86 Q1386.71 1560.86 1388.51 1557.31 Q1390.34 1553.75 1390.34 1546.64 Q1390.34 1539.51 1388.51 1535.97 Q1386.71 1532.41 1383.07 1532.41 M1383.07 1528.7 Q1388.88 1528.7 1391.94 1533.31 Q1395.02 1537.89 1395.02 1546.64 Q1395.02 1555.37 1391.94 1559.98 Q1388.88 1564.56 1383.07 1564.56 Q1377.26 1564.56 1374.18 1559.98 Q1371.13 1555.37 1371.13 1546.64 Q1371.13 1537.89 1374.18 1533.31 Q1377.26 1528.7 1383.07 1528.7 Z" fill="#000000" fill-rule="evenodd" fill-opacity="1" /><path clip-path="url(#clip550)" d="M1413.24 1532.41 Q1409.62 1532.41 1407.8 1535.97 Q1405.99 1539.51 1405.99 1546.64 Q1405.99 1553.75 1407.8 1557.31 Q1409.62 1560.86 1413.24 1560.86 Q1416.87 1560.86 1418.68 1557.31 Q1420.5 1553.75 1420.5 1546.64 Q1420.5 1539.51 1418.68 1535.97 Q1416.87 1532.41 1413.24 1532.41 M1413.24 1528.7 Q1419.05 1528.7 1422.1 1533.31 Q1425.18 1537.89 1425.18 1546.64 Q1425.18 1555.37 1422.1 1559.98 Q1419.05 1564.56 1413.24 1564.56 Q1407.43 1564.56 1404.35 1559.98 Q1401.29 1555.37 1401.29 1546.64 Q1401.29 1537.89 1404.35 1533.31 Q1407.43 1528.7 1413.24 1528.7 Z" fill="#000000" fill-rule="evenodd" fill-opacity="1" /><path clip-path="url(#clip550)" d="M1896.78 1559.95 L1904.42 1559.95 L1904.42 1533.59 L1896.11 1535.25 L1896.11 1530.99 L1904.37 1529.33 L1909.05 1529.33 L1909.05 1559.95 L1916.68 1559.95 L1916.68 1563.89 L1896.78 1563.89 L1896.78 1559.95 Z" fill="#000000" fill-rule="evenodd" fill-opacity="1" /><path clip-path="url(#clip550)" d="M1926.18 1529.33 L1944.53 1529.33 L1944.53 1533.26 L1930.46 1533.26 L1930.46 1541.74 Q1931.48 1541.39 1932.49 1541.23 Q1933.51 1541.04 1934.53 1541.04 Q1940.32 1541.04 1943.7 1544.21 Q1947.08 1547.38 1947.08 1552.8 Q1947.08 1558.38 1943.61 1561.48 Q1940.13 1564.56 1933.81 1564.56 Q1931.64 1564.56 1929.37 1564.19 Q1927.12 1563.82 1924.72 1563.08 L1924.72 1558.38 Q1926.8 1559.51 1929.02 1560.07 Q1931.24 1560.62 1933.72 1560.62 Q1937.73 1560.62 1940.06 1558.52 Q1942.4 1556.41 1942.4 1552.8 Q1942.4 1549.19 1940.06 1547.08 Q1937.73 1544.98 1933.72 1544.98 Q1931.85 1544.98 1929.97 1545.39 Q1928.12 1545.81 1926.18 1546.69 L1926.18 1529.33 Z" fill="#000000" fill-rule="evenodd" fill-opacity="1" /><path clip-path="url(#clip550)" d="M1966.29 1532.41 Q1962.68 1532.41 1960.85 1535.97 Q1959.05 1539.51 1959.05 1546.64 Q1959.05 1553.75 1960.85 1557.31 Q1962.68 1560.86 1966.29 1560.86 Q1969.93 1560.86 1971.73 1557.31 Q1973.56 1553.75 1973.56 1546.64 Q1973.56 1539.51 1971.73 1535.97 Q1969.93 1532.41 1966.29 1532.41 M1966.29 1528.7 Q1972.1 1528.7 1975.16 1533.31 Q1978.24 1537.89 1978.24 1546.64 Q1978.24 1555.37 1975.16 1559.98 Q1972.1 1564.56 1966.29 1564.56 Q1960.48 1564.56 1957.4 1559.98 Q1954.35 1555.37 1954.35 1546.64 Q1954.35 1537.89 1957.4 1533.31 Q1960.48 1528.7 1966.29 1528.7 Z" fill="#000000" fill-rule="evenodd" fill-opacity="1" /><path clip-path="url(#clip550)" d="M2453.92 1559.95 L2470.24 1559.95 L2470.24 1563.89 L2448.29 1563.89 L2448.29 1559.95 Q2450.96 1557.2 2455.54 1552.57 Q2460.15 1547.92 2461.33 1546.57 Q2463.57 1544.05 2464.45 1542.31 Q2465.35 1540.55 2465.35 1538.86 Q2465.35 1536.11 2463.41 1534.37 Q2461.49 1532.64 2458.39 1532.64 Q2456.19 1532.64 2453.73 1533.4 Q2451.3 1534.17 2448.52 1535.72 L2448.52 1530.99 Q2451.35 1529.86 2453.8 1529.28 Q2456.26 1528.7 2458.29 1528.7 Q2463.66 1528.7 2466.86 1531.39 Q2470.05 1534.07 2470.05 1538.56 Q2470.05 1540.69 2469.24 1542.61 Q2468.46 1544.51 2466.35 1547.11 Q2465.77 1547.78 2462.67 1550.99 Q2459.57 1554.19 2453.92 1559.95 Z" fill="#000000" fill-rule="evenodd" fill-opacity="1" /><path clip-path="url(#clip550)" d="M2490.05 1532.41 Q2486.44 1532.41 2484.61 1535.97 Q2482.81 1539.51 2482.81 1546.64 Q2482.81 1553.75 2484.61 1557.31 Q2486.44 1560.86 2490.05 1560.86 Q2493.69 1560.86 2495.49 1557.31 Q2497.32 1553.75 2497.32 1546.64 Q2497.32 1539.51 2495.49 1535.97 Q2493.69 1532.41 2490.05 1532.41 M2490.05 1528.7 Q2495.86 1528.7 2498.92 1533.31 Q2502 1537.89 2502 1546.64 Q2502 1555.37 2498.92 1559.98 Q2495.86 1564.56 2490.05 1564.56 Q2484.24 1564.56 2481.16 1559.98 Q2478.11 1555.37 2478.11 1546.64 Q2478.11 1537.89 2481.16 1533.31 Q2484.24 1528.7 2490.05 1528.7 Z" fill="#000000" fill-rule="evenodd" fill-opacity="1" /><path clip-path="url(#clip550)" d="M2520.21 1532.41 Q2516.6 1532.41 2514.77 1535.97 Q2512.97 1539.51 2512.97 1546.64 Q2512.97 1553.75 2514.77 1557.31 Q2516.6 1560.86 2520.21 1560.86 Q2523.85 1560.86 2525.65 1557.31 Q2527.48 1553.75 2527.48 1546.64 Q2527.48 1539.51 2525.65 1535.97 Q2523.85 1532.41 2520.21 1532.41 M2520.21 1528.7 Q2526.02 1528.7 2529.08 1533.31 Q2532.16 1537.89 2532.16 1546.64 Q2532.16 1555.37 2529.08 1559.98 Q2526.02 1564.56 2520.21 1564.56 Q2514.4 1564.56 2511.33 1559.98 Q2508.27 1555.37 2508.27 1546.64 Q2508.27 1537.89 2511.33 1533.31 Q2514.4 1528.7 2520.21 1528.7 Z" fill="#000000" fill-rule="evenodd" fill-opacity="1" /><path clip-path="url(#clip550)" d="M3006.97 1559.95 L3023.29 1559.95 L3023.29 1563.89 L3001.35 1563.89 L3001.35 1559.95 Q3004.01 1557.2 3008.59 1552.57 Q3013.2 1547.92 3014.38 1546.57 Q3016.63 1544.05 3017.51 1542.31 Q3018.41 1540.55 3018.41 1538.86 Q3018.41 1536.11 3016.46 1534.37 Q3014.54 1532.64 3011.44 1532.64 Q3009.24 1532.64 3006.79 1533.4 Q3004.36 1534.17 3001.58 1535.72 L3001.58 1530.99 Q3004.4 1529.86 3006.86 1529.28 Q3009.31 1528.7 3011.35 1528.7 Q3016.72 1528.7 3019.91 1531.39 Q3023.11 1534.07 3023.11 1538.56 Q3023.11 1540.69 3022.3 1542.61 Q3021.51 1544.51 3019.4 1547.11 Q3018.83 1547.78 3015.72 1550.99 Q3012.62 1554.19 3006.97 1559.95 Z" fill="#000000" fill-rule="evenodd" fill-opacity="1" /><path clip-path="url(#clip550)" d="M3033.15 1529.33 L3051.51 1529.33 L3051.51 1533.26 L3037.44 1533.26 L3037.44 1541.74 Q3038.46 1541.39 3039.47 1541.23 Q3040.49 1541.04 3041.51 1541.04 Q3047.3 1541.04 3050.68 1544.21 Q3054.06 1547.38 3054.06 1552.8 Q3054.06 1558.38 3050.58 1561.48 Q3047.11 1564.56 3040.79 1564.56 Q3038.62 1564.56 3036.35 1564.19 Q3034.1 1563.82 3031.7 1563.08 L3031.7 1558.38 Q3033.78 1559.51 3036 1560.07 Q3038.22 1560.62 3040.7 1560.62 Q3044.71 1560.62 3047.04 1558.52 Q3049.38 1556.41 3049.38 1552.8 Q3049.38 1549.19 3047.04 1547.08 Q3044.71 1544.98 3040.7 1544.98 Q3038.83 1544.98 3036.95 1545.39 Q3035.1 1545.81 3033.15 1546.69 L3033.15 1529.33 Z" fill="#000000" fill-rule="evenodd" fill-opacity="1" /><path clip-path="url(#clip550)" d="M3073.27 1532.41 Q3069.66 1532.41 3067.83 1535.97 Q3066.02 1539.51 3066.02 1546.64 Q3066.02 1553.75 3067.83 1557.31 Q3069.66 1560.86 3073.27 1560.86 Q3076.9 1560.86 3078.71 1557.31 Q3080.54 1553.75 3080.54 1546.64 Q3080.54 1539.51 3078.71 1535.97 Q3076.9 1532.41 3073.27 1532.41 M3073.27 1528.7 Q3079.08 1528.7 3082.14 1533.31 Q3085.21 1537.89 3085.21 1546.64 Q3085.21 1555.37 3082.14 1559.98 Q3079.08 1564.56 3073.27 1564.56 Q3067.46 1564.56 3064.38 1559.98 Q3061.33 1555.37 3061.33 1546.64 Q3061.33 1537.89 3064.38 1533.31 Q3067.46 1528.7 3073.27 1528.7 Z" fill="#000000" fill-rule="evenodd" fill-opacity="1" /><polyline clip-path="url(#clip552)" style="stroke:#000000; stroke-linecap:round; stroke-linejoin:round; stroke-width:2; stroke-opacity:0.1; fill:none" points="
  194.274,1374.43 3152.76,1374.43 
  "/>
<polyline clip-path="url(#clip552)" style="stroke:#000000; stroke-linecap:round; stroke-linejoin:round; stroke-width:2; stroke-opacity:0.1; fill:none" points="
  194.274,1072.8 3152.76,1072.8 
  "/>
<polyline clip-path="url(#clip552)" style="stroke:#000000; stroke-linecap:round; stroke-linejoin:round; stroke-width:2; stroke-opacity:0.1; fill:none" points="
  194.274,771.166 3152.76,771.166 
  "/>
<polyline clip-path="url(#clip552)" style="stroke:#000000; stroke-linecap:round; stroke-linejoin:round; stroke-width:2; stroke-opacity:0.1; fill:none" points="
  194.274,469.532 3152.76,469.532 
  "/>
<polyline clip-path="url(#clip552)" style="stroke:#000000; stroke-linecap:round; stroke-linejoin:round; stroke-width:2; stroke-opacity:0.1; fill:none" points="
  194.274,167.898 3152.76,167.898 
  "/>
<polyline clip-path="url(#clip550)" style="stroke:#000000; stroke-linecap:round; stroke-linejoin:round; stroke-width:4; stroke-opacity:1; fill:none" points="
  194.274,1495.09 194.274,47.2441 
  "/>
<polyline clip-path="url(#clip550)" style="stroke:#000000; stroke-linecap:round; stroke-linejoin:round; stroke-width:4; stroke-opacity:1; fill:none" points="
  194.274,1374.43 213.172,1374.43 
  "/>
<polyline clip-path="url(#clip550)" style="stroke:#000000; stroke-linecap:round; stroke-linejoin:round; stroke-width:4; stroke-opacity:1; fill:none" points="
  194.274,1072.8 213.172,1072.8 
  "/>
<polyline clip-path="url(#clip550)" style="stroke:#000000; stroke-linecap:round; stroke-linejoin:round; stroke-width:4; stroke-opacity:1; fill:none" points="
  194.274,771.166 213.172,771.166 
  "/>
<polyline clip-path="url(#clip550)" style="stroke:#000000; stroke-linecap:round; stroke-linejoin:round; stroke-width:4; stroke-opacity:1; fill:none" points="
  194.274,469.532 213.172,469.532 
  "/>
<polyline clip-path="url(#clip550)" style="stroke:#000000; stroke-linecap:round; stroke-linejoin:round; stroke-width:4; stroke-opacity:1; fill:none" points="
  194.274,167.898 213.172,167.898 
  "/>
<path clip-path="url(#clip550)" d="M58.9365 1360.23 Q55.3254 1360.23 53.4967 1363.8 Q51.6912 1367.34 51.6912 1374.47 Q51.6912 1381.58 53.4967 1385.14 Q55.3254 1388.68 58.9365 1388.68 Q62.5707 1388.68 64.3763 1385.14 Q66.205 1381.58 66.205 1374.47 Q66.205 1367.34 64.3763 1363.8 Q62.5707 1360.23 58.9365 1360.23 M58.9365 1356.53 Q64.7467 1356.53 67.8022 1361.14 Q70.8809 1365.72 70.8809 1374.47 Q70.8809 1383.2 67.8022 1387.8 Q64.7467 1392.39 58.9365 1392.39 Q53.1264 1392.39 50.0477 1387.8 Q46.9921 1383.2 46.9921 1374.47 Q46.9921 1365.72 50.0477 1361.14 Q53.1264 1356.53 58.9365 1356.53 Z" fill="#000000" fill-rule="evenodd" fill-opacity="1" /><path clip-path="url(#clip550)" d="M79.0984 1385.83 L83.9827 1385.83 L83.9827 1391.71 L79.0984 1391.71 L79.0984 1385.83 Z" fill="#000000" fill-rule="evenodd" fill-opacity="1" /><path clip-path="url(#clip550)" d="M104.168 1360.23 Q100.557 1360.23 98.728 1363.8 Q96.9224 1367.34 96.9224 1374.47 Q96.9224 1381.58 98.728 1385.14 Q100.557 1388.68 104.168 1388.68 Q107.802 1388.68 109.608 1385.14 Q111.436 1381.58 111.436 1374.47 Q111.436 1367.34 109.608 1363.8 Q107.802 1360.23 104.168 1360.23 M104.168 1356.53 Q109.978 1356.53 113.033 1361.14 Q116.112 1365.72 116.112 1374.47 Q116.112 1383.2 113.033 1387.8 Q109.978 1392.39 104.168 1392.39 Q98.3576 1392.39 95.2789 1387.8 Q92.2234 1383.2 92.2234 1374.47 Q92.2234 1365.72 95.2789 1361.14 Q98.3576 1356.53 104.168 1356.53 Z" fill="#000000" fill-rule="evenodd" fill-opacity="1" /><path clip-path="url(#clip550)" d="M134.33 1360.23 Q130.719 1360.23 128.89 1363.8 Q127.084 1367.34 127.084 1374.47 Q127.084 1381.58 128.89 1385.14 Q130.719 1388.68 134.33 1388.68 Q137.964 1388.68 139.769 1385.14 Q141.598 1381.58 141.598 1374.47 Q141.598 1367.34 139.769 1363.8 Q137.964 1360.23 134.33 1360.23 M134.33 1356.53 Q140.14 1356.53 143.195 1361.14 Q146.274 1365.72 146.274 1374.47 Q146.274 1383.2 143.195 1387.8 Q140.14 1392.39 134.33 1392.39 Q128.519 1392.39 125.441 1387.8 Q122.385 1383.2 122.385 1374.47 Q122.385 1365.72 125.441 1361.14 Q128.519 1356.53 134.33 1356.53 Z" fill="#000000" fill-rule="evenodd" fill-opacity="1" /><path clip-path="url(#clip550)" d="M59.9319 1058.6 Q56.3208 1058.6 54.4921 1062.16 Q52.6865 1065.71 52.6865 1072.83 Q52.6865 1079.94 54.4921 1083.51 Q56.3208 1087.05 59.9319 1087.05 Q63.5661 1087.05 65.3717 1083.51 Q67.2004 1079.94 67.2004 1072.83 Q67.2004 1065.71 65.3717 1062.16 Q63.5661 1058.6 59.9319 1058.6 M59.9319 1054.9 Q65.742 1054.9 68.7976 1059.5 Q71.8763 1064.08 71.8763 1072.83 Q71.8763 1081.56 68.7976 1086.17 Q65.742 1090.75 59.9319 1090.75 Q54.1217 1090.75 51.043 1086.17 Q47.9875 1081.56 47.9875 1072.83 Q47.9875 1064.08 51.043 1059.5 Q54.1217 1054.9 59.9319 1054.9 Z" fill="#000000" fill-rule="evenodd" fill-opacity="1" /><path clip-path="url(#clip550)" d="M80.0938 1084.2 L84.978 1084.2 L84.978 1090.08 L80.0938 1090.08 L80.0938 1084.2 Z" fill="#000000" fill-rule="evenodd" fill-opacity="1" /><path clip-path="url(#clip550)" d="M99.1909 1086.14 L115.51 1086.14 L115.51 1090.08 L93.566 1090.08 L93.566 1086.14 Q96.228 1083.39 100.811 1078.76 Q105.418 1074.11 106.598 1072.77 Q108.844 1070.24 109.723 1068.51 Q110.626 1066.75 110.626 1065.06 Q110.626 1062.3 108.682 1060.57 Q106.76 1058.83 103.658 1058.83 Q101.459 1058.83 99.0057 1059.59 Q96.5752 1060.36 93.7974 1061.91 L93.7974 1057.19 Q96.6215 1056.05 99.0752 1055.47 Q101.529 1054.9 103.566 1054.9 Q108.936 1054.9 112.131 1057.58 Q115.325 1060.27 115.325 1064.76 Q115.325 1066.89 114.515 1068.81 Q113.728 1070.71 111.621 1073.3 Q111.043 1073.97 107.941 1077.19 Q104.839 1080.38 99.1909 1086.14 Z" fill="#000000" fill-rule="evenodd" fill-opacity="1" /><path clip-path="url(#clip550)" d="M125.371 1055.52 L143.728 1055.52 L143.728 1059.46 L129.654 1059.46 L129.654 1067.93 Q130.672 1067.58 131.691 1067.42 Q132.709 1067.23 133.728 1067.23 Q139.515 1067.23 142.894 1070.4 Q146.274 1073.58 146.274 1078.99 Q146.274 1084.57 142.802 1087.67 Q139.33 1090.75 133.01 1090.75 Q130.834 1090.75 128.566 1090.38 Q126.32 1090.01 123.913 1089.27 L123.913 1084.57 Q125.996 1085.71 128.219 1086.26 Q130.441 1086.82 132.918 1086.82 Q136.922 1086.82 139.26 1084.71 Q141.598 1082.6 141.598 1078.99 Q141.598 1075.38 139.26 1073.27 Q136.922 1071.17 132.918 1071.17 Q131.043 1071.17 129.168 1071.58 Q127.316 1072 125.371 1072.88 L125.371 1055.52 Z" fill="#000000" fill-rule="evenodd" fill-opacity="1" /><path clip-path="url(#clip550)" d="M58.9365 756.965 Q55.3254 756.965 53.4967 760.529 Q51.6912 764.071 51.6912 771.201 Q51.6912 778.307 53.4967 781.872 Q55.3254 785.414 58.9365 785.414 Q62.5707 785.414 64.3763 781.872 Q66.205 778.307 66.205 771.201 Q66.205 764.071 64.3763 760.529 Q62.5707 756.965 58.9365 756.965 M58.9365 753.261 Q64.7467 753.261 67.8022 757.867 Q70.8809 762.451 70.8809 771.201 Q70.8809 779.928 67.8022 784.534 Q64.7467 789.117 58.9365 789.117 Q53.1264 789.117 50.0477 784.534 Q46.9921 779.928 46.9921 771.201 Q46.9921 762.451 50.0477 757.867 Q53.1264 753.261 58.9365 753.261 Z" fill="#000000" fill-rule="evenodd" fill-opacity="1" /><path clip-path="url(#clip550)" d="M79.0984 782.566 L83.9827 782.566 L83.9827 788.446 L79.0984 788.446 L79.0984 782.566 Z" fill="#000000" fill-rule="evenodd" fill-opacity="1" /><path clip-path="url(#clip550)" d="M94.2141 753.886 L112.57 753.886 L112.57 757.821 L98.4965 757.821 L98.4965 766.293 Q99.515 765.946 100.534 765.784 Q101.552 765.599 102.571 765.599 Q108.358 765.599 111.737 768.77 Q115.117 771.941 115.117 777.358 Q115.117 782.937 111.645 786.039 Q108.172 789.117 101.853 789.117 Q99.677 789.117 97.4085 788.747 Q95.1632 788.377 92.7558 787.636 L92.7558 782.937 Q94.8391 784.071 97.0613 784.627 Q99.2835 785.182 101.76 785.182 Q105.765 785.182 108.103 783.076 Q110.441 780.969 110.441 777.358 Q110.441 773.747 108.103 771.641 Q105.765 769.534 101.76 769.534 Q99.8854 769.534 98.0104 769.951 Q96.1585 770.367 94.2141 771.247 L94.2141 753.886 Z" fill="#000000" fill-rule="evenodd" fill-opacity="1" /><path clip-path="url(#clip550)" d="M134.33 756.965 Q130.719 756.965 128.89 760.529 Q127.084 764.071 127.084 771.201 Q127.084 778.307 128.89 781.872 Q130.719 785.414 134.33 785.414 Q137.964 785.414 139.769 781.872 Q141.598 778.307 141.598 771.201 Q141.598 764.071 139.769 760.529 Q137.964 756.965 134.33 756.965 M134.33 753.261 Q140.14 753.261 143.195 757.867 Q146.274 762.451 146.274 771.201 Q146.274 779.928 143.195 784.534 Q140.14 789.117 134.33 789.117 Q128.519 789.117 125.441 784.534 Q122.385 779.928 122.385 771.201 Q122.385 762.451 125.441 757.867 Q128.519 753.261 134.33 753.261 Z" fill="#000000" fill-rule="evenodd" fill-opacity="1" /><path clip-path="url(#clip550)" d="M59.9319 455.331 Q56.3208 455.331 54.4921 458.895 Q52.6865 462.437 52.6865 469.567 Q52.6865 476.673 54.4921 480.238 Q56.3208 483.779 59.9319 483.779 Q63.5661 483.779 65.3717 480.238 Q67.2004 476.673 67.2004 469.567 Q67.2004 462.437 65.3717 458.895 Q63.5661 455.331 59.9319 455.331 M59.9319 451.627 Q65.742 451.627 68.7976 456.233 Q71.8763 460.817 71.8763 469.567 Q71.8763 478.293 68.7976 482.9 Q65.742 487.483 59.9319 487.483 Q54.1217 487.483 51.043 482.9 Q47.9875 478.293 47.9875 469.567 Q47.9875 460.817 51.043 456.233 Q54.1217 451.627 59.9319 451.627 Z" fill="#000000" fill-rule="evenodd" fill-opacity="1" /><path clip-path="url(#clip550)" d="M80.0938 480.932 L84.978 480.932 L84.978 486.812 L80.0938 486.812 L80.0938 480.932 Z" fill="#000000" fill-rule="evenodd" fill-opacity="1" /><path clip-path="url(#clip550)" d="M93.9826 452.252 L116.205 452.252 L116.205 454.243 L103.658 486.812 L98.7743 486.812 L110.58 456.187 L93.9826 456.187 L93.9826 452.252 Z" fill="#000000" fill-rule="evenodd" fill-opacity="1" /><path clip-path="url(#clip550)" d="M125.371 452.252 L143.728 452.252 L143.728 456.187 L129.654 456.187 L129.654 464.659 Q130.672 464.312 131.691 464.15 Q132.709 463.965 133.728 463.965 Q139.515 463.965 142.894 467.136 Q146.274 470.307 146.274 475.724 Q146.274 481.303 142.802 484.404 Q139.33 487.483 133.01 487.483 Q130.834 487.483 128.566 487.113 Q126.32 486.742 123.913 486.002 L123.913 481.303 Q125.996 482.437 128.219 482.992 Q130.441 483.548 132.918 483.548 Q136.922 483.548 139.26 481.442 Q141.598 479.335 141.598 475.724 Q141.598 472.113 139.26 470.006 Q136.922 467.9 132.918 467.9 Q131.043 467.9 129.168 468.317 Q127.316 468.733 125.371 469.613 L125.371 452.252 Z" fill="#000000" fill-rule="evenodd" fill-opacity="1" /><path clip-path="url(#clip550)" d="M49.7467 181.243 L57.3856 181.243 L57.3856 154.877 L49.0754 156.544 L49.0754 152.284 L57.3393 150.618 L62.0152 150.618 L62.0152 181.243 L69.654 181.243 L69.654 185.178 L49.7467 185.178 L49.7467 181.243 Z" fill="#000000" fill-rule="evenodd" fill-opacity="1" /><path clip-path="url(#clip550)" d="M79.0984 179.298 L83.9827 179.298 L83.9827 185.178 L79.0984 185.178 L79.0984 179.298 Z" fill="#000000" fill-rule="evenodd" fill-opacity="1" /><path clip-path="url(#clip550)" d="M104.168 153.696 Q100.557 153.696 98.728 157.261 Q96.9224 160.803 96.9224 167.932 Q96.9224 175.039 98.728 178.604 Q100.557 182.145 104.168 182.145 Q107.802 182.145 109.608 178.604 Q111.436 175.039 111.436 167.932 Q111.436 160.803 109.608 157.261 Q107.802 153.696 104.168 153.696 M104.168 149.993 Q109.978 149.993 113.033 154.599 Q116.112 159.183 116.112 167.932 Q116.112 176.659 113.033 181.266 Q109.978 185.849 104.168 185.849 Q98.3576 185.849 95.2789 181.266 Q92.2234 176.659 92.2234 167.932 Q92.2234 159.183 95.2789 154.599 Q98.3576 149.993 104.168 149.993 Z" fill="#000000" fill-rule="evenodd" fill-opacity="1" /><path clip-path="url(#clip550)" d="M134.33 153.696 Q130.719 153.696 128.89 157.261 Q127.084 160.803 127.084 167.932 Q127.084 175.039 128.89 178.604 Q130.719 182.145 134.33 182.145 Q137.964 182.145 139.769 178.604 Q141.598 175.039 141.598 167.932 Q141.598 160.803 139.769 157.261 Q137.964 153.696 134.33 153.696 M134.33 149.993 Q140.14 149.993 143.195 154.599 Q146.274 159.183 146.274 167.932 Q146.274 176.659 143.195 181.266 Q140.14 185.849 134.33 185.849 Q128.519 185.849 125.441 181.266 Q122.385 176.659 122.385 167.932 Q122.385 159.183 125.441 154.599 Q128.519 149.993 134.33 149.993 Z" fill="#000000" fill-rule="evenodd" fill-opacity="1" /><polyline clip-path="url(#clip552)" style="stroke:#009af9; stroke-linecap:round; stroke-linejoin:round; stroke-width:4; stroke-opacity:1; fill:none" points="
  278.005,167.898 278.675,172.768 281.012,253.924 284.138,435.665 288.186,585.478 292.665,537.724 298.298,438.597 303.516,524.638 309.371,651.899 315.273,667.071 
  321.92,698.521 327.911,782.097 335.006,844.171 341.874,887.032 348.676,945.965 355.816,994.108 363.026,1031.4 369.984,1065.16 377.148,1090.42 384.291,1107.61 
  391.364,1117.72 398.513,1120.63 405.726,1117.56 413.023,1108.18 420.429,1093.66 427.85,1075.49 435.306,1053.86 442.783,1030.54 450.256,1006.72 457.736,982.998 
  465.215,960.72 472.693,940.616 480.163,923.207 487.619,909.173 495.059,898.769 502.485,892.091 509.902,889.212 517.315,889.973 524.732,894.126 532.159,901.377 
  539.602,911.321 547.068,923.507 554.561,937.458 562.084,952.654 569.639,968.567 577.223,984.673 584.864,1000.53 592.591,1015.73 600.399,1029.81 608.291,1042.39 
  616.267,1053.15 624.323,1061.84 632.451,1068.29 640.634,1072.46 648.849,1074.38 657.062,1074.22 665.272,1072.25 673.444,1068.78 681.566,1064.18 689.626,1058.81 
  697.622,1053.02 705.553,1047.15 713.427,1041.45 721.248,1036.16 729.025,1031.47 736.762,1027.52 744.468,1024.4 752.147,1022.18 759.804,1020.86 767.445,1020.45 
  775.074,1020.9 782.694,1022.14 790.307,1024.08 797.912,1026.62 805.495,1029.63 813.105,1033.01 820.729,1036.62 828.376,1040.34 836.045,1044.04 843.736,1047.62 
  851.447,1050.95 859.178,1053.97 866.924,1056.58 874.683,1058.74 882.449,1060.43 890.217,1061.62 897.985,1062.34 905.753,1062.6 913.515,1062.45 921.265,1061.95 
  928.989,1061.15 936.715,1060.12 944.449,1058.92 952.186,1057.63 959.923,1056.3 967.659,1054.99 975.392,1053.76 983.118,1052.66 990.833,1051.71 998.523,1050.95 
  1006.21,1050.4 1013.91,1050.06 1021.61,1049.93 1029.33,1050.01 1037.05,1050.29 1044.76,1050.73 1052.47,1051.33 1060.19,1052.04 1067.92,1052.84 1075.66,1053.69 
  1083.41,1054.56 1091.17,1055.43 1098.93,1056.26 1106.7,1057.03 1114.48,1057.72 1122.26,1058.32 1130.05,1058.8 1137.83,1059.18 1145.61,1059.44 1153.36,1059.59 
  1161.12,1059.64 1168.9,1059.6 1176.67,1059.47 1184.45,1059.27 1192.24,1059.02 1200.03,1058.73 1207.81,1058.42 1215.6,1058.1 1223.39,1057.79 1231.17,1057.5 
  1238.95,1057.25 1246.73,1057.03 1254.5,1056.86 1262.26,1056.74 1270.01,1056.67 1277.71,1056.65 1285.45,1056.68 1293.19,1056.75 1300.95,1056.86 1308.71,1057 
  1316.48,1057.17 1324.25,1057.36 1332.02,1057.56 1339.78,1057.76 1347.51,1057.95 1355.26,1058.14 1363.02,1058.31 1370.79,1058.47 1378.57,1058.6 1386.35,1058.7 
  1394.12,1058.78 1401.89,1058.84 1409.67,1058.86 1417.45,1058.87 1425.23,1058.85 1433.02,1058.82 1440.81,1058.77 1448.61,1058.71 1456.4,1058.64 1464.2,1058.57 
  1471.99,1058.5 1479.79,1058.43 1487.58,1058.37 1495.35,1058.31 1503.11,1058.26 1510.88,1058.23 1518.65,1058.2 1526.43,1058.19 1534.22,1058.19 1542.01,1058.19 
  1549.8,1058.21 1557.59,1058.24 1565.39,1058.27 1573.19,1058.31 1580.98,1058.36 1588.78,1058.4 1596.57,1058.45 1604.35,1058.49 1612.13,1058.53 1619.88,1058.57 
  1627.61,1058.6 1635.37,1058.63 1643.14,1058.65 1650.92,1058.67 1658.71,1058.68 1666.49,1058.68 1674.28,1058.68 1682.06,1058.68 1689.83,1058.67 1697.56,1058.65 
  1705.32,1058.64 1713.09,1058.62 1720.88,1058.6 1728.66,1058.59 1736.45,1058.57 1744.23,1058.56 1752,1058.55 1759.78,1058.54 1767.57,1058.53 1775.36,1058.52 
  1783.15,1058.52 1790.95,1058.52 1798.75,1058.53 1806.55,1058.53 1814.35,1058.54 1822.15,1058.55 1829.95,1058.56 1837.75,1058.57 1845.52,1058.58 1853.29,1058.6 
  1861.07,1058.61 1868.85,1058.62 1876.64,1058.62 1884.44,1058.63 1892.24,1058.64 1900.04,1058.64 1907.84,1058.64 1915.64,1058.64 1923.44,1058.64 1931.25,1058.64 
  1939.05,1058.64 1946.84,1058.64 1954.63,1058.64 1962.41,1058.63 1970.15,1058.63 1977.9,1058.62 1985.67,1058.62 1993.44,1058.61 2001.23,1058.61 2009.02,1058.6 
  2016.81,1058.6 2024.6,1058.6 2032.38,1058.6 2040.14,1058.6 2047.89,1058.6 2055.66,1058.6 2063.44,1058.6 2071.22,1058.6 2079.01,1058.6 2086.8,1058.61 
  2094.57,1058.61 2102.36,1058.61 2110.14,1058.61 2117.94,1058.62 2125.73,1058.62 2133.53,1058.62 2141.33,1058.63 2149.14,1058.63 2156.94,1058.63 2164.75,1058.63 
  2172.55,1058.64 2180.35,1058.64 2188.14,1058.64 2195.91,1058.64 2203.69,1058.64 2211.47,1058.64 2219.26,1058.63 2227.05,1058.63 2234.85,1058.63 2242.65,1058.63 
  2250.46,1058.63 2258.26,1058.63 2266.07,1058.63 2273.87,1058.63 2281.68,1058.62 2289.48,1058.62 2297.27,1058.62 2305.06,1058.62 2312.83,1058.62 2320.55,1058.62 
  2328.32,1058.62 2336.09,1058.62 2343.87,1058.62 2351.66,1058.62 2359.45,1058.62 2367.24,1058.62 2375.03,1058.62 2382.81,1058.62 2390.55,1058.62 2398.32,1058.62 
  2406.09,1058.62 2413.88,1058.62 2421.67,1058.62 2429.46,1058.62 2437.25,1058.62 2445.02,1058.62 2452.81,1058.62 2460.6,1058.62 2468.4,1058.62 2476.2,1058.63 
  2484,1058.63 2491.8,1058.63 2499.61,1058.63 2507.41,1058.63 2515.22,1058.63 2523.03,1058.63 2530.83,1058.63 2538.61,1058.63 2546.38,1058.63 2554.16,1058.63 
  2561.95,1058.63 2569.74,1058.63 2577.54,1058.63 2585.34,1058.63 2593.14,1058.63 2600.95,1058.63 2608.76,1058.63 2616.56,1058.63 2624.37,1058.63 2632.18,1058.63 
  2639.98,1058.63 2647.77,1058.63 2655.55,1058.63 2663.31,1058.63 2671.05,1058.63 2678.82,1058.63 2686.6,1058.63 2694.39,1058.63 2702.18,1058.62 2709.97,1058.62 
  2717.77,1058.62 2725.55,1058.62 2733.32,1058.62 2741.07,1058.62 2748.84,1058.62 2756.62,1058.62 2764.41,1058.62 2772.2,1058.62 2779.99,1058.62 2787.77,1058.62 
  2795.56,1058.62 2803.35,1058.62 2811.14,1058.62 2818.94,1058.62 2826.74,1058.63 2834.54,1058.63 2842.35,1058.63 2850.16,1058.63 2857.96,1058.63 2865.77,1058.63 
  2873.58,1058.63 2881.37,1058.63 2889.15,1058.63 2896.93,1058.64 2904.71,1058.64 2912.5,1058.63 2920.3,1058.63 2928.1,1058.63 2935.9,1058.63 2943.71,1058.63 
  2951.51,1058.63 2959.32,1058.63 2967.13,1058.63 2974.94,1058.63 2982.74,1058.63 2990.54,1058.63 2998.33,1058.63 3006.11,1058.63 3013.84,1058.63 3021.6,1058.63 
  3029.37,1058.63 3037.16,1058.63 3044.95,1058.62 3052.74,1058.62 3060.54,1058.62 3068.33,1058.62 3069.03,1058.62 
  "/>
<polyline clip-path="url(#clip552)" style="stroke:#e26f46; stroke-linecap:round; stroke-linejoin:round; stroke-width:4; stroke-opacity:1; fill:none" points="
  278.005,1374.43 278.675,1374.39 281.012,1370.75 284.138,1348.35 288.186,1290.77 292.665,1226.96 298.298,1188.26 303.516,1157.71 309.371,1087.84 315.273,1016.29 
  321.92,962.845 327.911,905.655 335.006,826.816 341.874,769.054 348.676,716.066 355.816,658.532 363.026,614.869 369.984,581.854 377.148,552.552 384.291,534.376 
  391.364,525.49 398.513,522.518 405.726,526.985 413.023,537.928 420.429,553.327 427.85,572.535 435.306,594.466 442.783,617.605 450.256,641.045 457.736,663.957 
  465.215,685.424 472.693,704.849 480.163,721.685 487.619,735.44 495.059,745.81 502.485,752.584 509.902,755.637 517.315,754.981 524.732,750.738 532.159,743.13 
  539.602,732.509 547.068,719.329 554.561,704.127 562.084,687.514 569.639,670.139 577.223,652.654 584.864,635.609 592.591,619.498 600.399,604.819 608.291,591.945 
  616.267,581.152 624.323,572.6 632.451,566.346 640.634,562.347 648.849,560.472 657.062,560.518 665.272,562.236 673.444,565.339 681.566,569.532 689.626,574.514 
  697.622,579.989 705.553,585.673 713.427,591.301 721.248,596.624 729.025,601.426 736.762,605.52 744.468,608.763 752.147,611.061 759.804,612.365 767.445,612.677 
  775.074,612.046 782.694,610.557 790.307,608.327 797.912,605.497 805.495,602.22 813.105,598.625 820.729,594.857 828.376,591.039 836.045,587.289 843.736,583.703 
  851.447,580.363 859.178,577.337 866.924,574.679 874.683,572.43 882.449,570.621 890.217,569.269 897.985,568.379 905.753,567.941 913.515,567.932 921.265,568.315 
  928.989,569.034 936.715,570.032 944.449,571.237 952.186,572.573 959.923,573.963 967.659,575.332 975.392,576.614 983.118,577.755 990.833,578.712 998.523,579.456 
  1006.21,579.977 1013.91,580.273 1021.61,580.35 1029.33,580.222 1037.05,579.909 1044.76,579.434 1052.47,578.825 1060.19,578.107 1067.92,577.305 1075.66,576.446 
  1083.41,575.557 1091.17,574.665 1098.93,573.795 1106.7,572.974 1114.48,572.224 1122.26,571.565 1130.05,571.015 1137.83,570.585 1145.61,570.28 1153.36,570.1 
  1161.12,570.039 1168.9,570.086 1176.67,570.226 1184.45,570.44 1192.24,570.71 1200.03,571.016 1207.81,571.339 1215.6,571.661 1223.39,571.97 1231.17,572.253 
  1238.95,572.502 1246.73,572.709 1254.5,572.872 1262.26,572.986 1270.01,573.051 1277.71,573.068 1285.45,573.041 1293.19,572.969 1300.95,572.858 1308.71,572.712 
  1316.48,572.536 1324.25,572.338 1332.02,572.126 1339.78,571.909 1347.51,571.694 1355.26,571.491 1363.02,571.304 1370.79,571.14 1378.57,571.002 1386.35,570.892 
  1394.12,570.811 1401.89,570.759 1409.67,570.733 1417.45,570.732 1425.23,570.75 1433.02,570.786 1440.81,570.835 1448.61,570.894 1456.4,570.96 1464.2,571.028 
  1471.99,571.097 1479.79,571.164 1487.58,571.227 1495.35,571.282 1503.11,571.328 1510.88,571.367 1518.65,571.393 1526.43,571.408 1534.22,571.411 1542.01,571.402 
  1549.8,571.382 1557.59,571.353 1565.39,571.316 1573.19,571.272 1580.98,571.225 1588.78,571.176 1596.57,571.127 1604.35,571.08 1612.13,571.036 1619.88,570.997 
  1627.61,570.963 1635.37,570.936 1643.14,570.914 1650.92,570.899 1658.71,570.89 1666.49,570.886 1674.28,570.887 1682.06,570.891 1689.83,570.899 1697.56,570.909 
  1705.32,570.924 1713.09,570.94 1720.88,570.957 1728.66,570.974 1736.45,570.99 1744.23,571.005 1752,571.018 1759.78,571.028 1767.57,571.036 1775.36,571.041 
  1783.15,571.042 1790.95,571.041 1798.75,571.036 1806.55,571.03 1814.35,571.021 1822.15,571.01 1829.95,570.999 1837.75,570.987 1845.52,570.975 1853.29,570.963 
  1861.07,570.953 1868.85,570.943 1876.64,570.935 1884.44,570.929 1892.24,570.923 1900.04,570.919 1907.84,570.917 1915.64,570.915 1923.44,570.915 1931.25,570.915 
  1939.05,570.917 1946.84,570.919 1954.63,570.921 1962.41,570.924 1970.15,570.927 1977.9,570.931 1985.67,570.937 1993.44,570.942 2001.23,570.947 2009.02,570.951 
  2016.81,570.955 2024.6,570.958 2032.38,570.959 2040.14,570.959 2047.89,570.959 2055.66,570.958 2063.44,570.957 2071.22,570.955 2079.01,570.953 2086.8,570.95 
  2094.57,570.947 2102.36,570.944 2110.14,570.941 2117.94,570.938 2125.73,570.936 2133.53,570.933 2141.33,570.93 2149.14,570.928 2156.94,570.926 2164.75,570.924 
  2172.55,570.922 2180.35,570.92 2188.14,570.919 2195.91,570.917 2203.69,570.918 2211.47,570.919 2219.26,570.92 2227.05,570.922 2234.85,570.924 2242.65,570.927 
  2250.46,570.929 2258.26,570.931 2266.07,570.932 2273.87,570.933 2281.68,570.933 2289.48,570.933 2297.27,570.933 2305.06,570.932 2312.83,570.931 2320.55,570.929 
  2328.32,570.93 2336.09,570.93 2343.87,570.931 2351.66,570.933 2359.45,570.934 2367.24,570.935 2375.03,570.936 2382.81,570.935 2390.55,570.934 2398.32,570.934 
  2406.09,570.934 2413.88,570.934 2421.67,570.934 2429.46,570.933 2437.25,570.932 2445.02,570.932 2452.81,570.932 2460.6,570.931 2468.4,570.931 2476.2,570.931 
  2484,570.93 2491.8,570.93 2499.61,570.929 2507.41,570.927 2515.22,570.926 2523.03,570.925 2530.83,570.923 2538.61,570.922 2546.38,570.92 2554.16,570.92 
  2561.95,570.92 2569.74,570.921 2577.54,570.922 2585.34,570.924 2593.14,570.925 2600.95,570.926 2608.76,570.927 2616.56,570.928 2624.37,570.928 2632.18,570.928 
  2639.98,570.928 2647.77,570.927 2655.55,570.926 2663.31,570.925 2671.05,570.924 2678.82,570.925 2686.6,570.926 2694.39,570.928 2702.18,570.93 2709.97,570.932 
  2717.77,570.933 2725.55,570.934 2733.32,570.934 2741.07,570.933 2748.84,570.934 2756.62,570.934 2764.41,570.934 2772.2,570.934 2779.99,570.933 2787.77,570.933 
  2795.56,570.932 2803.35,570.932 2811.14,570.932 2818.94,570.931 2826.74,570.931 2834.54,570.93 2842.35,570.929 2850.16,570.928 2857.96,570.926 2865.77,570.925 
  2873.58,570.923 2881.37,570.921 2889.15,570.92 2896.93,570.919 2904.71,570.919 2912.5,570.919 2920.3,570.92 2928.1,570.922 2935.9,570.923 2943.71,570.924 
  2951.51,570.926 2959.32,570.926 2967.13,570.927 2974.94,570.927 2982.74,570.927 2990.54,570.927 2998.33,570.926 3006.11,570.925 3013.84,570.924 3021.6,570.925 
  3029.37,570.926 3037.16,570.927 3044.95,570.929 3052.74,570.931 3060.54,570.933 3068.33,570.934 3069.03,570.931 
  "/>
<polyline clip-path="url(#clip552)" style="stroke:#3da44d; stroke-linecap:round; stroke-linejoin:round; stroke-width:4; stroke-opacity:1; fill:none" points="
  278.005,1374.43 278.675,1374.43 281.012,1373.97 284.138,1371.13 288.186,1363.61 292.665,1354.9 298.298,1349.98 303.516,1348.46 309.371,1343.72 315.273,1337.96 
  321.92,1335.56 327.911,1334.9 335.006,1333.04 341.874,1332.01 348.676,1332.12 355.816,1331.94 363.026,1331.14 369.984,1330.05 377.148,1328.51 384.291,1326.39 
  391.364,1323.85 398.513,1321.22 405.726,1318.77 413.023,1316.62 420.429,1315.06 427.85,1314.32 435.306,1314.35 442.783,1315.07 450.256,1316.33 457.736,1317.88 
  465.215,1319.45 472.693,1320.82 480.163,1321.81 487.619,1322.32 495.059,1322.34 502.485,1321.93 509.902,1321.2 517.315,1320.3 524.732,1319.36 532.159,1318.51 
  539.602,1317.81 547.068,1317.31 554.561,1316.97 562.084,1316.73 569.639,1316.51 577.223,1316.2 584.864,1315.72 592.591,1315.02 600.399,1314.08 608.291,1312.95 
  616.267,1311.69 624.323,1310.42 632.451,1309.28 640.634,1308.36 648.849,1307.76 657.062,1307.51 665.272,1307.58 673.444,1307.89 681.566,1308.37 689.626,1308.89 
  697.622,1309.38 705.553,1309.77 713.427,1310.03 721.248,1310.16 729.025,1310.18 736.762,1310.11 744.468,1310.02 752.147,1309.92 759.804,1309.85 767.445,1309.81 
  775.074,1309.81 782.694,1309.82 790.307,1309.82 797.912,1309.79 805.495,1309.71 813.105,1309.55 820.729,1309.31 828.376,1309 836.045,1308.65 843.736,1308.27 
  851.447,1307.9 859.178,1307.58 866.924,1307.32 874.683,1307.15 882.449,1307.06 890.217,1307.04 897.985,1307.09 905.753,1307.17 913.515,1307.27 921.265,1307.37 
  928.989,1307.45 936.715,1307.49 944.449,1307.51 952.186,1307.51 959.923,1307.49 967.659,1307.47 975.392,1307.46 983.118,1307.45 990.833,1307.47 998.523,1307.5 
  1006.21,1307.53 1013.91,1307.57 1021.61,1307.59 1029.33,1307.6 1037.05,1307.59 1044.76,1307.55 1052.47,1307.49 1060.19,1307.41 1067.92,1307.32 1075.66,1307.23 
  1083.41,1307.15 1091.17,1307.09 1098.93,1307.04 1106.7,1307.01 1114.48,1307 1122.26,1307 1130.05,1307 1137.83,1307.01 1145.61,1307.02 1153.36,1307.02 
  1161.12,1307.01 1168.9,1307 1176.67,1306.98 1184.45,1306.96 1192.24,1306.94 1200.03,1306.94 1207.81,1306.93 1215.6,1306.94 1223.39,1306.95 1231.17,1306.97 
  1238.95,1306.99 1246.73,1307 1254.5,1307.01 1262.26,1307.02 1270.01,1307.02 1277.71,1307.02 1285.45,1307.01 1293.19,1306.99 1300.95,1306.98 1308.71,1306.96 
  1316.48,1306.95 1324.25,1306.94 1332.02,1306.93 1339.78,1306.93 1347.51,1306.93 1355.26,1306.93 1363.02,1306.92 1370.79,1306.92 1378.57,1306.91 1386.35,1306.9 
  1394.12,1306.89 1401.89,1306.88 1409.67,1306.87 1417.45,1306.87 1425.23,1306.86 1433.02,1306.86 1440.81,1306.86 1448.61,1306.86 1456.4,1306.87 1464.2,1306.87 
  1471.99,1306.88 1479.79,1306.88 1487.58,1306.89 1495.35,1306.89 1503.11,1306.89 1510.88,1306.89 1518.65,1306.89 1526.43,1306.89 1534.22,1306.89 1542.01,1306.88 
  1549.8,1306.88 1557.59,1306.88 1565.39,1306.88 1573.19,1306.88 1580.98,1306.88 1588.78,1306.88 1596.57,1306.88 1604.35,1306.87 1612.13,1306.87 1619.88,1306.87 
  1627.61,1306.86 1635.37,1306.86 1643.14,1306.86 1650.92,1306.86 1658.71,1306.85 1666.49,1306.85 1674.28,1306.85 1682.06,1306.85 1689.83,1306.86 1697.56,1306.86 
  1705.32,1306.86 1713.09,1306.86 1720.88,1306.86 1728.66,1306.86 1736.45,1306.86 1744.23,1306.86 1752,1306.86 1759.78,1306.86 1767.57,1306.86 1775.36,1306.86 
  1783.15,1306.86 1790.95,1306.86 1798.75,1306.86 1806.55,1306.86 1814.35,1306.86 1822.15,1306.86 1829.95,1306.86 1837.75,1306.86 1845.52,1306.86 1853.29,1306.86 
  1861.07,1306.86 1868.85,1306.86 1876.64,1306.86 1884.44,1306.86 1892.24,1306.85 1900.04,1306.85 1907.84,1306.85 1915.64,1306.85 1923.44,1306.85 1931.25,1306.85 
  1939.05,1306.85 1946.84,1306.85 1954.63,1306.85 1962.41,1306.85 1970.15,1306.86 1977.9,1306.86 1985.67,1306.86 1993.44,1306.86 2001.23,1306.86 2009.02,1306.86 
  2016.81,1306.86 2024.6,1306.86 2032.38,1306.85 2040.14,1306.85 2047.89,1306.85 2055.66,1306.86 2063.44,1306.86 2071.22,1306.86 2079.01,1306.86 2086.8,1306.86 
  2094.57,1306.86 2102.36,1306.86 2110.14,1306.86 2117.94,1306.86 2125.73,1306.85 2133.53,1306.85 2141.33,1306.85 2149.14,1306.85 2156.94,1306.85 2164.75,1306.85 
  2172.55,1306.85 2180.35,1306.85 2188.14,1306.85 2195.91,1306.85 2203.69,1306.85 2211.47,1306.85 2219.26,1306.85 2227.05,1306.85 2234.85,1306.85 2242.65,1306.85 
  2250.46,1306.85 2258.26,1306.85 2266.07,1306.85 2273.87,1306.85 2281.68,1306.85 2289.48,1306.85 2297.27,1306.85 2305.06,1306.85 2312.83,1306.85 2320.55,1306.85 
  2328.32,1306.86 2336.09,1306.86 2343.87,1306.86 2351.66,1306.86 2359.45,1306.86 2367.24,1306.85 2375.03,1306.85 2382.81,1306.85 2390.55,1306.85 2398.32,1306.85 
  2406.09,1306.85 2413.88,1306.85 2421.67,1306.86 2429.46,1306.86 2437.25,1306.86 2445.02,1306.86 2452.81,1306.86 2460.6,1306.85 2468.4,1306.85 2476.2,1306.85 
  2484,1306.85 2491.8,1306.85 2499.61,1306.85 2507.41,1306.85 2515.22,1306.85 2523.03,1306.85 2530.83,1306.85 2538.61,1306.85 2546.38,1306.85 2554.16,1306.85 
  2561.95,1306.85 2569.74,1306.85 2577.54,1306.85 2585.34,1306.85 2593.14,1306.85 2600.95,1306.85 2608.76,1306.85 2616.56,1306.85 2624.37,1306.85 2632.18,1306.85 
  2639.98,1306.85 2647.77,1306.85 2655.55,1306.85 2663.31,1306.85 2671.05,1306.85 2678.82,1306.86 2686.6,1306.86 2694.39,1306.86 2702.18,1306.86 2709.97,1306.85 
  2717.77,1306.85 2725.55,1306.85 2733.32,1306.85 2741.07,1306.85 2748.84,1306.85 2756.62,1306.85 2764.41,1306.85 2772.2,1306.86 2779.99,1306.86 2787.77,1306.86 
  2795.56,1306.86 2803.35,1306.85 2811.14,1306.85 2818.94,1306.85 2826.74,1306.85 2834.54,1306.85 2842.35,1306.85 2850.16,1306.85 2857.96,1306.85 2865.77,1306.85 
  2873.58,1306.85 2881.37,1306.85 2889.15,1306.85 2896.93,1306.85 2904.71,1306.85 2912.5,1306.85 2920.3,1306.85 2928.1,1306.85 2935.9,1306.85 2943.71,1306.85 
  2951.51,1306.85 2959.32,1306.85 2967.13,1306.85 2974.94,1306.85 2982.74,1306.85 2990.54,1306.85 2998.33,1306.85 3006.11,1306.85 3013.84,1306.85 3021.6,1306.86 
  3029.37,1306.86 3037.16,1306.86 3044.95,1306.86 3052.74,1306.86 3060.54,1306.85 3068.33,1306.85 3069.03,1306.85 
  "/>
<polyline clip-path="url(#clip552)" style="stroke:#c271d2; stroke-linecap:round; stroke-linejoin:round; stroke-width:4; stroke-opacity:1; fill:none" points="
  278.005,1374.43 278.675,1370.15 281.012,1301.7 284.138,1163.17 288.186,1090.01 292.665,1199.09 298.298,1323.78 303.516,1271.71 309.371,1225.45 315.273,1284.16 
  321.92,1305.21 327.911,1280.49 335.006,1298.28 341.874,1313.47 348.676,1307.55 355.816,1316.22 363.026,1323.09 369.984,1323.46 377.148,1328.42 384.291,1331.21 
  391.364,1332.41 398.513,1334.75 405.726,1335.59 413.023,1336.09 420.429,1336.7 427.85,1336.44 435.306,1336.21 442.783,1335.86 450.256,1335.21 457.736,1334.69 
  465.215,1334.17 472.693,1333.68 480.163,1333.39 487.619,1333.24 495.059,1333.28 502.485,1333.55 509.902,1334.01 517.315,1334.68 524.732,1335.56 532.159,1336.62 
  539.602,1337.84 547.068,1339.19 554.561,1340.65 562.084,1342.17 569.639,1343.74 577.223,1345.3 584.864,1346.83 592.591,1348.3 600.399,1349.69 608.291,1350.96 
  616.267,1352.1 624.323,1353.08 632.451,1353.9 640.634,1354.55 648.849,1355.04 657.062,1355.38 665.272,1355.58 673.444,1355.66 681.566,1355.64 689.626,1355.56 
  697.622,1355.43 705.553,1355.28 713.427,1355.12 721.248,1354.98 729.025,1354.86 736.762,1354.78 744.468,1354.74 752.147,1354.76 759.804,1354.83 767.445,1354.95 
  775.074,1355.13 782.694,1355.36 790.307,1355.63 797.912,1355.93 805.495,1356.26 813.105,1356.61 820.729,1356.97 828.376,1357.33 836.045,1357.68 843.736,1358.02 
  851.447,1358.34 859.178,1358.64 866.924,1358.9 874.683,1359.14 882.449,1359.33 890.217,1359.49 897.985,1359.61 905.753,1359.7 913.515,1359.76 921.265,1359.79 
  928.989,1359.8 936.715,1359.79 944.449,1359.77 952.186,1359.73 959.923,1359.69 967.659,1359.65 975.392,1359.61 983.118,1359.58 990.833,1359.56 998.523,1359.55 
  1006.21,1359.56 1013.91,1359.57 1021.61,1359.6 1029.33,1359.64 1037.05,1359.69 1044.76,1359.75 1052.47,1359.82 1060.19,1359.89 1067.92,1359.97 1075.66,1360.05 
  1083.41,1360.13 1091.17,1360.22 1098.93,1360.29 1106.7,1360.36 1114.48,1360.43 1122.26,1360.49 1130.05,1360.54 1137.83,1360.58 1145.61,1360.62 1153.36,1360.65 
  1161.12,1360.67 1168.9,1360.68 1176.67,1360.68 1184.45,1360.68 1192.24,1360.68 1200.03,1360.67 1207.81,1360.66 1215.6,1360.65 1223.39,1360.64 1231.17,1360.64 
  1238.95,1360.63 1246.73,1360.62 1254.5,1360.62 1262.26,1360.62 1270.01,1360.63 1277.71,1360.64 1285.45,1360.64 1293.19,1360.65 1300.95,1360.67 1308.71,1360.68 
  1316.48,1360.7 1324.25,1360.72 1332.02,1360.74 1339.78,1360.75 1347.51,1360.77 1355.26,1360.79 1363.02,1360.81 1370.79,1360.82 1378.57,1360.83 1386.35,1360.84 
  1394.12,1360.85 1401.89,1360.86 1409.67,1360.87 1417.45,1360.87 1425.23,1360.87 1433.02,1360.87 1440.81,1360.87 1448.61,1360.87 1456.4,1360.87 1464.2,1360.87 
  1471.99,1360.87 1479.79,1360.86 1487.58,1360.86 1495.35,1360.86 1503.11,1360.86 1510.88,1360.86 1518.65,1360.86 1526.43,1360.86 1534.22,1360.86 1542.01,1360.86 
  1549.8,1360.86 1557.59,1360.87 1565.39,1360.87 1573.19,1360.88 1580.98,1360.88 1588.78,1360.88 1596.57,1360.89 1604.35,1360.89 1612.13,1360.9 1619.88,1360.9 
  1627.61,1360.91 1635.37,1360.91 1643.14,1360.91 1650.92,1360.91 1658.71,1360.91 1666.49,1360.91 1674.28,1360.91 1682.06,1360.91 1689.83,1360.92 1697.56,1360.92 
  1705.32,1360.91 1713.09,1360.91 1720.88,1360.91 1728.66,1360.91 1736.45,1360.91 1744.23,1360.91 1752,1360.91 1759.78,1360.91 1767.57,1360.91 1775.36,1360.91 
  1783.15,1360.91 1790.95,1360.91 1798.75,1360.91 1806.55,1360.91 1814.35,1360.91 1822.15,1360.91 1829.95,1360.91 1837.75,1360.92 1845.52,1360.92 1853.29,1360.92 
  1861.07,1360.92 1868.85,1360.92 1876.64,1360.92 1884.44,1360.92 1892.24,1360.92 1900.04,1360.92 1907.84,1360.92 1915.64,1360.92 1923.44,1360.92 1931.25,1360.92 
  1939.05,1360.92 1946.84,1360.92 1954.63,1360.92 1962.41,1360.92 1970.15,1360.93 1977.9,1360.92 1985.67,1360.92 1993.44,1360.92 2001.23,1360.92 2009.02,1360.92 
  2016.81,1360.92 2024.6,1360.92 2032.38,1360.92 2040.14,1360.92 2047.89,1360.92 2055.66,1360.92 2063.44,1360.92 2071.22,1360.92 2079.01,1360.92 2086.8,1360.92 
  2094.57,1360.92 2102.36,1360.92 2110.14,1360.92 2117.94,1360.92 2125.73,1360.92 2133.53,1360.92 2141.33,1360.92 2149.14,1360.92 2156.94,1360.92 2164.75,1360.92 
  2172.55,1360.92 2180.35,1360.92 2188.14,1360.93 2195.91,1360.93 2203.69,1360.93 2211.47,1360.93 2219.26,1360.93 2227.05,1360.92 2234.85,1360.92 2242.65,1360.92 
  2250.46,1360.92 2258.26,1360.92 2266.07,1360.92 2273.87,1360.92 2281.68,1360.92 2289.48,1360.92 2297.27,1360.92 2305.06,1360.92 2312.83,1360.93 2320.55,1360.93 
  2328.32,1360.93 2336.09,1360.93 2343.87,1360.93 2351.66,1360.92 2359.45,1360.93 2367.24,1360.92 2375.03,1360.92 2382.81,1360.93 2390.55,1360.93 2398.32,1360.93 
  2406.09,1360.93 2413.88,1360.93 2421.67,1360.92 2429.46,1360.93 2437.25,1360.93 2445.02,1360.93 2452.81,1360.93 2460.6,1360.93 2468.4,1360.92 2476.2,1360.92 
  2484,1360.92 2491.8,1360.92 2499.61,1360.92 2507.41,1360.92 2515.22,1360.92 2523.03,1360.92 2530.83,1360.93 2538.61,1360.93 2546.38,1360.93 2554.16,1360.93 
  2561.95,1360.93 2569.74,1360.93 2577.54,1360.93 2585.34,1360.93 2593.14,1360.92 2600.95,1360.92 2608.76,1360.92 2616.56,1360.92 2624.37,1360.92 2632.18,1360.92 
  2639.98,1360.92 2647.77,1360.93 2655.55,1360.93 2663.31,1360.93 2671.05,1360.93 2678.82,1360.93 2686.6,1360.93 2694.39,1360.93 2702.18,1360.93 2709.97,1360.93 
  2717.77,1360.92 2725.55,1360.93 2733.32,1360.93 2741.07,1360.93 2748.84,1360.93 2756.62,1360.93 2764.41,1360.93 2772.2,1360.92 2779.99,1360.93 2787.77,1360.93 
  2795.56,1360.93 2803.35,1360.93 2811.14,1360.93 2818.94,1360.92 2826.74,1360.92 2834.54,1360.92 2842.35,1360.92 2850.16,1360.92 2857.96,1360.92 2865.77,1360.92 
  2873.58,1360.92 2881.37,1360.93 2889.15,1360.93 2896.93,1360.93 2904.71,1360.93 2912.5,1360.93 2920.3,1360.93 2928.1,1360.93 2935.9,1360.93 2943.71,1360.92 
  2951.51,1360.92 2959.32,1360.92 2967.13,1360.92 2974.94,1360.92 2982.74,1360.92 2990.54,1360.92 2998.33,1360.93 3006.11,1360.93 3013.84,1360.93 3021.6,1360.93 
  3029.37,1360.93 3037.16,1360.93 3044.95,1360.93 3052.74,1360.93 3060.54,1360.92 3068.33,1360.93 3069.03,1360.93 
  "/>
<polyline clip-path="url(#clip552)" style="stroke:#ac8d18; stroke-linecap:round; stroke-linejoin:round; stroke-width:4; stroke-opacity:1; fill:none" points="
  278.005,1374.43 278.675,1373.9 281.012,1365.29 284.138,1347.32 288.186,1335.77 292.665,1347.01 298.298,1365.23 303.516,1363.47 309.371,1357.15 315.273,1360.87 
  321.92,1364.79 327.911,1364.03 335.006,1365.08 341.874,1366.54 348.676,1366.87 355.816,1367.88 363.026,1368.61 369.984,1368.93 377.148,1369.51 384.291,1369.86 
  391.364,1370.01 398.513,1370.2 405.726,1370.22 413.023,1370.16 420.429,1370.04 427.85,1369.83 435.306,1369.59 442.783,1369.31 450.256,1369.01 457.736,1368.74 
  465.215,1368.49 472.693,1368.28 480.163,1368.13 487.619,1368.03 495.059,1368 502.485,1368.03 509.902,1368.12 517.315,1368.25 524.732,1368.42 532.159,1368.61 
  539.602,1368.83 547.068,1369.06 554.561,1369.29 562.084,1369.52 569.639,1369.75 577.223,1369.97 584.864,1370.18 592.591,1370.38 600.399,1370.56 608.291,1370.73 
  616.267,1370.87 624.323,1370.98 632.451,1371.07 640.634,1371.13 648.849,1371.17 657.062,1371.18 665.272,1371.17 673.444,1371.14 681.566,1371.1 689.626,1371.06 
  697.622,1371.02 705.553,1370.98 713.427,1370.95 721.248,1370.92 729.025,1370.9 736.762,1370.89 744.468,1370.89 752.147,1370.89 759.804,1370.9 767.445,1370.91 
  775.074,1370.93 782.694,1370.95 790.307,1370.98 797.912,1371.01 805.495,1371.04 813.105,1371.08 820.729,1371.12 828.376,1371.17 836.045,1371.22 843.736,1371.26 
  851.447,1371.31 859.178,1371.35 866.924,1371.39 874.683,1371.42 882.449,1371.45 890.217,1371.47 897.985,1371.49 905.753,1371.5 913.515,1371.5 921.265,1371.51 
  928.989,1371.51 936.715,1371.5 944.449,1371.5 952.186,1371.49 959.923,1371.48 967.659,1371.48 975.392,1371.47 983.118,1371.46 990.833,1371.45 998.523,1371.44 
  1006.21,1371.43 1013.91,1371.43 1021.61,1371.43 1029.33,1371.43 1037.05,1371.43 1044.76,1371.43 1052.47,1371.44 1060.19,1371.45 1067.92,1371.46 1075.66,1371.48 
  1083.41,1371.49 1091.17,1371.5 1098.93,1371.52 1106.7,1371.53 1114.48,1371.54 1122.26,1371.55 1130.05,1371.56 1137.83,1371.56 1145.61,1371.57 1153.36,1371.57 
  1161.12,1371.58 1168.9,1371.58 1176.67,1371.58 1184.45,1371.58 1192.24,1371.57 1200.03,1371.57 1207.81,1371.57 1215.6,1371.56 1223.39,1371.56 1231.17,1371.56 
  1238.95,1371.55 1246.73,1371.55 1254.5,1371.55 1262.26,1371.55 1270.01,1371.55 1277.71,1371.55 1285.45,1371.55 1293.19,1371.55 1300.95,1371.55 1308.71,1371.56 
  1316.48,1371.56 1324.25,1371.56 1332.02,1371.57 1339.78,1371.57 1347.51,1371.57 1355.26,1371.58 1363.02,1371.58 1370.79,1371.58 1378.57,1371.58 1386.35,1371.58 
  1394.12,1371.58 1401.89,1371.59 1409.67,1371.59 1417.45,1371.59 1425.23,1371.59 1433.02,1371.59 1440.81,1371.59 1448.61,1371.58 1456.4,1371.58 1464.2,1371.58 
  1471.99,1371.58 1479.79,1371.58 1487.58,1371.58 1495.35,1371.58 1503.11,1371.58 1510.88,1371.58 1518.65,1371.58 1526.43,1371.58 1534.22,1371.58 1542.01,1371.58 
  1549.8,1371.58 1557.59,1371.58 1565.39,1371.58 1573.19,1371.58 1580.98,1371.58 1588.78,1371.58 1596.57,1371.58 1604.35,1371.59 1612.13,1371.59 1619.88,1371.59 
  1627.61,1371.59 1635.37,1371.59 1643.14,1371.59 1650.92,1371.59 1658.71,1371.59 1666.49,1371.59 1674.28,1371.59 1682.06,1371.59 1689.83,1371.59 1697.56,1371.59 
  1705.32,1371.59 1713.09,1371.59 1720.88,1371.59 1728.66,1371.59 1736.45,1371.59 1744.23,1371.59 1752,1371.59 1759.78,1371.59 1767.57,1371.59 1775.36,1371.59 
  1783.15,1371.59 1790.95,1371.59 1798.75,1371.59 1806.55,1371.59 1814.35,1371.59 1822.15,1371.59 1829.95,1371.59 1837.75,1371.59 1845.52,1371.59 1853.29,1371.59 
  1861.07,1371.59 1868.85,1371.59 1876.64,1371.59 1884.44,1371.59 1892.24,1371.59 1900.04,1371.59 1907.84,1371.59 1915.64,1371.59 1923.44,1371.59 1931.25,1371.59 
  1939.05,1371.59 1946.84,1371.59 1954.63,1371.59 1962.41,1371.59 1970.15,1371.59 1977.9,1371.59 1985.67,1371.59 1993.44,1371.59 2001.23,1371.59 2009.02,1371.59 
  2016.81,1371.59 2024.6,1371.59 2032.38,1371.59 2040.14,1371.59 2047.89,1371.59 2055.66,1371.59 2063.44,1371.59 2071.22,1371.59 2079.01,1371.59 2086.8,1371.59 
  2094.57,1371.59 2102.36,1371.59 2110.14,1371.59 2117.94,1371.59 2125.73,1371.59 2133.53,1371.59 2141.33,1371.59 2149.14,1371.59 2156.94,1371.59 2164.75,1371.59 
  2172.55,1371.59 2180.35,1371.59 2188.14,1371.59 2195.91,1371.59 2203.69,1371.59 2211.47,1371.59 2219.26,1371.59 2227.05,1371.59 2234.85,1371.59 2242.65,1371.59 
  2250.46,1371.59 2258.26,1371.59 2266.07,1371.59 2273.87,1371.59 2281.68,1371.59 2289.48,1371.59 2297.27,1371.59 2305.06,1371.59 2312.83,1371.59 2320.55,1371.59 
  2328.32,1371.59 2336.09,1371.59 2343.87,1371.59 2351.66,1371.59 2359.45,1371.59 2367.24,1371.59 2375.03,1371.59 2382.81,1371.59 2390.55,1371.59 2398.32,1371.59 
  2406.09,1371.59 2413.88,1371.59 2421.67,1371.59 2429.46,1371.59 2437.25,1371.59 2445.02,1371.59 2452.81,1371.59 2460.6,1371.59 2468.4,1371.59 2476.2,1371.59 
  2484,1371.59 2491.8,1371.59 2499.61,1371.59 2507.41,1371.59 2515.22,1371.59 2523.03,1371.59 2530.83,1371.59 2538.61,1371.59 2546.38,1371.59 2554.16,1371.59 
  2561.95,1371.59 2569.74,1371.59 2577.54,1371.59 2585.34,1371.59 2593.14,1371.59 2600.95,1371.59 2608.76,1371.59 2616.56,1371.59 2624.37,1371.59 2632.18,1371.59 
  2639.98,1371.59 2647.77,1371.59 2655.55,1371.59 2663.31,1371.59 2671.05,1371.59 2678.82,1371.59 2686.6,1371.59 2694.39,1371.59 2702.18,1371.59 2709.97,1371.59 
  2717.77,1371.59 2725.55,1371.59 2733.32,1371.59 2741.07,1371.59 2748.84,1371.59 2756.62,1371.59 2764.41,1371.59 2772.2,1371.59 2779.99,1371.59 2787.77,1371.59 
  2795.56,1371.59 2803.35,1371.59 2811.14,1371.59 2818.94,1371.59 2826.74,1371.59 2834.54,1371.59 2842.35,1371.59 2850.16,1371.59 2857.96,1371.59 2865.77,1371.59 
  2873.58,1371.59 2881.37,1371.59 2889.15,1371.59 2896.93,1371.59 2904.71,1371.59 2912.5,1371.59 2920.3,1371.59 2928.1,1371.59 2935.9,1371.59 2943.71,1371.59 
  2951.51,1371.59 2959.32,1371.59 2967.13,1371.59 2974.94,1371.59 2982.74,1371.59 2990.54,1371.59 2998.33,1371.59 3006.11,1371.59 3013.84,1371.59 3021.6,1371.59 
  3029.37,1371.59 3037.16,1371.59 3044.95,1371.59 3052.74,1371.59 3060.54,1371.59 3068.33,1371.59 3069.03,1371.59 
  "/>
<polyline clip-path="url(#clip552)" style="stroke:#00a9ad; stroke-linecap:round; stroke-linejoin:round; stroke-width:4; stroke-opacity:1; fill:none" points="
  278.005,1374.43 278.675,1374.43 281.012,1374.43 284.138,1374.43 288.186,1374.43 292.665,1374.38 298.298,1374.22 303.516,1374.08 309.371,1374.01 315.273,1373.73 
  321.92,1373.13 327.911,1372.9 335.006,1372.69 341.874,1371.97 348.676,1371.5 355.816,1371.39 363.026,1370.96 369.984,1370.63 377.148,1370.66 384.291,1370.62 
  391.364,1370.6 398.513,1370.75 405.726,1370.94 413.023,1371.09 420.429,1371.28 427.85,1371.45 435.306,1371.59 442.783,1371.69 450.256,1371.76 457.736,1371.8 
  465.215,1371.82 472.693,1371.84 480.163,1371.85 487.619,1371.86 495.059,1371.87 502.485,1371.89 509.902,1371.89 517.315,1371.89 524.732,1371.87 532.159,1371.82 
  539.602,1371.76 547.068,1371.68 554.561,1371.58 562.084,1371.47 569.639,1371.37 577.223,1371.27 584.864,1371.19 592.591,1371.14 600.399,1371.11 608.291,1371.1 
  616.267,1371.12 624.323,1371.15 632.451,1371.18 640.634,1371.21 648.849,1371.24 657.062,1371.26 665.272,1371.26 673.444,1371.26 681.566,1371.25 689.626,1371.23 
  697.622,1371.22 705.553,1371.22 713.427,1371.22 721.248,1371.23 729.025,1371.24 736.762,1371.25 744.468,1371.26 752.147,1371.26 759.804,1371.27 767.445,1371.26 
  775.074,1371.26 782.694,1371.24 790.307,1371.23 797.912,1371.22 805.495,1371.21 813.105,1371.2 820.729,1371.19 828.376,1371.19 836.045,1371.19 843.736,1371.19 
  851.447,1371.2 859.178,1371.2 866.924,1371.2 874.683,1371.19 882.449,1371.19 890.217,1371.18 897.985,1371.16 905.753,1371.15 913.515,1371.14 921.265,1371.14 
  928.989,1371.13 936.715,1371.13 944.449,1371.13 952.186,1371.14 959.923,1371.14 967.659,1371.15 975.392,1371.16 983.118,1371.16 990.833,1371.17 998.523,1371.17 
  1006.21,1371.17 1013.91,1371.17 1021.61,1371.17 1029.33,1371.17 1037.05,1371.17 1044.76,1371.17 1052.47,1371.17 1060.19,1371.17 1067.92,1371.17 1075.66,1371.17 
  1083.41,1371.17 1091.17,1371.17 1098.93,1371.16 1106.7,1371.16 1114.48,1371.15 1122.26,1371.15 1130.05,1371.14 1137.83,1371.14 1145.61,1371.14 1153.36,1371.14 
  1161.12,1371.14 1168.9,1371.14 1176.67,1371.14 1184.45,1371.14 1192.24,1371.14 1200.03,1371.14 1207.81,1371.15 1215.6,1371.15 1223.39,1371.15 1231.17,1371.15 
  1238.95,1371.15 1246.73,1371.15 1254.5,1371.15 1262.26,1371.15 1270.01,1371.15 1277.71,1371.15 1285.45,1371.15 1293.19,1371.15 1300.95,1371.15 1308.71,1371.15 
  1316.48,1371.15 1324.25,1371.15 1332.02,1371.15 1339.78,1371.15 1347.51,1371.15 1355.26,1371.15 1363.02,1371.14 1370.79,1371.14 1378.57,1371.14 1386.35,1371.14 
  1394.12,1371.14 1401.89,1371.14 1409.67,1371.14 1417.45,1371.14 1425.23,1371.15 1433.02,1371.15 1440.81,1371.15 1448.61,1371.15 1456.4,1371.15 1464.2,1371.15 
  1471.99,1371.15 1479.79,1371.15 1487.58,1371.15 1495.35,1371.15 1503.11,1371.15 1510.88,1371.15 1518.65,1371.15 1526.43,1371.15 1534.22,1371.15 1542.01,1371.15 
  1549.8,1371.15 1557.59,1371.15 1565.39,1371.15 1573.19,1371.15 1580.98,1371.15 1588.78,1371.15 1596.57,1371.15 1604.35,1371.15 1612.13,1371.15 1619.88,1371.15 
  1627.61,1371.15 1635.37,1371.15 1643.14,1371.15 1650.92,1371.15 1658.71,1371.15 1666.49,1371.15 1674.28,1371.15 1682.06,1371.15 1689.83,1371.15 1697.56,1371.15 
  1705.32,1371.15 1713.09,1371.15 1720.88,1371.15 1728.66,1371.15 1736.45,1371.15 1744.23,1371.15 1752,1371.15 1759.78,1371.15 1767.57,1371.15 1775.36,1371.15 
  1783.15,1371.15 1790.95,1371.15 1798.75,1371.15 1806.55,1371.15 1814.35,1371.15 1822.15,1371.15 1829.95,1371.15 1837.75,1371.15 1845.52,1371.15 1853.29,1371.15 
  1861.07,1371.15 1868.85,1371.15 1876.64,1371.15 1884.44,1371.15 1892.24,1371.15 1900.04,1371.15 1907.84,1371.15 1915.64,1371.15 1923.44,1371.15 1931.25,1371.15 
  1939.05,1371.15 1946.84,1371.15 1954.63,1371.15 1962.41,1371.15 1970.15,1371.15 1977.9,1371.15 1985.67,1371.15 1993.44,1371.15 2001.23,1371.15 2009.02,1371.15 
  2016.81,1371.15 2024.6,1371.15 2032.38,1371.15 2040.14,1371.15 2047.89,1371.15 2055.66,1371.15 2063.44,1371.15 2071.22,1371.15 2079.01,1371.15 2086.8,1371.15 
  2094.57,1371.15 2102.36,1371.15 2110.14,1371.15 2117.94,1371.15 2125.73,1371.15 2133.53,1371.15 2141.33,1371.15 2149.14,1371.15 2156.94,1371.15 2164.75,1371.15 
  2172.55,1371.15 2180.35,1371.15 2188.14,1371.15 2195.91,1371.15 2203.69,1371.15 2211.47,1371.15 2219.26,1371.15 2227.05,1371.15 2234.85,1371.15 2242.65,1371.15 
  2250.46,1371.15 2258.26,1371.15 2266.07,1371.15 2273.87,1371.15 2281.68,1371.15 2289.48,1371.15 2297.27,1371.15 2305.06,1371.15 2312.83,1371.15 2320.55,1371.15 
  2328.32,1371.15 2336.09,1371.15 2343.87,1371.15 2351.66,1371.15 2359.45,1371.15 2367.24,1371.15 2375.03,1371.15 2382.81,1371.15 2390.55,1371.15 2398.32,1371.15 
  2406.09,1371.15 2413.88,1371.15 2421.67,1371.15 2429.46,1371.15 2437.25,1371.15 2445.02,1371.15 2452.81,1371.15 2460.6,1371.15 2468.4,1371.15 2476.2,1371.15 
  2484,1371.15 2491.8,1371.15 2499.61,1371.15 2507.41,1371.15 2515.22,1371.15 2523.03,1371.15 2530.83,1371.15 2538.61,1371.15 2546.38,1371.15 2554.16,1371.15 
  2561.95,1371.15 2569.74,1371.15 2577.54,1371.15 2585.34,1371.15 2593.14,1371.15 2600.95,1371.15 2608.76,1371.15 2616.56,1371.15 2624.37,1371.15 2632.18,1371.15 
  2639.98,1371.15 2647.77,1371.15 2655.55,1371.15 2663.31,1371.15 2671.05,1371.15 2678.82,1371.15 2686.6,1371.15 2694.39,1371.15 2702.18,1371.15 2709.97,1371.15 
  2717.77,1371.15 2725.55,1371.15 2733.32,1371.15 2741.07,1371.15 2748.84,1371.15 2756.62,1371.15 2764.41,1371.15 2772.2,1371.15 2779.99,1371.15 2787.77,1371.15 
  2795.56,1371.15 2803.35,1371.15 2811.14,1371.15 2818.94,1371.15 2826.74,1371.15 2834.54,1371.15 2842.35,1371.15 2850.16,1371.15 2857.96,1371.15 2865.77,1371.15 
  2873.58,1371.15 2881.37,1371.15 2889.15,1371.15 2896.93,1371.15 2904.71,1371.15 2912.5,1371.15 2920.3,1371.15 2928.1,1371.15 2935.9,1371.15 2943.71,1371.15 
  2951.51,1371.15 2959.32,1371.15 2967.13,1371.15 2974.94,1371.15 2982.74,1371.15 2990.54,1371.15 2998.33,1371.15 3006.11,1371.15 3013.84,1371.15 3021.6,1371.15 
  3029.37,1371.15 3037.16,1371.15 3044.95,1371.15 3052.74,1371.15 3060.54,1371.15 3068.33,1371.15 3069.03,1371.15 
  "/>
</svg>
