<?xml version="1.0" encoding="utf-8"?>
<svg xmlns="http://www.w3.org/2000/svg" xmlns:xlink="http://www.w3.org/1999/xlink" width="600" height="400" viewBox="0 0 2400 1600">
<defs>
  <clipPath id="clip590">
    <rect x="0" y="0" width="2400" height="1600"/>
  </clipPath>
</defs>
<path clip-path="url(#clip590)" d="
M0 1600 L2400 1600 L2400 0 L0 0  Z
  " fill="#ffffff" fill-rule="evenodd" fill-opacity="1"/>
<defs>
  <clipPath id="clip591">
    <rect x="480" y="0" width="1681" height="1600"/>
  </clipPath>
</defs>
<path clip-path="url(#clip590)" d="
M178.867 1486.45 L2352.76 1486.45 L2352.76 47.2441 L178.867 47.2441  Z
  " fill="#ffffff" fill-rule="evenodd" fill-opacity="1"/>
<defs>
  <clipPath id="clip592">
    <rect x="178" y="47" width="2175" height="1440"/>
  </clipPath>
</defs>
<polyline clip-path="url(#clip592)" style="stroke:#000000; stroke-linecap:round; stroke-linejoin:round; stroke-width:2; stroke-opacity:0.1; fill:none" points="
  214.435,1486.45 214.435,47.2441 
  "/>
<polyline clip-path="url(#clip592)" style="stroke:#000000; stroke-linecap:round; stroke-linejoin:round; stroke-width:2; stroke-opacity:0.1; fill:none" points="
  733.569,1486.45 733.569,47.2441 
  "/>
<polyline clip-path="url(#clip592)" style="stroke:#000000; stroke-linecap:round; stroke-linejoin:round; stroke-width:2; stroke-opacity:0.1; fill:none" points="
  1252.7,1486.45 1252.7,47.2441 
  "/>
<polyline clip-path="url(#clip592)" style="stroke:#000000; stroke-linecap:round; stroke-linejoin:round; stroke-width:2; stroke-opacity:0.1; fill:none" points="
  1771.84,1486.45 1771.84,47.2441 
  "/>
<polyline clip-path="url(#clip592)" style="stroke:#000000; stroke-linecap:round; stroke-linejoin:round; stroke-width:2; stroke-opacity:0.1; fill:none" points="
  2290.97,1486.45 2290.97,47.2441 
  "/>
<polyline clip-path="url(#clip590)" style="stroke:#000000; stroke-linecap:round; stroke-linejoin:round; stroke-width:4; stroke-opacity:1; fill:none" points="
  178.867,1486.45 2352.76,1486.45 
  "/>
<polyline clip-path="url(#clip590)" style="stroke:#000000; stroke-linecap:round; stroke-linejoin:round; stroke-width:4; stroke-opacity:1; fill:none" points="
  214.435,1486.45 214.435,1467.55 
  "/>
<polyline clip-path="url(#clip590)" style="stroke:#000000; stroke-linecap:round; stroke-linejoin:round; stroke-width:4; stroke-opacity:1; fill:none" points="
  733.569,1486.45 733.569,1467.55 
  "/>
<polyline clip-path="url(#clip590)" style="stroke:#000000; stroke-linecap:round; stroke-linejoin:round; stroke-width:4; stroke-opacity:1; fill:none" points="
  1252.7,1486.45 1252.7,1467.55 
  "/>
<polyline clip-path="url(#clip590)" style="stroke:#000000; stroke-linecap:round; stroke-linejoin:round; stroke-width:4; stroke-opacity:1; fill:none" points="
  1771.84,1486.45 1771.84,1467.55 
  "/>
<polyline clip-path="url(#clip590)" style="stroke:#000000; stroke-linecap:round; stroke-linejoin:round; stroke-width:4; stroke-opacity:1; fill:none" points="
  2290.97,1486.45 2290.97,1467.55 
  "/>
<path clip-path="url(#clip590)" d="M214.435 1517.37 Q210.824 1517.37 208.995 1520.93 Q207.19 1524.47 207.19 1531.6 Q207.19 1538.71 208.995 1542.27 Q210.824 1545.82 214.435 1545.82 Q218.069 1545.82 219.875 1542.27 Q221.704 1538.71 221.704 1531.6 Q221.704 1524.47 219.875 1520.93 Q218.069 1517.37 214.435 1517.37 M214.435 1513.66 Q220.245 1513.66 223.301 1518.27 Q226.379 1522.85 226.379 1531.6 Q226.379 1540.33 223.301 1544.94 Q220.245 1549.52 214.435 1549.52 Q208.625 1549.52 205.546 1544.94 Q202.491 1540.33 202.491 1531.6 Q202.491 1522.85 205.546 1518.27 Q208.625 1513.66 214.435 1513.66 Z" fill="#000000" fill-rule="evenodd" fill-opacity="1" /><path clip-path="url(#clip590)" d="M728.222 1544.91 L744.541 1544.91 L744.541 1548.85 L722.597 1548.85 L722.597 1544.91 Q725.259 1542.16 729.842 1537.53 Q734.449 1532.88 735.629 1531.53 Q737.875 1529.01 738.754 1527.27 Q739.657 1525.51 739.657 1523.82 Q739.657 1521.07 737.713 1519.33 Q735.791 1517.6 732.689 1517.6 Q730.49 1517.6 728.037 1518.36 Q725.606 1519.13 722.828 1520.68 L722.828 1515.95 Q725.652 1514.82 728.106 1514.24 Q730.56 1513.66 732.597 1513.66 Q737.967 1513.66 741.162 1516.35 Q744.356 1519.03 744.356 1523.52 Q744.356 1525.65 743.546 1527.57 Q742.759 1529.47 740.652 1532.07 Q740.074 1532.74 736.972 1535.95 Q733.87 1539.15 728.222 1544.91 Z" fill="#000000" fill-rule="evenodd" fill-opacity="1" /><path clip-path="url(#clip590)" d="M1255.71 1518.36 L1243.91 1536.81 L1255.71 1536.81 L1255.71 1518.36 M1254.49 1514.29 L1260.37 1514.29 L1260.37 1536.81 L1265.3 1536.81 L1265.3 1540.7 L1260.37 1540.7 L1260.37 1548.85 L1255.71 1548.85 L1255.71 1540.7 L1240.11 1540.7 L1240.11 1536.19 L1254.49 1514.29 Z" fill="#000000" fill-rule="evenodd" fill-opacity="1" /><path clip-path="url(#clip590)" d="M1772.24 1529.7 Q1769.09 1529.7 1767.24 1531.86 Q1765.41 1534.01 1765.41 1537.76 Q1765.41 1541.49 1767.24 1543.66 Q1769.09 1545.82 1772.24 1545.82 Q1775.39 1545.82 1777.22 1543.66 Q1779.07 1541.49 1779.07 1537.76 Q1779.07 1534.01 1777.22 1531.86 Q1775.39 1529.7 1772.24 1529.7 M1781.52 1515.05 L1781.52 1519.31 Q1779.77 1518.48 1777.96 1518.04 Q1776.18 1517.6 1774.42 1517.6 Q1769.79 1517.6 1767.33 1520.72 Q1764.9 1523.85 1764.56 1530.17 Q1765.92 1528.15 1767.98 1527.09 Q1770.04 1526 1772.52 1526 Q1777.73 1526 1780.74 1529.17 Q1783.77 1532.32 1783.77 1537.76 Q1783.77 1543.08 1780.62 1546.3 Q1777.47 1549.52 1772.24 1549.52 Q1766.25 1549.52 1763.08 1544.94 Q1759.9 1540.33 1759.9 1531.6 Q1759.9 1523.41 1763.79 1518.55 Q1767.68 1513.66 1774.23 1513.66 Q1775.99 1513.66 1777.77 1514.01 Q1779.58 1514.36 1781.52 1515.05 Z" fill="#000000" fill-rule="evenodd" fill-opacity="1" /><path clip-path="url(#clip590)" d="M2290.97 1532.44 Q2287.64 1532.44 2285.72 1534.22 Q2283.82 1536 2283.82 1539.13 Q2283.82 1542.25 2285.72 1544.03 Q2287.64 1545.82 2290.97 1545.82 Q2294.3 1545.82 2296.23 1544.03 Q2298.15 1542.23 2298.15 1539.13 Q2298.15 1536 2296.23 1534.22 Q2294.33 1532.44 2290.97 1532.44 M2286.3 1530.45 Q2283.29 1529.7 2281.6 1527.64 Q2279.93 1525.58 2279.93 1522.62 Q2279.93 1518.48 2282.87 1516.07 Q2285.83 1513.66 2290.97 1513.66 Q2296.13 1513.66 2299.07 1516.07 Q2302.01 1518.48 2302.01 1522.62 Q2302.01 1525.58 2300.32 1527.64 Q2298.66 1529.7 2295.67 1530.45 Q2299.05 1531.23 2300.92 1533.52 Q2302.82 1535.82 2302.82 1539.13 Q2302.82 1544.15 2299.74 1546.83 Q2296.69 1549.52 2290.97 1549.52 Q2285.25 1549.52 2282.17 1546.83 Q2279.12 1544.15 2279.12 1539.13 Q2279.12 1535.82 2281.02 1533.52 Q2282.92 1531.23 2286.3 1530.45 M2284.58 1523.06 Q2284.58 1525.75 2286.25 1527.25 Q2287.94 1528.76 2290.97 1528.76 Q2293.98 1528.76 2295.67 1527.25 Q2297.38 1525.75 2297.38 1523.06 Q2297.38 1520.38 2295.67 1518.87 Q2293.98 1517.37 2290.97 1517.37 Q2287.94 1517.37 2286.25 1518.87 Q2284.58 1520.38 2284.58 1523.06 Z" fill="#000000" fill-rule="evenodd" fill-opacity="1" /><polyline clip-path="url(#clip592)" style="stroke:#000000; stroke-linecap:round; stroke-linejoin:round; stroke-width:2; stroke-opacity:0.1; fill:none" points="
  178.867,1340.35 2352.76,1340.35 
  "/>
<polyline clip-path="url(#clip592)" style="stroke:#000000; stroke-linecap:round; stroke-linejoin:round; stroke-width:2; stroke-opacity:0.1; fill:none" points="
  178.867,987.765 2352.76,987.765 
  "/>
<polyline clip-path="url(#clip592)" style="stroke:#000000; stroke-linecap:round; stroke-linejoin:round; stroke-width:2; stroke-opacity:0.1; fill:none" points="
  178.867,635.179 2352.76,635.179 
  "/>
<polyline clip-path="url(#clip592)" style="stroke:#000000; stroke-linecap:round; stroke-linejoin:round; stroke-width:2; stroke-opacity:0.1; fill:none" points="
  178.867,282.592 2352.76,282.592 
  "/>
<polyline clip-path="url(#clip590)" style="stroke:#000000; stroke-linecap:round; stroke-linejoin:round; stroke-width:4; stroke-opacity:1; fill:none" points="
  178.867,1486.45 178.867,47.2441 
  "/>
<polyline clip-path="url(#clip590)" style="stroke:#000000; stroke-linecap:round; stroke-linejoin:round; stroke-width:4; stroke-opacity:1; fill:none" points="
  178.867,1340.35 197.764,1340.35 
  "/>
<polyline clip-path="url(#clip590)" style="stroke:#000000; stroke-linecap:round; stroke-linejoin:round; stroke-width:4; stroke-opacity:1; fill:none" points="
  178.867,987.765 197.764,987.765 
  "/>
<polyline clip-path="url(#clip590)" style="stroke:#000000; stroke-linecap:round; stroke-linejoin:round; stroke-width:4; stroke-opacity:1; fill:none" points="
  178.867,635.179 197.764,635.179 
  "/>
<polyline clip-path="url(#clip590)" style="stroke:#000000; stroke-linecap:round; stroke-linejoin:round; stroke-width:4; stroke-opacity:1; fill:none" points="
  178.867,282.592 197.764,282.592 
  "/>
<path clip-path="url(#clip590)" d="M50.9921 1340.8 L80.6679 1340.8 L80.6679 1344.74 L50.9921 1344.74 L50.9921 1340.8 Z" fill="#000000" fill-rule="evenodd" fill-opacity="1" /><path clip-path="url(#clip590)" d="M101.339 1338.49 Q98.1909 1338.49 96.3391 1340.64 Q94.5104 1342.79 94.5104 1346.54 Q94.5104 1350.27 96.3391 1352.45 Q98.1909 1354.6 101.339 1354.6 Q104.487 1354.6 106.316 1352.45 Q108.168 1350.27 108.168 1346.54 Q108.168 1342.79 106.316 1340.64 Q104.487 1338.49 101.339 1338.49 M110.621 1323.84 L110.621 1328.09 Q108.862 1327.26 107.057 1326.82 Q105.274 1326.38 103.515 1326.38 Q98.8854 1326.38 96.4317 1329.51 Q94.0012 1332.63 93.6539 1338.95 Q95.0197 1336.94 97.0798 1335.87 Q99.14 1334.78 101.617 1334.78 Q106.825 1334.78 109.834 1337.96 Q112.867 1341.1 112.867 1346.54 Q112.867 1351.87 109.719 1355.08 Q106.571 1358.3 101.339 1358.3 Q95.3437 1358.3 92.1725 1353.72 Q89.0012 1349.11 89.0012 1340.39 Q89.0012 1332.19 92.89 1327.33 Q96.7789 1322.45 103.33 1322.45 Q105.089 1322.45 106.871 1322.79 Q108.677 1323.14 110.621 1323.84 Z" fill="#000000" fill-rule="evenodd" fill-opacity="1" /><path clip-path="url(#clip590)" d="M130.922 1326.15 Q127.311 1326.15 125.482 1329.71 Q123.677 1333.26 123.677 1340.39 Q123.677 1347.49 125.482 1351.06 Q127.311 1354.6 130.922 1354.6 Q134.556 1354.6 136.362 1351.06 Q138.191 1347.49 138.191 1340.39 Q138.191 1333.26 136.362 1329.71 Q134.556 1326.15 130.922 1326.15 M130.922 1322.45 Q136.732 1322.45 139.788 1327.05 Q142.867 1331.64 142.867 1340.39 Q142.867 1349.11 139.788 1353.72 Q136.732 1358.3 130.922 1358.3 Q125.112 1358.3 122.033 1353.72 Q118.978 1349.11 118.978 1340.39 Q118.978 1331.64 122.033 1327.05 Q125.112 1322.45 130.922 1322.45 Z" fill="#000000" fill-rule="evenodd" fill-opacity="1" /><path clip-path="url(#clip590)" d="M50.9921 988.216 L80.6679 988.216 L80.6679 992.151 L50.9921 992.151 L50.9921 988.216 Z" fill="#000000" fill-rule="evenodd" fill-opacity="1" /><path clip-path="url(#clip590)" d="M103.608 974.559 L91.8021 993.008 L103.608 993.008 L103.608 974.559 M102.381 970.485 L108.26 970.485 L108.26 993.008 L113.191 993.008 L113.191 996.897 L108.26 996.897 L108.26 1005.04 L103.608 1005.04 L103.608 996.897 L88.0058 996.897 L88.0058 992.383 L102.381 970.485 Z" fill="#000000" fill-rule="evenodd" fill-opacity="1" /><path clip-path="url(#clip590)" d="M130.922 973.564 Q127.311 973.564 125.482 977.128 Q123.677 980.67 123.677 987.8 Q123.677 994.906 125.482 998.471 Q127.311 1002.01 130.922 1002.01 Q134.556 1002.01 136.362 998.471 Q138.191 994.906 138.191 987.8 Q138.191 980.67 136.362 977.128 Q134.556 973.564 130.922 973.564 M130.922 969.86 Q136.732 969.86 139.788 974.466 Q142.867 979.05 142.867 987.8 Q142.867 996.526 139.788 1001.13 Q136.732 1005.72 130.922 1005.72 Q125.112 1005.72 122.033 1001.13 Q118.978 996.526 118.978 987.8 Q118.978 979.05 122.033 974.466 Q125.112 969.86 130.922 969.86 Z" fill="#000000" fill-rule="evenodd" fill-opacity="1" /><path clip-path="url(#clip590)" d="M50.9921 635.63 L80.6679 635.63 L80.6679 639.565 L50.9921 639.565 L50.9921 635.63 Z" fill="#000000" fill-rule="evenodd" fill-opacity="1" /><path clip-path="url(#clip590)" d="M94.7882 648.523 L111.108 648.523 L111.108 652.459 L89.1632 652.459 L89.1632 648.523 Q91.8252 645.769 96.4085 641.139 Q101.015 636.486 102.196 635.144 Q104.441 632.621 105.321 630.885 Q106.223 629.125 106.223 627.435 Q106.223 624.681 104.279 622.945 Q102.358 621.209 99.2558 621.209 Q97.0567 621.209 94.603 621.973 Q92.1725 622.736 89.3947 624.287 L89.3947 619.565 Q92.2188 618.431 94.6724 617.852 Q97.1261 617.274 99.1632 617.274 Q104.534 617.274 107.728 619.959 Q110.922 622.644 110.922 627.135 Q110.922 629.264 110.112 631.185 Q109.325 633.084 107.219 635.676 Q106.64 636.347 103.538 639.565 Q100.436 642.759 94.7882 648.523 Z" fill="#000000" fill-rule="evenodd" fill-opacity="1" /><path clip-path="url(#clip590)" d="M130.922 620.977 Q127.311 620.977 125.482 624.542 Q123.677 628.084 123.677 635.213 Q123.677 642.32 125.482 645.884 Q127.311 649.426 130.922 649.426 Q134.556 649.426 136.362 645.884 Q138.191 642.32 138.191 635.213 Q138.191 628.084 136.362 624.542 Q134.556 620.977 130.922 620.977 M130.922 617.274 Q136.732 617.274 139.788 621.88 Q142.867 626.463 142.867 635.213 Q142.867 643.94 139.788 648.546 Q136.732 653.13 130.922 653.13 Q125.112 653.13 122.033 648.546 Q118.978 643.94 118.978 635.213 Q118.978 626.463 122.033 621.88 Q125.112 617.274 130.922 617.274 Z" fill="#000000" fill-rule="evenodd" fill-opacity="1" /><path clip-path="url(#clip590)" d="M130.922 268.391 Q127.311 268.391 125.482 271.956 Q123.677 275.497 123.677 282.627 Q123.677 289.733 125.482 293.298 Q127.311 296.84 130.922 296.84 Q134.556 296.84 136.362 293.298 Q138.191 289.733 138.191 282.627 Q138.191 275.497 136.362 271.956 Q134.556 268.391 130.922 268.391 M130.922 264.687 Q136.732 264.687 139.788 269.294 Q142.867 273.877 142.867 282.627 Q142.867 291.354 139.788 295.96 Q136.732 300.543 130.922 300.543 Q125.112 300.543 122.033 295.96 Q118.978 291.354 118.978 282.627 Q118.978 273.877 122.033 269.294 Q125.112 264.687 130.922 264.687 Z" fill="#000000" fill-rule="evenodd" fill-opacity="1" /><polyline clip-path="url(#clip592)" style="stroke:#009af9; stroke-linecap:round; stroke-linejoin:round; stroke-width:4; stroke-opacity:1; fill:none" points="
  240.392,307.663 251.034,239.477 272.578,128.328 296.458,87.9763 321.377,118.843 346.814,153.728 372.252,215.149 397.949,252.366 423.646,272.256 449.603,330.443 
  475.3,378.967 501.257,431.374 526.954,471.8 552.91,517.341 578.867,570.353 604.564,635.135 630.521,675.414 656.478,726.183 682.434,806.313 708.391,877.532 
  734.088,959.166 760.045,1020.48 786.002,1089.87 811.958,1154.93 837.915,1219.12 863.872,1314.76 889.828,1361.99 915.785,1393.71 941.742,1437.11 967.699,1445.72 
  993.655,1444.1 1019.61,1405.4 1045.57,1372.62 1071.53,1331.87 1097.22,1264.62 1123.18,1192.44 1149.14,1140.12 1175.09,1058.29 1201.05,1005.12 1227.01,940.568 
  1252.96,877.559 1278.92,814.712 1304.88,771.85 1330.83,736.703 1356.79,697.704 1382.75,667.373 1408.7,635.871 1434.66,603.348 1460.62,580.379 1486.57,559.571 
  1512.53,534.056 1538.49,513.694 1564.44,494.242 1590.4,481.006 1616.36,470.345 1642.31,452.957 1668.27,445.112 1694.23,431.763 1720.18,419.721 1746.14,412.352 
  1772.1,405.507 1798.05,399.883 1824.01,396.164 1849.97,390.389 1875.92,382.239 1901.88,376.124 1927.84,371.758 1953.79,366.866 1979.75,362.912 2005.71,358.01 
  2031.66,354.773 2057.62,350.425 2083.58,347.669 2109.53,344.142 2135.49,340.102 2161.45,338.464 2187.4,337.073 2213.36,334.305 2239.32,332.661 2265.27,331.093 
  2291.23,328.779 
  "/>
</svg>
