<?xml version="1.0" encoding="utf-8"?>
<svg xmlns="http://www.w3.org/2000/svg" xmlns:xlink="http://www.w3.org/1999/xlink" width="600" height="400" viewBox="0 0 2400 1600">
<defs>
  <clipPath id="clip370">
    <rect x="0" y="0" width="2400" height="1600"/>
  </clipPath>
</defs>
<path clip-path="url(#clip370)" d="
M0 1600 L2400 1600 L2400 0 L0 0  Z
  " fill="#ffffff" fill-rule="evenodd" fill-opacity="1"/>
<defs>
  <clipPath id="clip371">
    <rect x="480" y="0" width="1681" height="1600"/>
  </clipPath>
</defs>
<path clip-path="url(#clip370)" d="
M149.191 1486.45 L2352.76 1486.45 L2352.76 47.2441 L149.191 47.2441  Z
  " fill="#ffffff" fill-rule="evenodd" fill-opacity="1"/>
<defs>
  <clipPath id="clip372">
    <rect x="149" y="47" width="2205" height="1440"/>
  </clipPath>
</defs>
<polyline clip-path="url(#clip372)" style="stroke:#000000; stroke-linecap:round; stroke-linejoin:round; stroke-width:2; stroke-opacity:0.1; fill:none" points="
  211.556,1486.45 211.556,47.2441 
  "/>
<polyline clip-path="url(#clip372)" style="stroke:#000000; stroke-linecap:round; stroke-linejoin:round; stroke-width:2; stroke-opacity:0.1; fill:none" points="
  627.323,1486.45 627.323,47.2441 
  "/>
<polyline clip-path="url(#clip372)" style="stroke:#000000; stroke-linecap:round; stroke-linejoin:round; stroke-width:2; stroke-opacity:0.1; fill:none" points="
  1043.09,1486.45 1043.09,47.2441 
  "/>
<polyline clip-path="url(#clip372)" style="stroke:#000000; stroke-linecap:round; stroke-linejoin:round; stroke-width:2; stroke-opacity:0.1; fill:none" points="
  1458.86,1486.45 1458.86,47.2441 
  "/>
<polyline clip-path="url(#clip372)" style="stroke:#000000; stroke-linecap:round; stroke-linejoin:round; stroke-width:2; stroke-opacity:0.1; fill:none" points="
  1874.62,1486.45 1874.62,47.2441 
  "/>
<polyline clip-path="url(#clip372)" style="stroke:#000000; stroke-linecap:round; stroke-linejoin:round; stroke-width:2; stroke-opacity:0.1; fill:none" points="
  2290.39,1486.45 2290.39,47.2441 
  "/>
<polyline clip-path="url(#clip370)" style="stroke:#000000; stroke-linecap:round; stroke-linejoin:round; stroke-width:4; stroke-opacity:1; fill:none" points="
  149.191,1486.45 2352.76,1486.45 
  "/>
<polyline clip-path="url(#clip370)" style="stroke:#000000; stroke-linecap:round; stroke-linejoin:round; stroke-width:4; stroke-opacity:1; fill:none" points="
  211.556,1486.45 211.556,1467.55 
  "/>
<polyline clip-path="url(#clip370)" style="stroke:#000000; stroke-linecap:round; stroke-linejoin:round; stroke-width:4; stroke-opacity:1; fill:none" points="
  627.323,1486.45 627.323,1467.55 
  "/>
<polyline clip-path="url(#clip370)" style="stroke:#000000; stroke-linecap:round; stroke-linejoin:round; stroke-width:4; stroke-opacity:1; fill:none" points="
  1043.09,1486.45 1043.09,1467.55 
  "/>
<polyline clip-path="url(#clip370)" style="stroke:#000000; stroke-linecap:round; stroke-linejoin:round; stroke-width:4; stroke-opacity:1; fill:none" points="
  1458.86,1486.45 1458.86,1467.55 
  "/>
<polyline clip-path="url(#clip370)" style="stroke:#000000; stroke-linecap:round; stroke-linejoin:round; stroke-width:4; stroke-opacity:1; fill:none" points="
  1874.62,1486.45 1874.62,1467.55 
  "/>
<polyline clip-path="url(#clip370)" style="stroke:#000000; stroke-linecap:round; stroke-linejoin:round; stroke-width:4; stroke-opacity:1; fill:none" points="
  2290.39,1486.45 2290.39,1467.55 
  "/>
<path clip-path="url(#clip370)" d="M211.556 1517.37 Q207.945 1517.37 206.116 1520.93 Q204.311 1524.47 204.311 1531.6 Q204.311 1538.71 206.116 1542.27 Q207.945 1545.82 211.556 1545.82 Q215.19 1545.82 216.996 1542.27 Q218.824 1538.71 218.824 1531.6 Q218.824 1524.47 216.996 1520.93 Q215.19 1517.37 211.556 1517.37 M211.556 1513.66 Q217.366 1513.66 220.422 1518.27 Q223.5 1522.85 223.5 1531.6 Q223.5 1540.33 220.422 1544.94 Q217.366 1549.52 211.556 1549.52 Q205.746 1549.52 202.667 1544.94 Q199.612 1540.33 199.612 1531.6 Q199.612 1522.85 202.667 1518.27 Q205.746 1513.66 211.556 1513.66 Z" fill="#000000" fill-rule="evenodd" fill-opacity="1" /><path clip-path="url(#clip370)" d="M602.011 1544.91 L609.649 1544.91 L609.649 1518.55 L601.339 1520.21 L601.339 1515.95 L609.603 1514.29 L614.279 1514.29 L614.279 1544.91 L621.918 1544.91 L621.918 1548.85 L602.011 1548.85 L602.011 1544.91 Z" fill="#000000" fill-rule="evenodd" fill-opacity="1" /><path clip-path="url(#clip370)" d="M641.362 1517.37 Q637.751 1517.37 635.922 1520.93 Q634.117 1524.47 634.117 1531.6 Q634.117 1538.71 635.922 1542.27 Q637.751 1545.82 641.362 1545.82 Q644.996 1545.82 646.802 1542.27 Q648.631 1538.71 648.631 1531.6 Q648.631 1524.47 646.802 1520.93 Q644.996 1517.37 641.362 1517.37 M641.362 1513.66 Q647.172 1513.66 650.228 1518.27 Q653.307 1522.85 653.307 1531.6 Q653.307 1540.33 650.228 1544.94 Q647.172 1549.52 641.362 1549.52 Q635.552 1549.52 632.473 1544.94 Q629.418 1540.33 629.418 1531.6 Q629.418 1522.85 632.473 1518.27 Q635.552 1513.66 641.362 1513.66 Z" fill="#000000" fill-rule="evenodd" fill-opacity="1" /><path clip-path="url(#clip370)" d="M1021.86 1544.91 L1038.18 1544.91 L1038.18 1548.85 L1016.24 1548.85 L1016.24 1544.91 Q1018.9 1542.16 1023.48 1537.53 Q1028.09 1532.88 1029.27 1531.53 Q1031.52 1529.01 1032.4 1527.27 Q1033.3 1525.51 1033.3 1523.82 Q1033.3 1521.07 1031.35 1519.33 Q1029.43 1517.6 1026.33 1517.6 Q1024.13 1517.6 1021.68 1518.36 Q1019.25 1519.13 1016.47 1520.68 L1016.47 1515.95 Q1019.29 1514.82 1021.75 1514.24 Q1024.2 1513.66 1026.24 1513.66 Q1031.61 1513.66 1034.8 1516.35 Q1038 1519.03 1038 1523.52 Q1038 1525.65 1037.19 1527.57 Q1036.4 1529.47 1034.29 1532.07 Q1033.71 1532.74 1030.61 1535.95 Q1027.51 1539.15 1021.86 1544.91 Z" fill="#000000" fill-rule="evenodd" fill-opacity="1" /><path clip-path="url(#clip370)" d="M1058 1517.37 Q1054.39 1517.37 1052.56 1520.93 Q1050.75 1524.47 1050.75 1531.6 Q1050.75 1538.71 1052.56 1542.27 Q1054.39 1545.82 1058 1545.82 Q1061.63 1545.82 1063.44 1542.27 Q1065.27 1538.71 1065.27 1531.6 Q1065.27 1524.47 1063.44 1520.93 Q1061.63 1517.37 1058 1517.37 M1058 1513.66 Q1063.81 1513.66 1066.86 1518.27 Q1069.94 1522.85 1069.94 1531.6 Q1069.94 1540.33 1066.86 1544.94 Q1063.81 1549.52 1058 1549.52 Q1052.19 1549.52 1049.11 1544.94 Q1046.05 1540.33 1046.05 1531.6 Q1046.05 1522.85 1049.11 1518.27 Q1052.19 1513.66 1058 1513.66 Z" fill="#000000" fill-rule="evenodd" fill-opacity="1" /><path clip-path="url(#clip370)" d="M1447.7 1530.21 Q1451.06 1530.93 1452.93 1533.2 Q1454.83 1535.47 1454.83 1538.8 Q1454.83 1543.92 1451.31 1546.72 Q1447.79 1549.52 1441.31 1549.52 Q1439.13 1549.52 1436.82 1549.08 Q1434.53 1548.66 1432.07 1547.81 L1432.07 1543.29 Q1434.02 1544.43 1436.33 1545.01 Q1438.65 1545.58 1441.17 1545.58 Q1445.57 1545.58 1447.86 1543.85 Q1450.18 1542.11 1450.18 1538.8 Q1450.18 1535.75 1448.02 1534.03 Q1445.89 1532.3 1442.07 1532.3 L1438.05 1532.3 L1438.05 1528.45 L1442.26 1528.45 Q1445.71 1528.45 1447.54 1527.09 Q1449.37 1525.7 1449.37 1523.11 Q1449.37 1520.45 1447.47 1519.03 Q1445.59 1517.6 1442.07 1517.6 Q1440.15 1517.6 1437.95 1518.01 Q1435.76 1518.43 1433.12 1519.31 L1433.12 1515.14 Q1435.78 1514.4 1438.09 1514.03 Q1440.43 1513.66 1442.49 1513.66 Q1447.82 1513.66 1450.92 1516.09 Q1454.02 1518.5 1454.02 1522.62 Q1454.02 1525.49 1452.38 1527.48 Q1450.73 1529.45 1447.7 1530.21 Z" fill="#000000" fill-rule="evenodd" fill-opacity="1" /><path clip-path="url(#clip370)" d="M1473.69 1517.37 Q1470.08 1517.37 1468.25 1520.93 Q1466.45 1524.47 1466.45 1531.6 Q1466.45 1538.71 1468.25 1542.27 Q1470.08 1545.82 1473.69 1545.82 Q1477.33 1545.82 1479.13 1542.27 Q1480.96 1538.71 1480.96 1531.6 Q1480.96 1524.47 1479.13 1520.93 Q1477.33 1517.37 1473.69 1517.37 M1473.69 1513.66 Q1479.5 1513.66 1482.56 1518.27 Q1485.64 1522.85 1485.64 1531.6 Q1485.64 1540.33 1482.56 1544.94 Q1479.5 1549.52 1473.69 1549.52 Q1467.88 1549.52 1464.81 1544.94 Q1461.75 1540.33 1461.75 1531.6 Q1461.75 1522.85 1464.81 1518.27 Q1467.88 1513.66 1473.69 1513.66 Z" fill="#000000" fill-rule="evenodd" fill-opacity="1" /><path clip-path="url(#clip370)" d="M1862.8 1518.36 L1850.99 1536.81 L1862.8 1536.81 L1862.8 1518.36 M1861.57 1514.29 L1867.45 1514.29 L1867.45 1536.81 L1872.38 1536.81 L1872.38 1540.7 L1867.45 1540.7 L1867.45 1548.85 L1862.8 1548.85 L1862.8 1540.7 L1847.19 1540.7 L1847.19 1536.19 L1861.57 1514.29 Z" fill="#000000" fill-rule="evenodd" fill-opacity="1" /><path clip-path="url(#clip370)" d="M1890.11 1517.37 Q1886.5 1517.37 1884.67 1520.93 Q1882.86 1524.47 1882.86 1531.6 Q1882.86 1538.71 1884.67 1542.27 Q1886.5 1545.82 1890.11 1545.82 Q1893.74 1545.82 1895.55 1542.27 Q1897.38 1538.71 1897.38 1531.6 Q1897.38 1524.47 1895.55 1520.93 Q1893.74 1517.37 1890.11 1517.37 M1890.11 1513.66 Q1895.92 1513.66 1898.98 1518.27 Q1902.05 1522.85 1902.05 1531.6 Q1902.05 1540.33 1898.98 1544.94 Q1895.92 1549.52 1890.11 1549.52 Q1884.3 1549.52 1881.22 1544.94 Q1878.17 1540.33 1878.17 1531.6 Q1878.17 1522.85 1881.22 1518.27 Q1884.3 1513.66 1890.11 1513.66 Z" fill="#000000" fill-rule="evenodd" fill-opacity="1" /><path clip-path="url(#clip370)" d="M2265.09 1514.29 L2283.45 1514.29 L2283.45 1518.22 L2269.37 1518.22 L2269.37 1526.7 Q2270.39 1526.35 2271.41 1526.19 Q2272.43 1526 2273.45 1526 Q2279.23 1526 2282.61 1529.17 Q2285.99 1532.34 2285.99 1537.76 Q2285.99 1543.34 2282.52 1546.44 Q2279.05 1549.52 2272.73 1549.52 Q2270.55 1549.52 2268.28 1549.15 Q2266.04 1548.78 2263.63 1548.04 L2263.63 1543.34 Q2265.72 1544.47 2267.94 1545.03 Q2270.16 1545.58 2272.64 1545.58 Q2276.64 1545.58 2278.98 1543.48 Q2281.32 1541.37 2281.32 1537.76 Q2281.32 1534.15 2278.98 1532.04 Q2276.64 1529.94 2272.64 1529.94 Q2270.76 1529.94 2268.89 1530.35 Q2267.03 1530.77 2265.09 1531.65 L2265.09 1514.29 Z" fill="#000000" fill-rule="evenodd" fill-opacity="1" /><path clip-path="url(#clip370)" d="M2305.21 1517.37 Q2301.59 1517.37 2299.77 1520.93 Q2297.96 1524.47 2297.96 1531.6 Q2297.96 1538.71 2299.77 1542.27 Q2301.59 1545.82 2305.21 1545.82 Q2308.84 1545.82 2310.65 1542.27 Q2312.47 1538.71 2312.47 1531.6 Q2312.47 1524.47 2310.65 1520.93 Q2308.84 1517.37 2305.21 1517.37 M2305.21 1513.66 Q2311.02 1513.66 2314.07 1518.27 Q2317.15 1522.85 2317.15 1531.6 Q2317.15 1540.33 2314.07 1544.94 Q2311.02 1549.52 2305.21 1549.52 Q2299.4 1549.52 2296.32 1544.94 Q2293.26 1540.33 2293.26 1531.6 Q2293.26 1522.85 2296.32 1518.27 Q2299.4 1513.66 2305.21 1513.66 Z" fill="#000000" fill-rule="evenodd" fill-opacity="1" /><polyline clip-path="url(#clip372)" style="stroke:#000000; stroke-linecap:round; stroke-linejoin:round; stroke-width:2; stroke-opacity:0.1; fill:none" points="
  149.191,1369.43 2352.76,1369.43 
  "/>
<polyline clip-path="url(#clip372)" style="stroke:#000000; stroke-linecap:round; stroke-linejoin:round; stroke-width:2; stroke-opacity:0.1; fill:none" points="
  149.191,1176.12 2352.76,1176.12 
  "/>
<polyline clip-path="url(#clip372)" style="stroke:#000000; stroke-linecap:round; stroke-linejoin:round; stroke-width:2; stroke-opacity:0.1; fill:none" points="
  149.191,982.799 2352.76,982.799 
  "/>
<polyline clip-path="url(#clip372)" style="stroke:#000000; stroke-linecap:round; stroke-linejoin:round; stroke-width:2; stroke-opacity:0.1; fill:none" points="
  149.191,789.482 2352.76,789.482 
  "/>
<polyline clip-path="url(#clip372)" style="stroke:#000000; stroke-linecap:round; stroke-linejoin:round; stroke-width:2; stroke-opacity:0.1; fill:none" points="
  149.191,596.165 2352.76,596.165 
  "/>
<polyline clip-path="url(#clip372)" style="stroke:#000000; stroke-linecap:round; stroke-linejoin:round; stroke-width:2; stroke-opacity:0.1; fill:none" points="
  149.191,402.848 2352.76,402.848 
  "/>
<polyline clip-path="url(#clip372)" style="stroke:#000000; stroke-linecap:round; stroke-linejoin:round; stroke-width:2; stroke-opacity:0.1; fill:none" points="
  149.191,209.531 2352.76,209.531 
  "/>
<polyline clip-path="url(#clip370)" style="stroke:#000000; stroke-linecap:round; stroke-linejoin:round; stroke-width:4; stroke-opacity:1; fill:none" points="
  149.191,1486.45 149.191,47.2441 
  "/>
<polyline clip-path="url(#clip370)" style="stroke:#000000; stroke-linecap:round; stroke-linejoin:round; stroke-width:4; stroke-opacity:1; fill:none" points="
  149.191,1369.43 168.089,1369.43 
  "/>
<polyline clip-path="url(#clip370)" style="stroke:#000000; stroke-linecap:round; stroke-linejoin:round; stroke-width:4; stroke-opacity:1; fill:none" points="
  149.191,1176.12 168.089,1176.12 
  "/>
<polyline clip-path="url(#clip370)" style="stroke:#000000; stroke-linecap:round; stroke-linejoin:round; stroke-width:4; stroke-opacity:1; fill:none" points="
  149.191,982.799 168.089,982.799 
  "/>
<polyline clip-path="url(#clip370)" style="stroke:#000000; stroke-linecap:round; stroke-linejoin:round; stroke-width:4; stroke-opacity:1; fill:none" points="
  149.191,789.482 168.089,789.482 
  "/>
<polyline clip-path="url(#clip370)" style="stroke:#000000; stroke-linecap:round; stroke-linejoin:round; stroke-width:4; stroke-opacity:1; fill:none" points="
  149.191,596.165 168.089,596.165 
  "/>
<polyline clip-path="url(#clip370)" style="stroke:#000000; stroke-linecap:round; stroke-linejoin:round; stroke-width:4; stroke-opacity:1; fill:none" points="
  149.191,402.848 168.089,402.848 
  "/>
<polyline clip-path="url(#clip370)" style="stroke:#000000; stroke-linecap:round; stroke-linejoin:round; stroke-width:4; stroke-opacity:1; fill:none" points="
  149.191,209.531 168.089,209.531 
  "/>
<path clip-path="url(#clip370)" d="M51.3162 1369.88 L80.992 1369.88 L80.992 1373.82 L51.3162 1373.82 L51.3162 1369.88 Z" fill="#000000" fill-rule="evenodd" fill-opacity="1" /><path clip-path="url(#clip370)" d="M101.663 1367.57 Q98.515 1367.57 96.6632 1369.72 Q94.8345 1371.88 94.8345 1375.63 Q94.8345 1379.35 96.6632 1381.53 Q98.515 1383.68 101.663 1383.68 Q104.811 1383.68 106.64 1381.53 Q108.492 1379.35 108.492 1375.63 Q108.492 1371.88 106.64 1369.72 Q104.811 1367.57 101.663 1367.57 M110.946 1352.92 L110.946 1357.18 Q109.186 1356.34 107.381 1355.9 Q105.598 1355.46 103.839 1355.46 Q99.2095 1355.46 96.7558 1358.59 Q94.3252 1361.71 93.978 1368.03 Q95.3437 1366.02 97.4039 1364.95 Q99.4641 1363.87 101.941 1363.87 Q107.149 1363.87 110.158 1367.04 Q113.191 1370.19 113.191 1375.63 Q113.191 1380.95 110.043 1384.17 Q106.895 1387.38 101.663 1387.38 Q95.6678 1387.38 92.4965 1382.8 Q89.3253 1378.19 89.3253 1369.47 Q89.3253 1361.27 93.2141 1356.41 Q97.103 1351.53 103.654 1351.53 Q105.413 1351.53 107.196 1351.88 Q109.001 1352.22 110.946 1352.92 Z" fill="#000000" fill-rule="evenodd" fill-opacity="1" /><path clip-path="url(#clip370)" d="M50.9921 1176.57 L80.6679 1176.57 L80.6679 1180.5 L50.9921 1180.5 L50.9921 1176.57 Z" fill="#000000" fill-rule="evenodd" fill-opacity="1" /><path clip-path="url(#clip370)" d="M103.608 1162.91 L91.8021 1181.36 L103.608 1181.36 L103.608 1162.91 M102.381 1158.84 L108.26 1158.84 L108.26 1181.36 L113.191 1181.36 L113.191 1185.25 L108.26 1185.25 L108.26 1193.4 L103.608 1193.4 L103.608 1185.25 L88.0058 1185.25 L88.0058 1180.73 L102.381 1158.84 Z" fill="#000000" fill-rule="evenodd" fill-opacity="1" /><path clip-path="url(#clip370)" d="M53.0754 983.25 L82.7512 983.25 L82.7512 987.186 L53.0754 987.186 L53.0754 983.25 Z" fill="#000000" fill-rule="evenodd" fill-opacity="1" /><path clip-path="url(#clip370)" d="M96.8715 996.144 L113.191 996.144 L113.191 1000.08 L91.2465 1000.08 L91.2465 996.144 Q93.9086 993.389 98.4919 988.76 Q103.098 984.107 104.279 982.764 Q106.524 980.241 107.404 978.505 Q108.307 976.746 108.307 975.056 Q108.307 972.301 106.362 970.565 Q104.441 968.829 101.339 968.829 Q99.14 968.829 96.6863 969.593 Q94.2558 970.357 91.478 971.908 L91.478 967.186 Q94.3021 966.051 96.7558 965.473 Q99.2095 964.894 101.246 964.894 Q106.617 964.894 109.811 967.579 Q113.006 970.264 113.006 974.755 Q113.006 976.885 112.196 978.806 Q111.408 980.704 109.302 983.297 Q108.723 983.968 105.621 987.186 Q102.52 990.38 96.8715 996.144 Z" fill="#000000" fill-rule="evenodd" fill-opacity="1" /><path clip-path="url(#clip370)" d="M101.246 775.281 Q97.6354 775.281 95.8067 778.845 Q94.0012 782.387 94.0012 789.517 Q94.0012 796.623 95.8067 800.188 Q97.6354 803.73 101.246 803.73 Q104.881 803.73 106.686 800.188 Q108.515 796.623 108.515 789.517 Q108.515 782.387 106.686 778.845 Q104.881 775.281 101.246 775.281 M101.246 771.577 Q107.057 771.577 110.112 776.183 Q113.191 780.767 113.191 789.517 Q113.191 798.243 110.112 802.85 Q107.057 807.433 101.246 807.433 Q95.4363 807.433 92.3576 802.85 Q89.3021 798.243 89.3021 789.517 Q89.3021 780.767 92.3576 776.183 Q95.4363 771.577 101.246 771.577 Z" fill="#000000" fill-rule="evenodd" fill-opacity="1" /><path clip-path="url(#clip370)" d="M96.8715 609.51 L113.191 609.51 L113.191 613.445 L91.2465 613.445 L91.2465 609.51 Q93.9086 606.755 98.4919 602.125 Q103.098 597.473 104.279 596.13 Q106.524 593.607 107.404 591.871 Q108.307 590.112 108.307 588.422 Q108.307 585.667 106.362 583.931 Q104.441 582.195 101.339 582.195 Q99.14 582.195 96.6863 582.959 Q94.2558 583.723 91.478 585.274 L91.478 580.551 Q94.3021 579.417 96.7558 578.839 Q99.2095 578.26 101.246 578.26 Q106.617 578.26 109.811 580.945 Q113.006 583.63 113.006 588.121 Q113.006 590.251 112.196 592.172 Q111.408 594.07 109.302 596.663 Q108.723 597.334 105.621 600.551 Q102.52 603.746 96.8715 609.51 Z" fill="#000000" fill-rule="evenodd" fill-opacity="1" /><path clip-path="url(#clip370)" d="M103.608 389.642 L91.8021 408.091 L103.608 408.091 L103.608 389.642 M102.381 385.568 L108.26 385.568 L108.26 408.091 L113.191 408.091 L113.191 411.98 L108.26 411.98 L108.26 420.128 L103.608 420.128 L103.608 411.98 L88.0058 411.98 L88.0058 407.466 L102.381 385.568 Z" fill="#000000" fill-rule="evenodd" fill-opacity="1" /><path clip-path="url(#clip370)" d="M101.663 207.667 Q98.515 207.667 96.6632 209.82 Q94.8345 211.973 94.8345 215.723 Q94.8345 219.45 96.6632 221.626 Q98.515 223.778 101.663 223.778 Q104.811 223.778 106.64 221.626 Q108.492 219.45 108.492 215.723 Q108.492 211.973 106.64 209.82 Q104.811 207.667 101.663 207.667 M110.946 193.015 L110.946 197.274 Q109.186 196.44 107.381 196.001 Q105.598 195.561 103.839 195.561 Q99.2095 195.561 96.7558 198.686 Q94.3252 201.811 93.978 208.13 Q95.3437 206.116 97.4039 205.052 Q99.4641 203.964 101.941 203.964 Q107.149 203.964 110.158 207.135 Q113.191 210.283 113.191 215.723 Q113.191 221.047 110.043 224.264 Q106.895 227.482 101.663 227.482 Q95.6678 227.482 92.4965 222.899 Q89.3253 218.292 89.3253 209.565 Q89.3253 201.371 93.2141 196.51 Q97.103 191.626 103.654 191.626 Q105.413 191.626 107.196 191.973 Q109.001 192.32 110.946 193.015 Z" fill="#000000" fill-rule="evenodd" fill-opacity="1" /><polyline clip-path="url(#clip372)" style="stroke:#009af9; stroke-linecap:round; stroke-linejoin:round; stroke-width:4; stroke-opacity:1; fill:none" points="
  211.556,799.767 294.709,695.86 377.863,515.761 461.016,699.04 544.17,701.998 627.323,649.75 710.476,669.914 793.63,1071.58 876.783,1112.4 959.936,940.207 
  1043.09,1006.79 1126.24,979.496 1209.4,1281.05 1292.55,1240.69 1375.7,1249.92 1458.86,1319.76 1542.01,1220.99 1625.16,1369.84 1708.32,1117.11 1791.47,1245.65 
  1874.62,869.886 1957.78,918.738 2040.93,1445.72 2124.08,1307.2 2207.24,960.796 2290.39,87.9763 
  "/>
</svg>
