<?xml version="1.0" encoding="utf-8"?>
<svg xmlns="http://www.w3.org/2000/svg" xmlns:xlink="http://www.w3.org/1999/xlink" width="600" height="400" viewBox="0 0 2400 1600">
<defs>
  <clipPath id="clip700">
    <rect x="0" y="0" width="2400" height="1600"/>
  </clipPath>
</defs>
<path clip-path="url(#clip700)" d="
M0 1600 L2400 1600 L2400 0 L0 0  Z
  " fill="#ffffff" fill-rule="evenodd" fill-opacity="1"/>
<defs>
  <clipPath id="clip701">
    <rect x="480" y="0" width="1681" height="1600"/>
  </clipPath>
</defs>
<path clip-path="url(#clip700)" d="
M140.696 1486.45 L2352.76 1486.45 L2352.76 47.2441 L140.696 47.2441  Z
  " fill="#ffffff" fill-rule="evenodd" fill-opacity="1"/>
<defs>
  <clipPath id="clip702">
    <rect x="140" y="47" width="2213" height="1440"/>
  </clipPath>
</defs>
<polyline clip-path="url(#clip702)" style="stroke:#000000; stroke-linecap:round; stroke-linejoin:round; stroke-width:2; stroke-opacity:0.1; fill:none" points="
  203.301,1486.45 203.301,47.2441 
  "/>
<polyline clip-path="url(#clip702)" style="stroke:#000000; stroke-linecap:round; stroke-linejoin:round; stroke-width:2; stroke-opacity:0.1; fill:none" points="
  725.013,1486.45 725.013,47.2441 
  "/>
<polyline clip-path="url(#clip702)" style="stroke:#000000; stroke-linecap:round; stroke-linejoin:round; stroke-width:2; stroke-opacity:0.1; fill:none" points="
  1246.73,1486.45 1246.73,47.2441 
  "/>
<polyline clip-path="url(#clip702)" style="stroke:#000000; stroke-linecap:round; stroke-linejoin:round; stroke-width:2; stroke-opacity:0.1; fill:none" points="
  1768.44,1486.45 1768.44,47.2441 
  "/>
<polyline clip-path="url(#clip702)" style="stroke:#000000; stroke-linecap:round; stroke-linejoin:round; stroke-width:2; stroke-opacity:0.1; fill:none" points="
  2290.15,1486.45 2290.15,47.2441 
  "/>
<polyline clip-path="url(#clip700)" style="stroke:#000000; stroke-linecap:round; stroke-linejoin:round; stroke-width:4; stroke-opacity:1; fill:none" points="
  140.696,1486.45 2352.76,1486.45 
  "/>
<polyline clip-path="url(#clip700)" style="stroke:#000000; stroke-linecap:round; stroke-linejoin:round; stroke-width:4; stroke-opacity:1; fill:none" points="
  203.301,1486.45 203.301,1467.55 
  "/>
<polyline clip-path="url(#clip700)" style="stroke:#000000; stroke-linecap:round; stroke-linejoin:round; stroke-width:4; stroke-opacity:1; fill:none" points="
  725.013,1486.45 725.013,1467.55 
  "/>
<polyline clip-path="url(#clip700)" style="stroke:#000000; stroke-linecap:round; stroke-linejoin:round; stroke-width:4; stroke-opacity:1; fill:none" points="
  1246.73,1486.45 1246.73,1467.55 
  "/>
<polyline clip-path="url(#clip700)" style="stroke:#000000; stroke-linecap:round; stroke-linejoin:round; stroke-width:4; stroke-opacity:1; fill:none" points="
  1768.44,1486.45 1768.44,1467.55 
  "/>
<polyline clip-path="url(#clip700)" style="stroke:#000000; stroke-linecap:round; stroke-linejoin:round; stroke-width:4; stroke-opacity:1; fill:none" points="
  2290.15,1486.45 2290.15,1467.55 
  "/>
<path clip-path="url(#clip700)" d="M203.301 1517.37 Q199.69 1517.37 197.861 1520.93 Q196.056 1524.47 196.056 1531.6 Q196.056 1538.71 197.861 1542.27 Q199.69 1545.82 203.301 1545.82 Q206.935 1545.82 208.741 1542.27 Q210.57 1538.71 210.57 1531.6 Q210.57 1524.47 208.741 1520.93 Q206.935 1517.37 203.301 1517.37 M203.301 1513.66 Q209.111 1513.66 212.167 1518.27 Q215.245 1522.85 215.245 1531.6 Q215.245 1540.33 212.167 1544.94 Q209.111 1549.52 203.301 1549.52 Q197.491 1549.52 194.412 1544.94 Q191.357 1540.33 191.357 1531.6 Q191.357 1522.85 194.412 1518.27 Q197.491 1513.66 203.301 1513.66 Z" fill="#000000" fill-rule="evenodd" fill-opacity="1" /><path clip-path="url(#clip700)" d="M699.701 1544.91 L707.34 1544.91 L707.34 1518.55 L699.03 1520.21 L699.03 1515.95 L707.294 1514.29 L711.969 1514.29 L711.969 1544.91 L719.608 1544.91 L719.608 1548.85 L699.701 1548.85 L699.701 1544.91 Z" fill="#000000" fill-rule="evenodd" fill-opacity="1" /><path clip-path="url(#clip700)" d="M739.053 1517.37 Q735.442 1517.37 733.613 1520.93 Q731.807 1524.47 731.807 1531.6 Q731.807 1538.71 733.613 1542.27 Q735.442 1545.82 739.053 1545.82 Q742.687 1545.82 744.492 1542.27 Q746.321 1538.71 746.321 1531.6 Q746.321 1524.47 744.492 1520.93 Q742.687 1517.37 739.053 1517.37 M739.053 1513.66 Q744.863 1513.66 747.918 1518.27 Q750.997 1522.85 750.997 1531.6 Q750.997 1540.33 747.918 1544.94 Q744.863 1549.52 739.053 1549.52 Q733.242 1549.52 730.164 1544.94 Q727.108 1540.33 727.108 1531.6 Q727.108 1522.85 730.164 1518.27 Q733.242 1513.66 739.053 1513.66 Z" fill="#000000" fill-rule="evenodd" fill-opacity="1" /><path clip-path="url(#clip700)" d="M1225.5 1544.91 L1241.82 1544.91 L1241.82 1548.85 L1219.87 1548.85 L1219.87 1544.91 Q1222.54 1542.16 1227.12 1537.53 Q1231.73 1532.88 1232.91 1531.53 Q1235.15 1529.01 1236.03 1527.27 Q1236.93 1525.51 1236.93 1523.82 Q1236.93 1521.07 1234.99 1519.33 Q1233.07 1517.6 1229.97 1517.6 Q1227.77 1517.6 1225.31 1518.36 Q1222.88 1519.13 1220.11 1520.68 L1220.11 1515.95 Q1222.93 1514.82 1225.38 1514.24 Q1227.84 1513.66 1229.87 1513.66 Q1235.24 1513.66 1238.44 1516.35 Q1241.63 1519.03 1241.63 1523.52 Q1241.63 1525.65 1240.82 1527.57 Q1240.04 1529.47 1237.93 1532.07 Q1237.35 1532.74 1234.25 1535.95 Q1231.15 1539.15 1225.5 1544.91 Z" fill="#000000" fill-rule="evenodd" fill-opacity="1" /><path clip-path="url(#clip700)" d="M1261.63 1517.37 Q1258.02 1517.37 1256.19 1520.93 Q1254.39 1524.47 1254.39 1531.6 Q1254.39 1538.71 1256.19 1542.27 Q1258.02 1545.82 1261.63 1545.82 Q1265.27 1545.82 1267.07 1542.27 Q1268.9 1538.71 1268.9 1531.6 Q1268.9 1524.47 1267.07 1520.93 Q1265.27 1517.37 1261.63 1517.37 M1261.63 1513.66 Q1267.44 1513.66 1270.5 1518.27 Q1273.58 1522.85 1273.58 1531.6 Q1273.58 1540.33 1270.5 1544.94 Q1267.44 1549.52 1261.63 1549.52 Q1255.82 1549.52 1252.74 1544.94 Q1249.69 1540.33 1249.69 1531.6 Q1249.69 1522.85 1252.74 1518.27 Q1255.82 1513.66 1261.63 1513.66 Z" fill="#000000" fill-rule="evenodd" fill-opacity="1" /><path clip-path="url(#clip700)" d="M1757.28 1530.21 Q1760.64 1530.93 1762.51 1533.2 Q1764.41 1535.47 1764.41 1538.8 Q1764.41 1543.92 1760.89 1546.72 Q1757.37 1549.52 1750.89 1549.52 Q1748.72 1549.52 1746.4 1549.08 Q1744.11 1548.66 1741.66 1547.81 L1741.66 1543.29 Q1743.6 1544.43 1745.92 1545.01 Q1748.23 1545.58 1750.75 1545.58 Q1755.15 1545.58 1757.44 1543.85 Q1759.76 1542.11 1759.76 1538.8 Q1759.76 1535.75 1757.6 1534.03 Q1755.48 1532.3 1751.66 1532.3 L1747.63 1532.3 L1747.63 1528.45 L1751.84 1528.45 Q1755.29 1528.45 1757.12 1527.09 Q1758.95 1525.7 1758.95 1523.11 Q1758.95 1520.45 1757.05 1519.03 Q1755.17 1517.6 1751.66 1517.6 Q1749.73 1517.6 1747.54 1518.01 Q1745.34 1518.43 1742.7 1519.31 L1742.7 1515.14 Q1745.36 1514.4 1747.67 1514.03 Q1750.01 1513.66 1752.07 1513.66 Q1757.4 1513.66 1760.5 1516.09 Q1763.6 1518.5 1763.6 1522.62 Q1763.6 1525.49 1761.96 1527.48 Q1760.31 1529.45 1757.28 1530.21 Z" fill="#000000" fill-rule="evenodd" fill-opacity="1" /><path clip-path="url(#clip700)" d="M1783.28 1517.37 Q1779.66 1517.37 1777.84 1520.93 Q1776.03 1524.47 1776.03 1531.6 Q1776.03 1538.71 1777.84 1542.27 Q1779.66 1545.82 1783.28 1545.82 Q1786.91 1545.82 1788.72 1542.27 Q1790.54 1538.71 1790.54 1531.6 Q1790.54 1524.47 1788.72 1520.93 Q1786.91 1517.37 1783.28 1517.37 M1783.28 1513.66 Q1789.09 1513.66 1792.14 1518.27 Q1795.22 1522.85 1795.22 1531.6 Q1795.22 1540.33 1792.14 1544.94 Q1789.09 1549.52 1783.28 1549.52 Q1777.47 1549.52 1774.39 1544.94 Q1771.33 1540.33 1771.33 1531.6 Q1771.33 1522.85 1774.39 1518.27 Q1777.47 1513.66 1783.28 1513.66 Z" fill="#000000" fill-rule="evenodd" fill-opacity="1" /><path clip-path="url(#clip700)" d="M2278.32 1518.36 L2266.52 1536.81 L2278.32 1536.81 L2278.32 1518.36 M2277.09 1514.29 L2282.97 1514.29 L2282.97 1536.81 L2287.91 1536.81 L2287.91 1540.7 L2282.97 1540.7 L2282.97 1548.85 L2278.32 1548.85 L2278.32 1540.7 L2262.72 1540.7 L2262.72 1536.19 L2277.09 1514.29 Z" fill="#000000" fill-rule="evenodd" fill-opacity="1" /><path clip-path="url(#clip700)" d="M2305.64 1517.37 Q2302.03 1517.37 2300.2 1520.93 Q2298.39 1524.47 2298.39 1531.6 Q2298.39 1538.71 2300.2 1542.27 Q2302.03 1545.82 2305.64 1545.82 Q2309.27 1545.82 2311.08 1542.27 Q2312.9 1538.71 2312.9 1531.6 Q2312.9 1524.47 2311.08 1520.93 Q2309.27 1517.37 2305.64 1517.37 M2305.64 1513.66 Q2311.45 1513.66 2314.5 1518.27 Q2317.58 1522.85 2317.58 1531.6 Q2317.58 1540.33 2314.5 1544.94 Q2311.45 1549.52 2305.64 1549.52 Q2299.83 1549.52 2296.75 1544.94 Q2293.69 1540.33 2293.69 1531.6 Q2293.69 1522.85 2296.75 1518.27 Q2299.83 1513.66 2305.64 1513.66 Z" fill="#000000" fill-rule="evenodd" fill-opacity="1" /><polyline clip-path="url(#clip702)" style="stroke:#000000; stroke-linecap:round; stroke-linejoin:round; stroke-width:2; stroke-opacity:0.1; fill:none" points="
  140.696,1254.24 2352.76,1254.24 
  "/>
<polyline clip-path="url(#clip702)" style="stroke:#000000; stroke-linecap:round; stroke-linejoin:round; stroke-width:2; stroke-opacity:0.1; fill:none" points="
  140.696,965.773 2352.76,965.773 
  "/>
<polyline clip-path="url(#clip702)" style="stroke:#000000; stroke-linecap:round; stroke-linejoin:round; stroke-width:2; stroke-opacity:0.1; fill:none" points="
  140.696,677.307 2352.76,677.307 
  "/>
<polyline clip-path="url(#clip702)" style="stroke:#000000; stroke-linecap:round; stroke-linejoin:round; stroke-width:2; stroke-opacity:0.1; fill:none" points="
  140.696,388.841 2352.76,388.841 
  "/>
<polyline clip-path="url(#clip702)" style="stroke:#000000; stroke-linecap:round; stroke-linejoin:round; stroke-width:2; stroke-opacity:0.1; fill:none" points="
  140.696,100.374 2352.76,100.374 
  "/>
<polyline clip-path="url(#clip700)" style="stroke:#000000; stroke-linecap:round; stroke-linejoin:round; stroke-width:4; stroke-opacity:1; fill:none" points="
  140.696,1486.45 140.696,47.2441 
  "/>
<polyline clip-path="url(#clip700)" style="stroke:#000000; stroke-linecap:round; stroke-linejoin:round; stroke-width:4; stroke-opacity:1; fill:none" points="
  140.696,1254.24 159.593,1254.24 
  "/>
<polyline clip-path="url(#clip700)" style="stroke:#000000; stroke-linecap:round; stroke-linejoin:round; stroke-width:4; stroke-opacity:1; fill:none" points="
  140.696,965.773 159.593,965.773 
  "/>
<polyline clip-path="url(#clip700)" style="stroke:#000000; stroke-linecap:round; stroke-linejoin:round; stroke-width:4; stroke-opacity:1; fill:none" points="
  140.696,677.307 159.593,677.307 
  "/>
<polyline clip-path="url(#clip700)" style="stroke:#000000; stroke-linecap:round; stroke-linejoin:round; stroke-width:4; stroke-opacity:1; fill:none" points="
  140.696,388.841 159.593,388.841 
  "/>
<polyline clip-path="url(#clip700)" style="stroke:#000000; stroke-linecap:round; stroke-linejoin:round; stroke-width:4; stroke-opacity:1; fill:none" points="
  140.696,100.374 159.593,100.374 
  "/>
<path clip-path="url(#clip700)" d="M92.7512 1240.04 Q89.1401 1240.04 87.3114 1243.6 Q85.5058 1247.14 85.5058 1254.27 Q85.5058 1261.38 87.3114 1264.95 Q89.1401 1268.49 92.7512 1268.49 Q96.3854 1268.49 98.1909 1264.95 Q100.02 1261.38 100.02 1254.27 Q100.02 1247.14 98.1909 1243.6 Q96.3854 1240.04 92.7512 1240.04 M92.7512 1236.33 Q98.5613 1236.33 101.617 1240.94 Q104.696 1245.52 104.696 1254.27 Q104.696 1263 101.617 1267.61 Q98.5613 1272.19 92.7512 1272.19 Q86.941 1272.19 83.8623 1267.61 Q80.8068 1263 80.8068 1254.27 Q80.8068 1245.52 83.8623 1240.94 Q86.941 1236.33 92.7512 1236.33 Z" fill="#000000" fill-rule="evenodd" fill-opacity="1" /><path clip-path="url(#clip700)" d="M83.7929 948.493 L102.149 948.493 L102.149 952.428 L88.0753 952.428 L88.0753 960.9 Q89.0938 960.553 90.1123 960.391 Q91.1308 960.206 92.1493 960.206 Q97.9363 960.206 101.316 963.377 Q104.696 966.549 104.696 971.965 Q104.696 977.544 101.223 980.646 Q97.7511 983.724 91.4317 983.724 Q89.2558 983.724 86.9873 983.354 Q84.7419 982.984 82.3346 982.243 L82.3346 977.544 Q84.4179 978.678 86.6401 979.234 Q88.8623 979.789 91.3391 979.789 Q95.3437 979.789 97.6817 977.683 Q100.02 975.576 100.02 971.965 Q100.02 968.354 97.6817 966.248 Q95.3437 964.141 91.3391 964.141 Q89.4641 964.141 87.5892 964.558 Q85.7373 964.974 83.7929 965.854 L83.7929 948.493 Z" fill="#000000" fill-rule="evenodd" fill-opacity="1" /><path clip-path="url(#clip700)" d="M53.3995 690.652 L61.0384 690.652 L61.0384 664.286 L52.7282 665.953 L52.7282 661.693 L60.9921 660.027 L65.668 660.027 L65.668 690.652 L73.3068 690.652 L73.3068 694.587 L53.3995 694.587 L53.3995 690.652 Z" fill="#000000" fill-rule="evenodd" fill-opacity="1" /><path clip-path="url(#clip700)" d="M92.7512 663.106 Q89.1401 663.106 87.3114 666.67 Q85.5058 670.212 85.5058 677.342 Q85.5058 684.448 87.3114 688.013 Q89.1401 691.554 92.7512 691.554 Q96.3854 691.554 98.1909 688.013 Q100.02 684.448 100.02 677.342 Q100.02 670.212 98.1909 666.67 Q96.3854 663.106 92.7512 663.106 M92.7512 659.402 Q98.5613 659.402 101.617 664.008 Q104.696 668.592 104.696 677.342 Q104.696 686.068 101.617 690.675 Q98.5613 695.258 92.7512 695.258 Q86.941 695.258 83.8623 690.675 Q80.8068 686.068 80.8068 677.342 Q80.8068 668.592 83.8623 664.008 Q86.941 659.402 92.7512 659.402 Z" fill="#000000" fill-rule="evenodd" fill-opacity="1" /><path clip-path="url(#clip700)" d="M54.3949 402.185 L62.0337 402.185 L62.0337 375.82 L53.7236 377.486 L53.7236 373.227 L61.9874 371.561 L66.6633 371.561 L66.6633 402.185 L74.3022 402.185 L74.3022 406.121 L54.3949 406.121 L54.3949 402.185 Z" fill="#000000" fill-rule="evenodd" fill-opacity="1" /><path clip-path="url(#clip700)" d="M83.7929 371.561 L102.149 371.561 L102.149 375.496 L88.0753 375.496 L88.0753 383.968 Q89.0938 383.621 90.1123 383.459 Q91.1308 383.273 92.1493 383.273 Q97.9363 383.273 101.316 386.445 Q104.696 389.616 104.696 395.033 Q104.696 400.611 101.223 403.713 Q97.7511 406.792 91.4317 406.792 Q89.2558 406.792 86.9873 406.422 Q84.7419 406.051 82.3346 405.31 L82.3346 400.611 Q84.4179 401.746 86.6401 402.301 Q88.8623 402.857 91.3391 402.857 Q95.3437 402.857 97.6817 400.75 Q100.02 398.644 100.02 395.033 Q100.02 391.422 97.6817 389.315 Q95.3437 387.209 91.3391 387.209 Q89.4641 387.209 87.5892 387.625 Q85.7373 388.042 83.7929 388.922 L83.7929 371.561 Z" fill="#000000" fill-rule="evenodd" fill-opacity="1" /><path clip-path="url(#clip700)" d="M56.6171 113.719 L72.9365 113.719 L72.9365 117.654 L50.9921 117.654 L50.9921 113.719 Q53.6541 110.965 58.2375 106.335 Q62.8439 101.682 64.0245 100.34 Q66.2698 97.8165 67.1494 96.0804 Q68.0522 94.3211 68.0522 92.6313 Q68.0522 89.8767 66.1078 88.1406 Q64.1865 86.4045 61.0847 86.4045 Q58.8856 86.4045 56.4319 87.1684 Q54.0014 87.9323 51.2236 89.4832 L51.2236 84.761 Q54.0477 83.6268 56.5014 83.0481 Q58.955 82.4694 60.9921 82.4694 Q66.3624 82.4694 69.5568 85.1545 Q72.7513 87.8397 72.7513 92.3304 Q72.7513 94.46 71.9411 96.3813 Q71.1541 98.2795 69.0476 100.872 Q68.4689 101.543 65.367 104.761 Q62.2652 107.955 56.6171 113.719 Z" fill="#000000" fill-rule="evenodd" fill-opacity="1" /><path clip-path="url(#clip700)" d="M92.7512 86.173 Q89.1401 86.173 87.3114 89.7378 Q85.5058 93.2795 85.5058 100.409 Q85.5058 107.516 87.3114 111.08 Q89.1401 114.622 92.7512 114.622 Q96.3854 114.622 98.1909 111.08 Q100.02 107.516 100.02 100.409 Q100.02 93.2795 98.1909 89.7378 Q96.3854 86.173 92.7512 86.173 M92.7512 82.4694 Q98.5613 82.4694 101.617 87.0758 Q104.696 91.6591 104.696 100.409 Q104.696 109.136 101.617 113.742 Q98.5613 118.326 92.7512 118.326 Q86.941 118.326 83.8623 113.742 Q80.8068 109.136 80.8068 100.409 Q80.8068 91.6591 83.8623 87.0758 Q86.941 82.4694 92.7512 82.4694 Z" fill="#000000" fill-rule="evenodd" fill-opacity="1" /><polyline clip-path="url(#clip702)" style="stroke:#009af9; stroke-linecap:round; stroke-linejoin:round; stroke-width:4; stroke-opacity:1; fill:none" points="
  203.301,1254.24 255.472,1445.72 307.643,1383.76 359.815,1319.91 411.986,1255.31 464.157,1201.38 725.013,969.833 985.87,756.659 1246.73,470.57 1507.58,220.543 
  1768.44,87.9763 2029.29,373.896 2290.15,523.443 
  "/>
</svg>
