<?xml version="1.0" encoding="utf-8"?>
<svg xmlns="http://www.w3.org/2000/svg" xmlns:xlink="http://www.w3.org/1999/xlink" width="600" height="400" viewBox="0 0 2400 1600">
<defs>
  <clipPath id="clip430">
    <rect x="0" y="0" width="2400" height="1600"/>
  </clipPath>
</defs>
<path clip-path="url(#clip430)" d="
M0 1600 L2400 1600 L2400 0 L0 0  Z
  " fill="#ffffff" fill-rule="evenodd" fill-opacity="1"/>
<defs>
  <clipPath id="clip431">
    <rect x="480" y="0" width="1681" height="1600"/>
  </clipPath>
</defs>
<path clip-path="url(#clip430)" d="
M178.867 1486.45 L2352.76 1486.45 L2352.76 47.2441 L178.867 47.2441  Z
  " fill="#ffffff" fill-rule="evenodd" fill-opacity="1"/>
<defs>
  <clipPath id="clip432">
    <rect x="178" y="47" width="2175" height="1440"/>
  </clipPath>
</defs>
<polyline clip-path="url(#clip432)" style="stroke:#000000; stroke-linecap:round; stroke-linejoin:round; stroke-width:2; stroke-opacity:0.1; fill:none" points="
  240.392,1486.45 240.392,47.2441 
  "/>
<polyline clip-path="url(#clip432)" style="stroke:#000000; stroke-linecap:round; stroke-linejoin:round; stroke-width:2; stroke-opacity:0.1; fill:none" points="
  798.773,1486.45 798.773,47.2441 
  "/>
<polyline clip-path="url(#clip432)" style="stroke:#000000; stroke-linecap:round; stroke-linejoin:round; stroke-width:2; stroke-opacity:0.1; fill:none" points="
  1357.15,1486.45 1357.15,47.2441 
  "/>
<polyline clip-path="url(#clip432)" style="stroke:#000000; stroke-linecap:round; stroke-linejoin:round; stroke-width:2; stroke-opacity:0.1; fill:none" points="
  1915.54,1486.45 1915.54,47.2441 
  "/>
<polyline clip-path="url(#clip430)" style="stroke:#000000; stroke-linecap:round; stroke-linejoin:round; stroke-width:4; stroke-opacity:1; fill:none" points="
  178.867,1486.45 2352.76,1486.45 
  "/>
<polyline clip-path="url(#clip430)" style="stroke:#000000; stroke-linecap:round; stroke-linejoin:round; stroke-width:4; stroke-opacity:1; fill:none" points="
  240.392,1486.45 240.392,1467.55 
  "/>
<polyline clip-path="url(#clip430)" style="stroke:#000000; stroke-linecap:round; stroke-linejoin:round; stroke-width:4; stroke-opacity:1; fill:none" points="
  798.773,1486.45 798.773,1467.55 
  "/>
<polyline clip-path="url(#clip430)" style="stroke:#000000; stroke-linecap:round; stroke-linejoin:round; stroke-width:4; stroke-opacity:1; fill:none" points="
  1357.15,1486.45 1357.15,1467.55 
  "/>
<polyline clip-path="url(#clip430)" style="stroke:#000000; stroke-linecap:round; stroke-linejoin:round; stroke-width:4; stroke-opacity:1; fill:none" points="
  1915.54,1486.45 1915.54,1467.55 
  "/>
<path clip-path="url(#clip430)" d="M217.776 1517.37 Q214.165 1517.37 212.336 1520.93 Q210.531 1524.47 210.531 1531.6 Q210.531 1538.71 212.336 1542.27 Q214.165 1545.82 217.776 1545.82 Q221.41 1545.82 223.216 1542.27 Q225.045 1538.71 225.045 1531.6 Q225.045 1524.47 223.216 1520.93 Q221.41 1517.37 217.776 1517.37 M217.776 1513.66 Q223.586 1513.66 226.642 1518.27 Q229.721 1522.85 229.721 1531.6 Q229.721 1540.33 226.642 1544.94 Q223.586 1549.52 217.776 1549.52 Q211.966 1549.52 208.887 1544.94 Q205.832 1540.33 205.832 1531.6 Q205.832 1522.85 208.887 1518.27 Q211.966 1513.66 217.776 1513.66 Z" fill="#000000" fill-rule="evenodd" fill-opacity="1" /><path clip-path="url(#clip430)" d="M237.938 1542.97 L242.822 1542.97 L242.822 1548.85 L237.938 1548.85 L237.938 1542.97 Z" fill="#000000" fill-rule="evenodd" fill-opacity="1" /><path clip-path="url(#clip430)" d="M263.007 1517.37 Q259.396 1517.37 257.568 1520.93 Q255.762 1524.47 255.762 1531.6 Q255.762 1538.71 257.568 1542.27 Q259.396 1545.82 263.007 1545.82 Q266.642 1545.82 268.447 1542.27 Q270.276 1538.71 270.276 1531.6 Q270.276 1524.47 268.447 1520.93 Q266.642 1517.37 263.007 1517.37 M263.007 1513.66 Q268.818 1513.66 271.873 1518.27 Q274.952 1522.85 274.952 1531.6 Q274.952 1540.33 271.873 1544.94 Q268.818 1549.52 263.007 1549.52 Q257.197 1549.52 254.119 1544.94 Q251.063 1540.33 251.063 1531.6 Q251.063 1522.85 254.119 1518.27 Q257.197 1513.66 263.007 1513.66 Z" fill="#000000" fill-rule="evenodd" fill-opacity="1" /><path clip-path="url(#clip430)" d="M776.655 1517.37 Q773.044 1517.37 771.215 1520.93 Q769.41 1524.47 769.41 1531.6 Q769.41 1538.71 771.215 1542.27 Q773.044 1545.82 776.655 1545.82 Q780.289 1545.82 782.095 1542.27 Q783.923 1538.71 783.923 1531.6 Q783.923 1524.47 782.095 1520.93 Q780.289 1517.37 776.655 1517.37 M776.655 1513.66 Q782.465 1513.66 785.521 1518.27 Q788.599 1522.85 788.599 1531.6 Q788.599 1540.33 785.521 1544.94 Q782.465 1549.52 776.655 1549.52 Q770.845 1549.52 767.766 1544.94 Q764.711 1540.33 764.711 1531.6 Q764.711 1522.85 767.766 1518.27 Q770.845 1513.66 776.655 1513.66 Z" fill="#000000" fill-rule="evenodd" fill-opacity="1" /><path clip-path="url(#clip430)" d="M796.817 1542.97 L801.701 1542.97 L801.701 1548.85 L796.817 1548.85 L796.817 1542.97 Z" fill="#000000" fill-rule="evenodd" fill-opacity="1" /><path clip-path="url(#clip430)" d="M811.933 1514.29 L830.289 1514.29 L830.289 1518.22 L816.215 1518.22 L816.215 1526.7 Q817.233 1526.35 818.252 1526.19 Q819.27 1526 820.289 1526 Q826.076 1526 829.456 1529.17 Q832.835 1532.34 832.835 1537.76 Q832.835 1543.34 829.363 1546.44 Q825.891 1549.52 819.571 1549.52 Q817.395 1549.52 815.127 1549.15 Q812.882 1548.78 810.474 1548.04 L810.474 1543.34 Q812.558 1544.47 814.78 1545.03 Q817.002 1545.58 819.479 1545.58 Q823.483 1545.58 825.821 1543.48 Q828.159 1541.37 828.159 1537.76 Q828.159 1534.15 825.821 1532.04 Q823.483 1529.94 819.479 1529.94 Q817.604 1529.94 815.729 1530.35 Q813.877 1530.77 811.933 1531.65 L811.933 1514.29 Z" fill="#000000" fill-rule="evenodd" fill-opacity="1" /><path clip-path="url(#clip430)" d="M1324.31 1544.91 L1331.95 1544.91 L1331.95 1518.55 L1323.64 1520.21 L1323.64 1515.95 L1331.9 1514.29 L1336.58 1514.29 L1336.58 1544.91 L1344.21 1544.91 L1344.21 1548.85 L1324.31 1548.85 L1324.31 1544.91 Z" fill="#000000" fill-rule="evenodd" fill-opacity="1" /><path clip-path="url(#clip430)" d="M1353.66 1542.97 L1358.54 1542.97 L1358.54 1548.85 L1353.66 1548.85 L1353.66 1542.97 Z" fill="#000000" fill-rule="evenodd" fill-opacity="1" /><path clip-path="url(#clip430)" d="M1378.73 1517.37 Q1375.12 1517.37 1373.29 1520.93 Q1371.48 1524.47 1371.48 1531.6 Q1371.48 1538.71 1373.29 1542.27 Q1375.12 1545.82 1378.73 1545.82 Q1382.36 1545.82 1384.17 1542.27 Q1386 1538.71 1386 1531.6 Q1386 1524.47 1384.17 1520.93 Q1382.36 1517.37 1378.73 1517.37 M1378.73 1513.66 Q1384.54 1513.66 1387.59 1518.27 Q1390.67 1522.85 1390.67 1531.6 Q1390.67 1540.33 1387.59 1544.94 Q1384.54 1549.52 1378.73 1549.52 Q1372.92 1549.52 1369.84 1544.94 Q1366.78 1540.33 1366.78 1531.6 Q1366.78 1522.85 1369.84 1518.27 Q1372.92 1513.66 1378.73 1513.66 Z" fill="#000000" fill-rule="evenodd" fill-opacity="1" /><path clip-path="url(#clip430)" d="M1883.19 1544.91 L1890.82 1544.91 L1890.82 1518.55 L1882.51 1520.21 L1882.51 1515.95 L1890.78 1514.29 L1895.45 1514.29 L1895.45 1544.91 L1903.09 1544.91 L1903.09 1548.85 L1883.19 1548.85 L1883.19 1544.91 Z" fill="#000000" fill-rule="evenodd" fill-opacity="1" /><path clip-path="url(#clip430)" d="M1912.54 1542.97 L1917.42 1542.97 L1917.42 1548.85 L1912.54 1548.85 L1912.54 1542.97 Z" fill="#000000" fill-rule="evenodd" fill-opacity="1" /><path clip-path="url(#clip430)" d="M1927.65 1514.29 L1946.01 1514.29 L1946.01 1518.22 L1931.94 1518.22 L1931.94 1526.7 Q1932.95 1526.35 1933.97 1526.19 Q1934.99 1526 1936.01 1526 Q1941.8 1526 1945.18 1529.17 Q1948.56 1532.34 1948.56 1537.76 Q1948.56 1543.34 1945.08 1546.44 Q1941.61 1549.52 1935.29 1549.52 Q1933.12 1549.52 1930.85 1549.15 Q1928.6 1548.78 1926.19 1548.04 L1926.19 1543.34 Q1928.28 1544.47 1930.5 1545.03 Q1932.72 1545.58 1935.2 1545.58 Q1939.2 1545.58 1941.54 1543.48 Q1943.88 1541.37 1943.88 1537.76 Q1943.88 1534.15 1941.54 1532.04 Q1939.2 1529.94 1935.2 1529.94 Q1933.32 1529.94 1931.45 1530.35 Q1929.6 1530.77 1927.65 1531.65 L1927.65 1514.29 Z" fill="#000000" fill-rule="evenodd" fill-opacity="1" /><polyline clip-path="url(#clip432)" style="stroke:#000000; stroke-linecap:round; stroke-linejoin:round; stroke-width:2; stroke-opacity:0.1; fill:none" points="
  178.867,1375.61 2352.76,1375.61 
  "/>
<polyline clip-path="url(#clip432)" style="stroke:#000000; stroke-linecap:round; stroke-linejoin:round; stroke-width:2; stroke-opacity:0.1; fill:none" points="
  178.867,1056.15 2352.76,1056.15 
  "/>
<polyline clip-path="url(#clip432)" style="stroke:#000000; stroke-linecap:round; stroke-linejoin:round; stroke-width:2; stroke-opacity:0.1; fill:none" points="
  178.867,736.69 2352.76,736.69 
  "/>
<polyline clip-path="url(#clip432)" style="stroke:#000000; stroke-linecap:round; stroke-linejoin:round; stroke-width:2; stroke-opacity:0.1; fill:none" points="
  178.867,417.232 2352.76,417.232 
  "/>
<polyline clip-path="url(#clip432)" style="stroke:#000000; stroke-linecap:round; stroke-linejoin:round; stroke-width:2; stroke-opacity:0.1; fill:none" points="
  178.867,97.774 2352.76,97.774 
  "/>
<polyline clip-path="url(#clip430)" style="stroke:#000000; stroke-linecap:round; stroke-linejoin:round; stroke-width:4; stroke-opacity:1; fill:none" points="
  178.867,1486.45 178.867,47.2441 
  "/>
<polyline clip-path="url(#clip430)" style="stroke:#000000; stroke-linecap:round; stroke-linejoin:round; stroke-width:4; stroke-opacity:1; fill:none" points="
  178.867,1375.61 197.764,1375.61 
  "/>
<polyline clip-path="url(#clip430)" style="stroke:#000000; stroke-linecap:round; stroke-linejoin:round; stroke-width:4; stroke-opacity:1; fill:none" points="
  178.867,1056.15 197.764,1056.15 
  "/>
<polyline clip-path="url(#clip430)" style="stroke:#000000; stroke-linecap:round; stroke-linejoin:round; stroke-width:4; stroke-opacity:1; fill:none" points="
  178.867,736.69 197.764,736.69 
  "/>
<polyline clip-path="url(#clip430)" style="stroke:#000000; stroke-linecap:round; stroke-linejoin:round; stroke-width:4; stroke-opacity:1; fill:none" points="
  178.867,417.232 197.764,417.232 
  "/>
<polyline clip-path="url(#clip430)" style="stroke:#000000; stroke-linecap:round; stroke-linejoin:round; stroke-width:4; stroke-opacity:1; fill:none" points="
  178.867,97.774 197.764,97.774 
  "/>
<path clip-path="url(#clip430)" d="M51.9875 1376.06 L81.6633 1376.06 L81.6633 1379.99 L51.9875 1379.99 L51.9875 1376.06 Z" fill="#000000" fill-rule="evenodd" fill-opacity="1" /><path clip-path="url(#clip430)" d="M92.566 1388.95 L100.205 1388.95 L100.205 1362.58 L91.8947 1364.25 L91.8947 1359.99 L100.159 1358.33 L104.834 1358.33 L104.834 1388.95 L112.473 1388.95 L112.473 1392.89 L92.566 1392.89 L92.566 1388.95 Z" fill="#000000" fill-rule="evenodd" fill-opacity="1" /><path clip-path="url(#clip430)" d="M121.964 1358.33 L140.32 1358.33 L140.32 1362.26 L126.246 1362.26 L126.246 1370.73 Q127.265 1370.39 128.283 1370.22 Q129.302 1370.04 130.32 1370.04 Q136.107 1370.04 139.487 1373.21 Q142.867 1376.38 142.867 1381.8 Q142.867 1387.38 139.394 1390.48 Q135.922 1393.56 129.603 1393.56 Q127.427 1393.56 125.158 1393.19 Q122.913 1392.82 120.506 1392.07 L120.506 1387.38 Q122.589 1388.51 124.811 1389.07 Q127.033 1389.62 129.51 1389.62 Q133.515 1389.62 135.853 1387.51 Q138.191 1385.41 138.191 1381.8 Q138.191 1378.19 135.853 1376.08 Q133.515 1373.97 129.51 1373.97 Q127.635 1373.97 125.76 1374.39 Q123.908 1374.81 121.964 1375.69 L121.964 1358.33 Z" fill="#000000" fill-rule="evenodd" fill-opacity="1" /><path clip-path="url(#clip430)" d="M50.9921 1056.6 L80.6679 1056.6 L80.6679 1060.53 L50.9921 1060.53 L50.9921 1056.6 Z" fill="#000000" fill-rule="evenodd" fill-opacity="1" /><path clip-path="url(#clip430)" d="M91.5706 1069.49 L99.2095 1069.49 L99.2095 1043.13 L90.8993 1044.79 L90.8993 1040.53 L99.1632 1038.87 L103.839 1038.87 L103.839 1069.49 L111.478 1069.49 L111.478 1073.43 L91.5706 1073.43 L91.5706 1069.49 Z" fill="#000000" fill-rule="evenodd" fill-opacity="1" /><path clip-path="url(#clip430)" d="M130.922 1041.95 Q127.311 1041.95 125.482 1045.51 Q123.677 1049.05 123.677 1056.18 Q123.677 1063.29 125.482 1066.85 Q127.311 1070.39 130.922 1070.39 Q134.556 1070.39 136.362 1066.85 Q138.191 1063.29 138.191 1056.18 Q138.191 1049.05 136.362 1045.51 Q134.556 1041.95 130.922 1041.95 M130.922 1038.24 Q136.732 1038.24 139.788 1042.85 Q142.867 1047.43 142.867 1056.18 Q142.867 1064.91 139.788 1069.52 Q136.732 1074.1 130.922 1074.1 Q125.112 1074.1 122.033 1069.52 Q118.978 1064.91 118.978 1056.18 Q118.978 1047.43 122.033 1042.85 Q125.112 1038.24 130.922 1038.24 Z" fill="#000000" fill-rule="evenodd" fill-opacity="1" /><path clip-path="url(#clip430)" d="M82.1494 737.141 L111.825 737.141 L111.825 741.076 L82.1494 741.076 L82.1494 737.141 Z" fill="#000000" fill-rule="evenodd" fill-opacity="1" /><path clip-path="url(#clip430)" d="M121.964 719.41 L140.32 719.41 L140.32 723.345 L126.246 723.345 L126.246 731.817 Q127.265 731.47 128.283 731.308 Q129.302 731.122 130.32 731.122 Q136.107 731.122 139.487 734.294 Q142.867 737.465 142.867 742.882 Q142.867 748.46 139.394 751.562 Q135.922 754.641 129.603 754.641 Q127.427 754.641 125.158 754.27 Q122.913 753.9 120.506 753.159 L120.506 748.46 Q122.589 749.595 124.811 750.15 Q127.033 750.706 129.51 750.706 Q133.515 750.706 135.853 748.599 Q138.191 746.493 138.191 742.882 Q138.191 739.271 135.853 737.164 Q133.515 735.058 129.51 735.058 Q127.635 735.058 125.76 735.474 Q123.908 735.891 121.964 736.771 L121.964 719.41 Z" fill="#000000" fill-rule="evenodd" fill-opacity="1" /><path clip-path="url(#clip430)" d="M130.922 403.03 Q127.311 403.03 125.482 406.595 Q123.677 410.137 123.677 417.266 Q123.677 424.373 125.482 427.938 Q127.311 431.479 130.922 431.479 Q134.556 431.479 136.362 427.938 Q138.191 424.373 138.191 417.266 Q138.191 410.137 136.362 406.595 Q134.556 403.03 130.922 403.03 M130.922 399.327 Q136.732 399.327 139.788 403.933 Q142.867 408.517 142.867 417.266 Q142.867 425.993 139.788 430.6 Q136.732 435.183 130.922 435.183 Q125.112 435.183 122.033 430.6 Q118.978 425.993 118.978 417.266 Q118.978 408.517 122.033 403.933 Q125.112 399.327 130.922 399.327 Z" fill="#000000" fill-rule="evenodd" fill-opacity="1" /><path clip-path="url(#clip430)" d="M121.964 80.494 L140.32 80.494 L140.32 84.4291 L126.246 84.4291 L126.246 92.9013 Q127.265 92.5541 128.283 92.3921 Q129.302 92.2069 130.32 92.2069 Q136.107 92.2069 139.487 95.3781 Q142.867 98.5494 142.867 103.966 Q142.867 109.545 139.394 112.647 Q135.922 115.725 129.603 115.725 Q127.427 115.725 125.158 115.355 Q122.913 114.985 120.506 114.244 L120.506 109.545 Q122.589 110.679 124.811 111.235 Q127.033 111.79 129.51 111.79 Q133.515 111.79 135.853 109.684 Q138.191 107.577 138.191 103.966 Q138.191 100.355 135.853 98.2485 Q133.515 96.142 129.51 96.142 Q127.635 96.142 125.76 96.5587 Q123.908 96.9754 121.964 97.855 L121.964 80.494 Z" fill="#000000" fill-rule="evenodd" fill-opacity="1" /><polyline clip-path="url(#clip432)" style="stroke:#009af9; stroke-linecap:round; stroke-linejoin:round; stroke-width:4; stroke-opacity:1; fill:none" points="
  240.392,87.9763 445.476,378.87 650.56,671.074 855.643,1075.02 1060.73,1445.72 1265.81,1367.53 1470.9,1336.54 1675.98,1022.82 1881.06,769.505 2086.15,529.431 
  2291.23,415.962 
  "/>
</svg>
