<?xml version="1.0" encoding="utf-8"?>
<svg xmlns="http://www.w3.org/2000/svg" xmlns:xlink="http://www.w3.org/1999/xlink" width="600" height="400" viewBox="0 0 2400 1600">
<defs>
  <clipPath id="clip780">
    <rect x="0" y="0" width="2400" height="1600"/>
  </clipPath>
</defs>
<path clip-path="url(#clip780)" d="
M0 1600 L2400 1600 L2400 0 L0 0  Z
  " fill="#ffffff" fill-rule="evenodd" fill-opacity="1"/>
<defs>
  <clipPath id="clip781">
    <rect x="480" y="0" width="1681" height="1600"/>
  </clipPath>
</defs>
<path clip-path="url(#clip780)" d="
M344.606 1486.45 L2352.76 1486.45 L2352.76 47.2441 L344.606 47.2441  Z
  " fill="#ffffff" fill-rule="evenodd" fill-opacity="1"/>
<defs>
  <clipPath id="clip782">
    <rect x="344" y="47" width="2009" height="1440"/>
  </clipPath>
</defs>
<polyline clip-path="url(#clip782)" style="stroke:#000000; stroke-linecap:round; stroke-linejoin:round; stroke-width:2; stroke-opacity:0.1; fill:none" points="
  401.441,1486.45 401.441,47.2441 
  "/>
<polyline clip-path="url(#clip782)" style="stroke:#000000; stroke-linecap:round; stroke-linejoin:round; stroke-width:2; stroke-opacity:0.1; fill:none" points="
  917.25,1486.45 917.25,47.2441 
  "/>
<polyline clip-path="url(#clip782)" style="stroke:#000000; stroke-linecap:round; stroke-linejoin:round; stroke-width:2; stroke-opacity:0.1; fill:none" points="
  1433.06,1486.45 1433.06,47.2441 
  "/>
<polyline clip-path="url(#clip782)" style="stroke:#000000; stroke-linecap:round; stroke-linejoin:round; stroke-width:2; stroke-opacity:0.1; fill:none" points="
  1948.87,1486.45 1948.87,47.2441 
  "/>
<polyline clip-path="url(#clip780)" style="stroke:#000000; stroke-linecap:round; stroke-linejoin:round; stroke-width:4; stroke-opacity:1; fill:none" points="
  344.606,1486.45 2352.76,1486.45 
  "/>
<polyline clip-path="url(#clip780)" style="stroke:#000000; stroke-linecap:round; stroke-linejoin:round; stroke-width:4; stroke-opacity:1; fill:none" points="
  401.441,1486.45 401.441,1467.55 
  "/>
<polyline clip-path="url(#clip780)" style="stroke:#000000; stroke-linecap:round; stroke-linejoin:round; stroke-width:4; stroke-opacity:1; fill:none" points="
  917.25,1486.45 917.25,1467.55 
  "/>
<polyline clip-path="url(#clip780)" style="stroke:#000000; stroke-linecap:round; stroke-linejoin:round; stroke-width:4; stroke-opacity:1; fill:none" points="
  1433.06,1486.45 1433.06,1467.55 
  "/>
<polyline clip-path="url(#clip780)" style="stroke:#000000; stroke-linecap:round; stroke-linejoin:round; stroke-width:4; stroke-opacity:1; fill:none" points="
  1948.87,1486.45 1948.87,1467.55 
  "/>
<path clip-path="url(#clip780)" d="M401.441 1517.37 Q397.83 1517.37 396.001 1520.93 Q394.196 1524.47 394.196 1531.6 Q394.196 1538.71 396.001 1542.27 Q397.83 1545.82 401.441 1545.82 Q405.075 1545.82 406.881 1542.27 Q408.709 1538.71 408.709 1531.6 Q408.709 1524.47 406.881 1520.93 Q405.075 1517.37 401.441 1517.37 M401.441 1513.66 Q407.251 1513.66 410.307 1518.27 Q413.385 1522.85 413.385 1531.6 Q413.385 1540.33 410.307 1544.94 Q407.251 1549.52 401.441 1549.52 Q395.631 1549.52 392.552 1544.94 Q389.497 1540.33 389.497 1531.6 Q389.497 1522.85 392.552 1518.27 Q395.631 1513.66 401.441 1513.66 Z" fill="#000000" fill-rule="evenodd" fill-opacity="1" /><path clip-path="url(#clip780)" d="M907.632 1544.91 L915.271 1544.91 L915.271 1518.55 L906.961 1520.21 L906.961 1515.95 L915.225 1514.29 L919.901 1514.29 L919.901 1544.91 L927.54 1544.91 L927.54 1548.85 L907.632 1548.85 L907.632 1544.91 Z" fill="#000000" fill-rule="evenodd" fill-opacity="1" /><path clip-path="url(#clip780)" d="M1427.71 1544.91 L1444.03 1544.91 L1444.03 1548.85 L1422.09 1548.85 L1422.09 1544.91 Q1424.75 1542.16 1429.33 1537.53 Q1433.94 1532.88 1435.12 1531.53 Q1437.37 1529.01 1438.24 1527.27 Q1439.15 1525.51 1439.15 1523.82 Q1439.15 1521.07 1437.2 1519.33 Q1435.28 1517.6 1432.18 1517.6 Q1429.98 1517.6 1427.53 1518.36 Q1425.1 1519.13 1422.32 1520.68 L1422.32 1515.95 Q1425.14 1514.82 1427.6 1514.24 Q1430.05 1513.66 1432.09 1513.66 Q1437.46 1513.66 1440.65 1516.35 Q1443.85 1519.03 1443.85 1523.52 Q1443.85 1525.65 1443.04 1527.57 Q1442.25 1529.47 1440.14 1532.07 Q1439.56 1532.74 1436.46 1535.95 Q1433.36 1539.15 1427.71 1544.91 Z" fill="#000000" fill-rule="evenodd" fill-opacity="1" /><path clip-path="url(#clip780)" d="M1953.12 1530.21 Q1956.47 1530.93 1958.35 1533.2 Q1960.25 1535.47 1960.25 1538.8 Q1960.25 1543.92 1956.73 1546.72 Q1953.21 1549.52 1946.73 1549.52 Q1944.55 1549.52 1942.24 1549.08 Q1939.95 1548.66 1937.49 1547.81 L1937.49 1543.29 Q1939.44 1544.43 1941.75 1545.01 Q1944.07 1545.58 1946.59 1545.58 Q1950.99 1545.58 1953.28 1543.85 Q1955.59 1542.11 1955.59 1538.8 Q1955.59 1535.75 1953.44 1534.03 Q1951.31 1532.3 1947.49 1532.3 L1943.46 1532.3 L1943.46 1528.45 L1947.68 1528.45 Q1951.13 1528.45 1952.95 1527.09 Q1954.78 1525.7 1954.78 1523.11 Q1954.78 1520.45 1952.89 1519.03 Q1951.01 1517.6 1947.49 1517.6 Q1945.57 1517.6 1943.37 1518.01 Q1941.17 1518.43 1938.53 1519.31 L1938.53 1515.14 Q1941.2 1514.4 1943.51 1514.03 Q1945.85 1513.66 1947.91 1513.66 Q1953.23 1513.66 1956.33 1516.09 Q1959.44 1518.5 1959.44 1522.62 Q1959.44 1525.49 1957.79 1527.48 Q1956.15 1529.45 1953.12 1530.21 Z" fill="#000000" fill-rule="evenodd" fill-opacity="1" /><polyline clip-path="url(#clip782)" style="stroke:#000000; stroke-linecap:round; stroke-linejoin:round; stroke-width:2; stroke-opacity:0.1; fill:none" points="
  344.606,1310.43 2352.76,1310.43 
  "/>
<polyline clip-path="url(#clip782)" style="stroke:#000000; stroke-linecap:round; stroke-linejoin:round; stroke-width:2; stroke-opacity:0.1; fill:none" points="
  344.606,1039.22 2352.76,1039.22 
  "/>
<polyline clip-path="url(#clip782)" style="stroke:#000000; stroke-linecap:round; stroke-linejoin:round; stroke-width:2; stroke-opacity:0.1; fill:none" points="
  344.606,768.001 2352.76,768.001 
  "/>
<polyline clip-path="url(#clip782)" style="stroke:#000000; stroke-linecap:round; stroke-linejoin:round; stroke-width:2; stroke-opacity:0.1; fill:none" points="
  344.606,496.786 2352.76,496.786 
  "/>
<polyline clip-path="url(#clip782)" style="stroke:#000000; stroke-linecap:round; stroke-linejoin:round; stroke-width:2; stroke-opacity:0.1; fill:none" points="
  344.606,225.571 2352.76,225.571 
  "/>
<polyline clip-path="url(#clip780)" style="stroke:#000000; stroke-linecap:round; stroke-linejoin:round; stroke-width:4; stroke-opacity:1; fill:none" points="
  344.606,1486.45 344.606,47.2441 
  "/>
<polyline clip-path="url(#clip780)" style="stroke:#000000; stroke-linecap:round; stroke-linejoin:round; stroke-width:4; stroke-opacity:1; fill:none" points="
  344.606,1310.43 363.504,1310.43 
  "/>
<polyline clip-path="url(#clip780)" style="stroke:#000000; stroke-linecap:round; stroke-linejoin:round; stroke-width:4; stroke-opacity:1; fill:none" points="
  344.606,1039.22 363.504,1039.22 
  "/>
<polyline clip-path="url(#clip780)" style="stroke:#000000; stroke-linecap:round; stroke-linejoin:round; stroke-width:4; stroke-opacity:1; fill:none" points="
  344.606,768.001 363.504,768.001 
  "/>
<polyline clip-path="url(#clip780)" style="stroke:#000000; stroke-linecap:round; stroke-linejoin:round; stroke-width:4; stroke-opacity:1; fill:none" points="
  344.606,496.786 363.504,496.786 
  "/>
<polyline clip-path="url(#clip780)" style="stroke:#000000; stroke-linecap:round; stroke-linejoin:round; stroke-width:4; stroke-opacity:1; fill:none" points="
  344.606,225.571 363.504,225.571 
  "/>
<path clip-path="url(#clip780)" d="M50.9921 1317.33 L80.6679 1317.33 L80.6679 1321.26 L50.9921 1321.26 L50.9921 1317.33 Z" fill="#000000" fill-rule="evenodd" fill-opacity="1" /><path clip-path="url(#clip780)" d="M94.7882 1330.22 L111.108 1330.22 L111.108 1334.16 L89.1632 1334.16 L89.1632 1330.22 Q91.8252 1327.47 96.4085 1322.84 Q101.015 1318.19 102.196 1316.84 Q104.441 1314.32 105.321 1312.58 Q106.223 1310.82 106.223 1309.13 Q106.223 1306.38 104.279 1304.64 Q102.358 1302.91 99.2558 1302.91 Q97.0567 1302.91 94.603 1303.67 Q92.1725 1304.44 89.3947 1305.99 L89.3947 1301.26 Q92.2188 1300.13 94.6724 1299.55 Q97.1261 1298.97 99.1632 1298.97 Q104.534 1298.97 107.728 1301.66 Q110.922 1304.34 110.922 1308.83 Q110.922 1310.96 110.112 1312.88 Q109.325 1314.78 107.219 1317.38 Q106.64 1318.05 103.538 1321.26 Q100.436 1324.46 94.7882 1330.22 Z" fill="#000000" fill-rule="evenodd" fill-opacity="1" /><path clip-path="url(#clip780)" d="M120.922 1328.28 L125.807 1328.28 L125.807 1334.16 L120.922 1334.16 L120.922 1328.28 Z" fill="#000000" fill-rule="evenodd" fill-opacity="1" /><path clip-path="url(#clip780)" d="M145.992 1302.68 Q142.381 1302.68 140.552 1306.24 Q138.746 1309.78 138.746 1316.91 Q138.746 1324.02 140.552 1327.58 Q142.381 1331.13 145.992 1331.13 Q149.626 1331.13 151.431 1327.58 Q153.26 1324.02 153.26 1316.91 Q153.26 1309.78 151.431 1306.24 Q149.626 1302.68 145.992 1302.68 M145.992 1298.97 Q151.802 1298.97 154.857 1303.58 Q157.936 1308.16 157.936 1316.91 Q157.936 1325.64 154.857 1330.25 Q151.802 1334.83 145.992 1334.83 Q140.181 1334.83 137.103 1330.25 Q134.047 1325.64 134.047 1316.91 Q134.047 1308.16 137.103 1303.58 Q140.181 1298.97 145.992 1298.97 Z" fill="#000000" fill-rule="evenodd" fill-opacity="1" /><path clip-path="url(#clip780)" d="M176.153 1302.68 Q172.542 1302.68 170.714 1306.24 Q168.908 1309.78 168.908 1316.91 Q168.908 1324.02 170.714 1327.58 Q172.542 1331.13 176.153 1331.13 Q179.788 1331.13 181.593 1327.58 Q183.422 1324.02 183.422 1316.91 Q183.422 1309.78 181.593 1306.24 Q179.788 1302.68 176.153 1302.68 M176.153 1298.97 Q181.964 1298.97 185.019 1303.58 Q188.098 1308.16 188.098 1316.91 Q188.098 1325.64 185.019 1330.25 Q181.964 1334.83 176.153 1334.83 Q170.343 1334.83 167.265 1330.25 Q164.209 1325.64 164.209 1316.91 Q164.209 1308.16 167.265 1303.58 Q170.343 1298.97 176.153 1298.97 Z" fill="#000000" fill-rule="evenodd" fill-opacity="1" /><path clip-path="url(#clip780)" d="M224.487 1308.69 L213.908 1319.32 L224.487 1329.9 L221.732 1332.7 L211.107 1322.07 L200.482 1332.7 L197.751 1329.9 L208.306 1319.32 L197.751 1308.69 L200.482 1305.89 L211.107 1316.52 L221.732 1305.89 L224.487 1308.69 Z" fill="#000000" fill-rule="evenodd" fill-opacity="1" /><path clip-path="url(#clip780)" d="M236.848 1330.22 L244.486 1330.22 L244.486 1303.86 L236.176 1305.52 L236.176 1301.26 L244.44 1299.6 L249.116 1299.6 L249.116 1330.22 L256.755 1330.22 L256.755 1334.16 L236.848 1334.16 L236.848 1330.22 Z" fill="#000000" fill-rule="evenodd" fill-opacity="1" /><path clip-path="url(#clip780)" d="M276.199 1302.68 Q272.588 1302.68 270.759 1306.24 Q268.954 1309.78 268.954 1316.91 Q268.954 1324.02 270.759 1327.58 Q272.588 1331.13 276.199 1331.13 Q279.833 1331.13 281.639 1327.58 Q283.468 1324.02 283.468 1316.91 Q283.468 1309.78 281.639 1306.24 Q279.833 1302.68 276.199 1302.68 M276.199 1298.97 Q282.009 1298.97 285.065 1303.58 Q288.144 1308.16 288.144 1316.91 Q288.144 1325.64 285.065 1330.25 Q282.009 1334.83 276.199 1334.83 Q270.389 1334.83 267.31 1330.25 Q264.255 1325.64 264.255 1316.91 Q264.255 1308.16 267.31 1303.58 Q270.389 1298.97 276.199 1298.97 Z" fill="#000000" fill-rule="evenodd" fill-opacity="1" /><path clip-path="url(#clip780)" d="M300.82 1281.98 L291.228 1296.97 L300.82 1296.97 L300.82 1281.98 M299.823 1278.67 L304.6 1278.67 L304.6 1296.97 L308.606 1296.97 L308.606 1300.13 L304.6 1300.13 L304.6 1306.75 L300.82 1306.75 L300.82 1300.13 L288.144 1300.13 L288.144 1296.46 L299.823 1278.67 Z" fill="#000000" fill-rule="evenodd" fill-opacity="1" /><path clip-path="url(#clip780)" d="M50.9921 1046.11 L80.6679 1046.11 L80.6679 1050.05 L50.9921 1050.05 L50.9921 1046.11 Z" fill="#000000" fill-rule="evenodd" fill-opacity="1" /><path clip-path="url(#clip780)" d="M91.5706 1059.01 L99.2095 1059.01 L99.2095 1032.64 L90.8993 1034.31 L90.8993 1030.05 L99.1632 1028.38 L103.839 1028.38 L103.839 1059.01 L111.478 1059.01 L111.478 1062.94 L91.5706 1062.94 L91.5706 1059.01 Z" fill="#000000" fill-rule="evenodd" fill-opacity="1" /><path clip-path="url(#clip780)" d="M120.922 1057.06 L125.807 1057.06 L125.807 1062.94 L120.922 1062.94 L120.922 1057.06 Z" fill="#000000" fill-rule="evenodd" fill-opacity="1" /><path clip-path="url(#clip780)" d="M136.038 1028.38 L154.394 1028.38 L154.394 1032.32 L140.32 1032.32 L140.32 1040.79 Q141.339 1040.44 142.357 1040.28 Q143.376 1040.1 144.394 1040.1 Q150.181 1040.1 153.561 1043.27 Q156.941 1046.44 156.941 1051.85 Q156.941 1057.43 153.468 1060.54 Q149.996 1063.61 143.677 1063.61 Q141.501 1063.61 139.232 1063.24 Q136.987 1062.87 134.58 1062.13 L134.58 1057.43 Q136.663 1058.57 138.885 1059.12 Q141.107 1059.68 143.584 1059.68 Q147.589 1059.68 149.927 1057.57 Q152.265 1055.47 152.265 1051.85 Q152.265 1048.24 149.927 1046.14 Q147.589 1044.03 143.584 1044.03 Q141.709 1044.03 139.834 1044.45 Q137.982 1044.86 136.038 1045.74 L136.038 1028.38 Z" fill="#000000" fill-rule="evenodd" fill-opacity="1" /><path clip-path="url(#clip780)" d="M176.153 1031.46 Q172.542 1031.46 170.714 1035.03 Q168.908 1038.57 168.908 1045.7 Q168.908 1052.8 170.714 1056.37 Q172.542 1059.91 176.153 1059.91 Q179.788 1059.91 181.593 1056.37 Q183.422 1052.8 183.422 1045.7 Q183.422 1038.57 181.593 1035.03 Q179.788 1031.46 176.153 1031.46 M176.153 1027.76 Q181.964 1027.76 185.019 1032.36 Q188.098 1036.95 188.098 1045.7 Q188.098 1054.42 185.019 1059.03 Q181.964 1063.61 176.153 1063.61 Q170.343 1063.61 167.265 1059.03 Q164.209 1054.42 164.209 1045.7 Q164.209 1036.95 167.265 1032.36 Q170.343 1027.76 176.153 1027.76 Z" fill="#000000" fill-rule="evenodd" fill-opacity="1" /><path clip-path="url(#clip780)" d="M224.487 1037.48 L213.908 1048.1 L224.487 1058.68 L221.732 1061.48 L211.107 1050.86 L200.482 1061.48 L197.751 1058.68 L208.306 1048.1 L197.751 1037.48 L200.482 1034.68 L211.107 1045.3 L221.732 1034.68 L224.487 1037.48 Z" fill="#000000" fill-rule="evenodd" fill-opacity="1" /><path clip-path="url(#clip780)" d="M236.848 1059.01 L244.486 1059.01 L244.486 1032.64 L236.176 1034.31 L236.176 1030.05 L244.44 1028.38 L249.116 1028.38 L249.116 1059.01 L256.755 1059.01 L256.755 1062.94 L236.848 1062.94 L236.848 1059.01 Z" fill="#000000" fill-rule="evenodd" fill-opacity="1" /><path clip-path="url(#clip780)" d="M276.199 1031.46 Q272.588 1031.46 270.759 1035.03 Q268.954 1038.57 268.954 1045.7 Q268.954 1052.8 270.759 1056.37 Q272.588 1059.91 276.199 1059.91 Q279.833 1059.91 281.639 1056.37 Q283.468 1052.8 283.468 1045.7 Q283.468 1038.57 281.639 1035.03 Q279.833 1031.46 276.199 1031.46 M276.199 1027.76 Q282.009 1027.76 285.065 1032.36 Q288.144 1036.95 288.144 1045.7 Q288.144 1054.42 285.065 1059.03 Q282.009 1063.61 276.199 1063.61 Q270.389 1063.61 267.31 1059.03 Q264.255 1054.42 264.255 1045.7 Q264.255 1036.95 267.31 1032.36 Q270.389 1027.76 276.199 1027.76 Z" fill="#000000" fill-rule="evenodd" fill-opacity="1" /><path clip-path="url(#clip780)" d="M300.82 1010.76 L291.228 1025.75 L300.82 1025.75 L300.82 1010.76 M299.823 1007.45 L304.6 1007.45 L304.6 1025.75 L308.606 1025.75 L308.606 1028.91 L304.6 1028.91 L304.6 1035.53 L300.82 1035.53 L300.82 1028.91 L288.144 1028.91 L288.144 1025.24 L299.823 1007.45 Z" fill="#000000" fill-rule="evenodd" fill-opacity="1" /><path clip-path="url(#clip780)" d="M50.9921 774.9 L80.6679 774.9 L80.6679 778.835 L50.9921 778.835 L50.9921 774.9 Z" fill="#000000" fill-rule="evenodd" fill-opacity="1" /><path clip-path="url(#clip780)" d="M91.5706 787.793 L99.2095 787.793 L99.2095 761.427 L90.8993 763.094 L90.8993 758.835 L99.1632 757.168 L103.839 757.168 L103.839 787.793 L111.478 787.793 L111.478 791.728 L91.5706 791.728 L91.5706 787.793 Z" fill="#000000" fill-rule="evenodd" fill-opacity="1" /><path clip-path="url(#clip780)" d="M120.922 785.849 L125.807 785.849 L125.807 791.728 L120.922 791.728 L120.922 785.849 Z" fill="#000000" fill-rule="evenodd" fill-opacity="1" /><path clip-path="url(#clip780)" d="M145.992 760.247 Q142.381 760.247 140.552 763.812 Q138.746 767.353 138.746 774.483 Q138.746 781.589 140.552 785.154 Q142.381 788.696 145.992 788.696 Q149.626 788.696 151.431 785.154 Q153.26 781.589 153.26 774.483 Q153.26 767.353 151.431 763.812 Q149.626 760.247 145.992 760.247 M145.992 756.543 Q151.802 756.543 154.857 761.15 Q157.936 765.733 157.936 774.483 Q157.936 783.21 154.857 787.816 Q151.802 792.399 145.992 792.399 Q140.181 792.399 137.103 787.816 Q134.047 783.21 134.047 774.483 Q134.047 765.733 137.103 761.15 Q140.181 756.543 145.992 756.543 Z" fill="#000000" fill-rule="evenodd" fill-opacity="1" /><path clip-path="url(#clip780)" d="M176.153 760.247 Q172.542 760.247 170.714 763.812 Q168.908 767.353 168.908 774.483 Q168.908 781.589 170.714 785.154 Q172.542 788.696 176.153 788.696 Q179.788 788.696 181.593 785.154 Q183.422 781.589 183.422 774.483 Q183.422 767.353 181.593 763.812 Q179.788 760.247 176.153 760.247 M176.153 756.543 Q181.964 756.543 185.019 761.15 Q188.098 765.733 188.098 774.483 Q188.098 783.21 185.019 787.816 Q181.964 792.399 176.153 792.399 Q170.343 792.399 167.265 787.816 Q164.209 783.21 164.209 774.483 Q164.209 765.733 167.265 761.15 Q170.343 756.543 176.153 756.543 Z" fill="#000000" fill-rule="evenodd" fill-opacity="1" /><path clip-path="url(#clip780)" d="M224.487 766.265 L213.908 776.89 L224.487 787.469 L221.732 790.27 L211.107 779.645 L200.482 790.27 L197.751 787.469 L208.306 776.89 L197.751 766.265 L200.482 763.464 L211.107 774.089 L221.732 763.464 L224.487 766.265 Z" fill="#000000" fill-rule="evenodd" fill-opacity="1" /><path clip-path="url(#clip780)" d="M236.848 787.793 L244.486 787.793 L244.486 761.427 L236.176 763.094 L236.176 758.835 L244.44 757.168 L249.116 757.168 L249.116 787.793 L256.755 787.793 L256.755 791.728 L236.848 791.728 L236.848 787.793 Z" fill="#000000" fill-rule="evenodd" fill-opacity="1" /><path clip-path="url(#clip780)" d="M276.199 760.247 Q272.588 760.247 270.759 763.812 Q268.954 767.353 268.954 774.483 Q268.954 781.589 270.759 785.154 Q272.588 788.696 276.199 788.696 Q279.833 788.696 281.639 785.154 Q283.468 781.589 283.468 774.483 Q283.468 767.353 281.639 763.812 Q279.833 760.247 276.199 760.247 M276.199 756.543 Q282.009 756.543 285.065 761.15 Q288.144 765.733 288.144 774.483 Q288.144 783.21 285.065 787.816 Q282.009 792.399 276.199 792.399 Q270.389 792.399 267.31 787.816 Q264.255 783.21 264.255 774.483 Q264.255 765.733 267.31 761.15 Q270.389 756.543 276.199 756.543 Z" fill="#000000" fill-rule="evenodd" fill-opacity="1" /><path clip-path="url(#clip780)" d="M300.82 739.548 L291.228 754.538 L300.82 754.538 L300.82 739.548 M299.823 736.238 L304.6 736.238 L304.6 754.538 L308.606 754.538 L308.606 757.697 L304.6 757.697 L304.6 764.318 L300.82 764.318 L300.82 757.697 L288.144 757.697 L288.144 754.03 L299.823 736.238 Z" fill="#000000" fill-rule="evenodd" fill-opacity="1" /><path clip-path="url(#clip780)" d="M52.9669 503.685 L82.6427 503.685 L82.6427 507.62 L52.9669 507.62 L52.9669 503.685 Z" fill="#000000" fill-rule="evenodd" fill-opacity="1" /><path clip-path="url(#clip780)" d="M92.7815 485.953 L111.138 485.953 L111.138 489.889 L97.0639 489.889 L97.0639 498.361 Q98.0824 498.014 99.101 497.852 Q100.119 497.666 101.138 497.666 Q106.925 497.666 110.305 500.838 Q113.684 504.009 113.684 509.426 Q113.684 515.004 110.212 518.106 Q106.74 521.185 100.42 521.185 Q98.2445 521.185 95.976 520.814 Q93.7306 520.444 91.3232 519.703 L91.3232 515.004 Q93.4065 516.138 95.6288 516.694 Q97.851 517.25 100.328 517.25 Q104.332 517.25 106.67 515.143 Q109.008 513.037 109.008 509.426 Q109.008 505.814 106.67 503.708 Q104.332 501.602 100.328 501.602 Q98.4528 501.602 96.5778 502.018 Q94.726 502.435 92.7815 503.314 L92.7815 485.953 Z" fill="#000000" fill-rule="evenodd" fill-opacity="1" /><path clip-path="url(#clip780)" d="M122.897 514.634 L127.781 514.634 L127.781 520.513 L122.897 520.513 L122.897 514.634 Z" fill="#000000" fill-rule="evenodd" fill-opacity="1" /><path clip-path="url(#clip780)" d="M147.966 489.032 Q144.355 489.032 142.527 492.597 Q140.721 496.139 140.721 503.268 Q140.721 510.375 142.527 513.939 Q144.355 517.481 147.966 517.481 Q151.601 517.481 153.406 513.939 Q155.235 510.375 155.235 503.268 Q155.235 496.139 153.406 492.597 Q151.601 489.032 147.966 489.032 M147.966 485.328 Q153.777 485.328 156.832 489.935 Q159.911 494.518 159.911 503.268 Q159.911 511.995 156.832 516.601 Q153.777 521.185 147.966 521.185 Q142.156 521.185 139.078 516.601 Q136.022 511.995 136.022 503.268 Q136.022 494.518 139.078 489.935 Q142.156 485.328 147.966 485.328 Z" fill="#000000" fill-rule="evenodd" fill-opacity="1" /><path clip-path="url(#clip780)" d="M178.128 489.032 Q174.517 489.032 172.689 492.597 Q170.883 496.139 170.883 503.268 Q170.883 510.375 172.689 513.939 Q174.517 517.481 178.128 517.481 Q181.763 517.481 183.568 513.939 Q185.397 510.375 185.397 503.268 Q185.397 496.139 183.568 492.597 Q181.763 489.032 178.128 489.032 M178.128 485.328 Q183.938 485.328 186.994 489.935 Q190.073 494.518 190.073 503.268 Q190.073 511.995 186.994 516.601 Q183.938 521.185 178.128 521.185 Q172.318 521.185 169.239 516.601 Q166.184 511.995 166.184 503.268 Q166.184 494.518 169.239 489.935 Q172.318 485.328 178.128 485.328 Z" fill="#000000" fill-rule="evenodd" fill-opacity="1" /><path clip-path="url(#clip780)" d="M226.461 495.051 L215.883 505.676 L226.461 516.254 L223.707 519.055 L213.082 508.43 L202.457 519.055 L199.725 516.254 L210.281 505.676 L199.725 495.051 L202.457 492.25 L213.082 502.875 L223.707 492.25 L226.461 495.051 Z" fill="#000000" fill-rule="evenodd" fill-opacity="1" /><path clip-path="url(#clip780)" d="M238.822 516.578 L246.461 516.578 L246.461 490.213 L238.151 491.879 L238.151 487.62 L246.415 485.953 L251.091 485.953 L251.091 516.578 L258.73 516.578 L258.73 520.513 L238.822 520.513 L238.822 516.578 Z" fill="#000000" fill-rule="evenodd" fill-opacity="1" /><path clip-path="url(#clip780)" d="M278.174 489.032 Q274.563 489.032 272.734 492.597 Q270.929 496.139 270.929 503.268 Q270.929 510.375 272.734 513.939 Q274.563 517.481 278.174 517.481 Q281.808 517.481 283.614 513.939 Q285.443 510.375 285.443 503.268 Q285.443 496.139 283.614 492.597 Q281.808 489.032 278.174 489.032 M278.174 485.328 Q283.984 485.328 287.04 489.935 Q290.118 494.518 290.118 503.268 Q290.118 511.995 287.04 516.601 Q283.984 521.185 278.174 521.185 Q272.364 521.185 269.285 516.601 Q266.23 511.995 266.23 503.268 Q266.23 494.518 269.285 489.935 Q272.364 485.328 278.174 485.328 Z" fill="#000000" fill-rule="evenodd" fill-opacity="1" /><path clip-path="url(#clip780)" d="M302.814 477.963 Q305.541 478.546 307.064 480.389 Q308.606 482.232 308.606 484.94 Q308.606 489.097 305.748 491.373 Q302.889 493.648 297.623 493.648 Q295.855 493.648 293.974 493.291 Q292.112 492.953 290.118 492.257 L290.118 488.589 Q291.698 489.511 293.579 489.981 Q295.46 490.451 297.51 490.451 Q301.083 490.451 302.945 489.041 Q304.826 487.63 304.826 484.94 Q304.826 482.458 303.077 481.066 Q301.347 479.655 298.243 479.655 L294.971 479.655 L294.971 476.533 L298.394 476.533 Q301.196 476.533 302.682 475.424 Q304.168 474.295 304.168 472.189 Q304.168 470.026 302.626 468.879 Q301.102 467.713 298.243 467.713 Q296.682 467.713 294.896 468.051 Q293.109 468.39 290.965 469.104 L290.965 465.719 Q293.128 465.117 295.008 464.816 Q296.908 464.515 298.582 464.515 Q302.908 464.515 305.428 466.49 Q307.948 468.446 307.948 471.794 Q307.948 474.126 306.613 475.743 Q305.278 477.342 302.814 477.963 Z" fill="#000000" fill-rule="evenodd" fill-opacity="1" /><path clip-path="url(#clip780)" d="M296.662 211.37 Q293.051 211.37 291.222 214.935 Q289.417 218.476 289.417 225.606 Q289.417 232.712 291.222 236.277 Q293.051 239.819 296.662 239.819 Q300.296 239.819 302.102 236.277 Q303.931 232.712 303.931 225.606 Q303.931 218.476 302.102 214.935 Q300.296 211.37 296.662 211.37 M296.662 207.666 Q302.472 207.666 305.528 212.273 Q308.606 216.856 308.606 225.606 Q308.606 234.333 305.528 238.939 Q302.472 243.522 296.662 243.522 Q290.852 243.522 287.773 238.939 Q284.718 234.333 284.718 225.606 Q284.718 216.856 287.773 212.273 Q290.852 207.666 296.662 207.666 Z" fill="#000000" fill-rule="evenodd" fill-opacity="1" /><polyline clip-path="url(#clip782)" style="stroke:#009af9; stroke-linecap:round; stroke-linejoin:round; stroke-width:4; stroke-opacity:1; fill:none" points="
  401.441,214.073 496.165,180.409 590.889,726.893 685.613,1021.22 780.337,1099.46 875.061,1371.71 969.785,1445.72 1064.51,1119.05 1159.23,760.125 1253.96,678.906 
  1348.68,293.824 1443.41,458.502 1538.13,795.08 1632.85,670.592 1727.58,241.254 1822.3,87.9763 1917.03,200.215 2011.75,131.242 2106.47,122.542 2201.2,330.023 
  2295.92,170.72 
  "/>
</svg>
