<?xml version="1.0" encoding="utf-8"?>
<svg xmlns="http://www.w3.org/2000/svg" xmlns:xlink="http://www.w3.org/1999/xlink" width="600" height="400" viewBox="0 0 2400 1600">
<defs>
  <clipPath id="clip510">
    <rect x="0" y="0" width="2400" height="1600"/>
  </clipPath>
</defs>
<path clip-path="url(#clip510)" d="
M0 1600 L2400 1600 L2400 0 L0 0  Z
  " fill="#ffffff" fill-rule="evenodd" fill-opacity="1"/>
<defs>
  <clipPath id="clip511">
    <rect x="480" y="0" width="1681" height="1600"/>
  </clipPath>
</defs>
<path clip-path="url(#clip510)" d="
M254.26 1486.45 L2352.76 1486.45 L2352.76 47.2441 L254.26 47.2441  Z
  " fill="#ffffff" fill-rule="evenodd" fill-opacity="1"/>
<defs>
  <clipPath id="clip512">
    <rect x="254" y="47" width="2099" height="1440"/>
  </clipPath>
</defs>
<polyline clip-path="url(#clip512)" style="stroke:#000000; stroke-linecap:butt; stroke-linejoin:round; stroke-width:2; stroke-opacity:0.1; fill:none" points="
  276.761,1486.45 276.761,47.2441 
  "/>
<polyline clip-path="url(#clip512)" style="stroke:#000000; stroke-linecap:butt; stroke-linejoin:round; stroke-width:2; stroke-opacity:0.1; fill:none" points="
  844.303,1486.45 844.303,47.2441 
  "/>
<polyline clip-path="url(#clip512)" style="stroke:#000000; stroke-linecap:butt; stroke-linejoin:round; stroke-width:2; stroke-opacity:0.1; fill:none" points="
  1411.85,1486.45 1411.85,47.2441 
  "/>
<polyline clip-path="url(#clip512)" style="stroke:#000000; stroke-linecap:butt; stroke-linejoin:round; stroke-width:2; stroke-opacity:0.1; fill:none" points="
  1979.39,1486.45 1979.39,47.2441 
  "/>
<polyline clip-path="url(#clip510)" style="stroke:#000000; stroke-linecap:butt; stroke-linejoin:round; stroke-width:4; stroke-opacity:1; fill:none" points="
  254.26,1486.45 2352.76,1486.45 
  "/>
<polyline clip-path="url(#clip510)" style="stroke:#000000; stroke-linecap:butt; stroke-linejoin:round; stroke-width:4; stroke-opacity:1; fill:none" points="
  276.761,1486.45 276.761,1467.55 
  "/>
<polyline clip-path="url(#clip510)" style="stroke:#000000; stroke-linecap:butt; stroke-linejoin:round; stroke-width:4; stroke-opacity:1; fill:none" points="
  844.303,1486.45 844.303,1467.55 
  "/>
<polyline clip-path="url(#clip510)" style="stroke:#000000; stroke-linecap:butt; stroke-linejoin:round; stroke-width:4; stroke-opacity:1; fill:none" points="
  1411.85,1486.45 1411.85,1467.55 
  "/>
<polyline clip-path="url(#clip510)" style="stroke:#000000; stroke-linecap:butt; stroke-linejoin:round; stroke-width:4; stroke-opacity:1; fill:none" points="
  1979.39,1486.45 1979.39,1467.55 
  "/>
<path clip-path="url(#clip510)" d="M253.902 1517.37 Q250.291 1517.37 248.462 1520.93 Q246.657 1524.47 246.657 1531.6 Q246.657 1538.71 248.462 1542.27 Q250.291 1545.82 253.902 1545.82 Q257.536 1545.82 259.342 1542.27 Q261.171 1538.71 261.171 1531.6 Q261.171 1524.47 259.342 1520.93 Q257.536 1517.37 253.902 1517.37 M253.902 1513.66 Q259.712 1513.66 262.768 1518.27 Q265.847 1522.85 265.847 1531.6 Q265.847 1540.33 262.768 1544.94 Q259.712 1549.52 253.902 1549.52 Q248.092 1549.52 245.013 1544.94 Q241.958 1540.33 241.958 1531.6 Q241.958 1522.85 245.013 1518.27 Q248.092 1513.66 253.902 1513.66 Z" fill="#000000" fill-rule="evenodd" fill-opacity="1" /><path clip-path="url(#clip510)" d="M274.064 1542.97 L278.948 1542.97 L278.948 1548.85 L274.064 1548.85 L274.064 1542.97 Z" fill="#000000" fill-rule="evenodd" fill-opacity="1" /><path clip-path="url(#clip510)" d="M301.981 1518.36 L290.175 1536.81 L301.981 1536.81 L301.981 1518.36 M300.754 1514.29 L306.633 1514.29 L306.633 1536.81 L311.564 1536.81 L311.564 1540.7 L306.633 1540.7 L306.633 1548.85 L301.981 1548.85 L301.981 1540.7 L286.379 1540.7 L286.379 1536.19 L300.754 1514.29 Z" fill="#000000" fill-rule="evenodd" fill-opacity="1" /><path clip-path="url(#clip510)" d="M821.607 1517.37 Q817.996 1517.37 816.167 1520.93 Q814.362 1524.47 814.362 1531.6 Q814.362 1538.71 816.167 1542.27 Q817.996 1545.82 821.607 1545.82 Q825.241 1545.82 827.047 1542.27 Q828.875 1538.71 828.875 1531.6 Q828.875 1524.47 827.047 1520.93 Q825.241 1517.37 821.607 1517.37 M821.607 1513.66 Q827.417 1513.66 830.473 1518.27 Q833.551 1522.85 833.551 1531.6 Q833.551 1540.33 830.473 1544.94 Q827.417 1549.52 821.607 1549.52 Q815.797 1549.52 812.718 1544.94 Q809.662 1540.33 809.662 1531.6 Q809.662 1522.85 812.718 1518.27 Q815.797 1513.66 821.607 1513.66 Z" fill="#000000" fill-rule="evenodd" fill-opacity="1" /><path clip-path="url(#clip510)" d="M841.769 1542.97 L846.653 1542.97 L846.653 1548.85 L841.769 1548.85 L841.769 1542.97 Z" fill="#000000" fill-rule="evenodd" fill-opacity="1" /><path clip-path="url(#clip510)" d="M867.417 1529.7 Q864.269 1529.7 862.417 1531.86 Q860.588 1534.01 860.588 1537.76 Q860.588 1541.49 862.417 1543.66 Q864.269 1545.82 867.417 1545.82 Q870.565 1545.82 872.394 1543.66 Q874.245 1541.49 874.245 1537.76 Q874.245 1534.01 872.394 1531.86 Q870.565 1529.7 867.417 1529.7 M876.699 1515.05 L876.699 1519.31 Q874.94 1518.48 873.134 1518.04 Q871.352 1517.6 869.593 1517.6 Q864.963 1517.6 862.509 1520.72 Q860.079 1523.85 859.732 1530.17 Q861.097 1528.15 863.158 1527.09 Q865.218 1526 867.695 1526 Q872.903 1526 875.912 1529.17 Q878.945 1532.32 878.945 1537.76 Q878.945 1543.08 875.796 1546.3 Q872.648 1549.52 867.417 1549.52 Q861.421 1549.52 858.25 1544.94 Q855.079 1540.33 855.079 1531.6 Q855.079 1523.41 858.968 1518.55 Q862.857 1513.66 869.408 1513.66 Q871.167 1513.66 872.949 1514.01 Q874.755 1514.36 876.699 1515.05 Z" fill="#000000" fill-rule="evenodd" fill-opacity="1" /><path clip-path="url(#clip510)" d="M1389.28 1517.37 Q1385.67 1517.37 1383.84 1520.93 Q1382.03 1524.47 1382.03 1531.6 Q1382.03 1538.71 1383.84 1542.27 Q1385.67 1545.82 1389.28 1545.82 Q1392.91 1545.82 1394.72 1542.27 Q1396.55 1538.71 1396.55 1531.6 Q1396.55 1524.47 1394.72 1520.93 Q1392.91 1517.37 1389.28 1517.37 M1389.28 1513.66 Q1395.09 1513.66 1398.14 1518.27 Q1401.22 1522.85 1401.22 1531.6 Q1401.22 1540.33 1398.14 1544.94 Q1395.09 1549.52 1389.28 1549.52 Q1383.47 1549.52 1380.39 1544.94 Q1377.33 1540.33 1377.33 1531.6 Q1377.33 1522.85 1380.39 1518.27 Q1383.47 1513.66 1389.28 1513.66 Z" fill="#000000" fill-rule="evenodd" fill-opacity="1" /><path clip-path="url(#clip510)" d="M1409.44 1542.97 L1414.32 1542.97 L1414.32 1548.85 L1409.44 1548.85 L1409.44 1542.97 Z" fill="#000000" fill-rule="evenodd" fill-opacity="1" /><path clip-path="url(#clip510)" d="M1434.51 1532.44 Q1431.17 1532.44 1429.25 1534.22 Q1427.36 1536 1427.36 1539.13 Q1427.36 1542.25 1429.25 1544.03 Q1431.17 1545.82 1434.51 1545.82 Q1437.84 1545.82 1439.76 1544.03 Q1441.68 1542.23 1441.68 1539.13 Q1441.68 1536 1439.76 1534.22 Q1437.86 1532.44 1434.51 1532.44 M1429.83 1530.45 Q1426.82 1529.7 1425.13 1527.64 Q1423.47 1525.58 1423.47 1522.62 Q1423.47 1518.48 1426.41 1516.07 Q1429.37 1513.66 1434.51 1513.66 Q1439.67 1513.66 1442.61 1516.07 Q1445.55 1518.48 1445.55 1522.62 Q1445.55 1525.58 1443.86 1527.64 Q1442.19 1529.7 1439.21 1530.45 Q1442.59 1531.23 1444.46 1533.52 Q1446.36 1535.82 1446.36 1539.13 Q1446.36 1544.15 1443.28 1546.83 Q1440.23 1549.52 1434.51 1549.52 Q1428.79 1549.52 1425.71 1546.83 Q1422.66 1544.15 1422.66 1539.13 Q1422.66 1535.82 1424.55 1533.52 Q1426.45 1531.23 1429.83 1530.45 M1428.12 1523.06 Q1428.12 1525.75 1429.79 1527.25 Q1431.48 1528.76 1434.51 1528.76 Q1437.52 1528.76 1439.21 1527.25 Q1440.92 1525.75 1440.92 1523.06 Q1440.92 1520.38 1439.21 1518.87 Q1437.52 1517.37 1434.51 1517.37 Q1431.48 1517.37 1429.79 1518.87 Q1428.12 1520.38 1428.12 1523.06 Z" fill="#000000" fill-rule="evenodd" fill-opacity="1" /><path clip-path="url(#clip510)" d="M1946.54 1544.91 L1954.18 1544.91 L1954.18 1518.55 L1945.87 1520.21 L1945.87 1515.95 L1954.13 1514.29 L1958.81 1514.29 L1958.81 1544.91 L1966.45 1544.91 L1966.45 1548.85 L1946.54 1548.85 L1946.54 1544.91 Z" fill="#000000" fill-rule="evenodd" fill-opacity="1" /><path clip-path="url(#clip510)" d="M1975.89 1542.97 L1980.78 1542.97 L1980.78 1548.85 L1975.89 1548.85 L1975.89 1542.97 Z" fill="#000000" fill-rule="evenodd" fill-opacity="1" /><path clip-path="url(#clip510)" d="M2000.96 1517.37 Q1997.35 1517.37 1995.52 1520.93 Q1993.72 1524.47 1993.72 1531.6 Q1993.72 1538.71 1995.52 1542.27 Q1997.35 1545.82 2000.96 1545.82 Q2004.6 1545.82 2006.4 1542.27 Q2008.23 1538.71 2008.23 1531.6 Q2008.23 1524.47 2006.4 1520.93 Q2004.6 1517.37 2000.96 1517.37 M2000.96 1513.66 Q2006.77 1513.66 2009.83 1518.27 Q2012.91 1522.85 2012.91 1531.6 Q2012.91 1540.33 2009.83 1544.94 Q2006.77 1549.52 2000.96 1549.52 Q1995.15 1549.52 1992.07 1544.94 Q1989.02 1540.33 1989.02 1531.6 Q1989.02 1522.85 1992.07 1518.27 Q1995.15 1513.66 2000.96 1513.66 Z" fill="#000000" fill-rule="evenodd" fill-opacity="1" /><polyline clip-path="url(#clip512)" style="stroke:#000000; stroke-linecap:butt; stroke-linejoin:round; stroke-width:2; stroke-opacity:0.1; fill:none" points="
  254.26,1484.39 2352.76,1484.39 
  "/>
<polyline clip-path="url(#clip512)" style="stroke:#000000; stroke-linecap:butt; stroke-linejoin:round; stroke-width:2; stroke-opacity:0.1; fill:none" points="
  254.26,1206.36 2352.76,1206.36 
  "/>
<polyline clip-path="url(#clip512)" style="stroke:#000000; stroke-linecap:butt; stroke-linejoin:round; stroke-width:2; stroke-opacity:0.1; fill:none" points="
  254.26,928.338 2352.76,928.338 
  "/>
<polyline clip-path="url(#clip512)" style="stroke:#000000; stroke-linecap:butt; stroke-linejoin:round; stroke-width:2; stroke-opacity:0.1; fill:none" points="
  254.26,650.313 2352.76,650.313 
  "/>
<polyline clip-path="url(#clip512)" style="stroke:#000000; stroke-linecap:butt; stroke-linejoin:round; stroke-width:2; stroke-opacity:0.1; fill:none" points="
  254.26,372.288 2352.76,372.288 
  "/>
<polyline clip-path="url(#clip512)" style="stroke:#000000; stroke-linecap:butt; stroke-linejoin:round; stroke-width:2; stroke-opacity:0.1; fill:none" points="
  254.26,94.2634 2352.76,94.2634 
  "/>
<polyline clip-path="url(#clip510)" style="stroke:#000000; stroke-linecap:butt; stroke-linejoin:round; stroke-width:4; stroke-opacity:1; fill:none" points="
  254.26,1486.45 254.26,47.2441 
  "/>
<polyline clip-path="url(#clip510)" style="stroke:#000000; stroke-linecap:butt; stroke-linejoin:round; stroke-width:4; stroke-opacity:1; fill:none" points="
  254.26,1484.39 273.157,1484.39 
  "/>
<polyline clip-path="url(#clip510)" style="stroke:#000000; stroke-linecap:butt; stroke-linejoin:round; stroke-width:4; stroke-opacity:1; fill:none" points="
  254.26,1206.36 273.157,1206.36 
  "/>
<polyline clip-path="url(#clip510)" style="stroke:#000000; stroke-linecap:butt; stroke-linejoin:round; stroke-width:4; stroke-opacity:1; fill:none" points="
  254.26,928.338 273.157,928.338 
  "/>
<polyline clip-path="url(#clip510)" style="stroke:#000000; stroke-linecap:butt; stroke-linejoin:round; stroke-width:4; stroke-opacity:1; fill:none" points="
  254.26,650.313 273.157,650.313 
  "/>
<polyline clip-path="url(#clip510)" style="stroke:#000000; stroke-linecap:butt; stroke-linejoin:round; stroke-width:4; stroke-opacity:1; fill:none" points="
  254.26,372.288 273.157,372.288 
  "/>
<polyline clip-path="url(#clip510)" style="stroke:#000000; stroke-linecap:butt; stroke-linejoin:round; stroke-width:4; stroke-opacity:1; fill:none" points="
  254.26,94.2634 273.157,94.2634 
  "/>
<path clip-path="url(#clip510)" d="M50.9921 1484.84 L80.6679 1484.84 L80.6679 1488.77 L50.9921 1488.77 L50.9921 1484.84 Z" fill="#000000" fill-rule="evenodd" fill-opacity="1" /><path clip-path="url(#clip510)" d="M100.76 1470.19 Q97.1493 1470.19 95.3206 1473.75 Q93.515 1477.29 93.515 1484.42 Q93.515 1491.53 95.3206 1495.09 Q97.1493 1498.64 100.76 1498.64 Q104.395 1498.64 106.2 1495.09 Q108.029 1491.53 108.029 1484.42 Q108.029 1477.29 106.2 1473.75 Q104.395 1470.19 100.76 1470.19 M100.76 1466.48 Q106.571 1466.48 109.626 1471.09 Q112.705 1475.67 112.705 1484.42 Q112.705 1493.15 109.626 1497.76 Q106.571 1502.34 100.76 1502.34 Q94.9502 1502.34 91.8715 1497.76 Q88.816 1493.15 88.816 1484.42 Q88.816 1475.67 91.8715 1471.09 Q94.9502 1466.48 100.76 1466.48 Z" fill="#000000" fill-rule="evenodd" fill-opacity="1" /><path clip-path="url(#clip510)" d="M120.922 1495.79 L125.807 1495.79 L125.807 1501.67 L120.922 1501.67 L120.922 1495.79 Z" fill="#000000" fill-rule="evenodd" fill-opacity="1" /><path clip-path="url(#clip510)" d="M145.992 1470.19 Q142.381 1470.19 140.552 1473.75 Q138.746 1477.29 138.746 1484.42 Q138.746 1491.53 140.552 1495.09 Q142.381 1498.64 145.992 1498.64 Q149.626 1498.64 151.431 1495.09 Q153.26 1491.53 153.26 1484.42 Q153.26 1477.29 151.431 1473.75 Q149.626 1470.19 145.992 1470.19 M145.992 1466.48 Q151.802 1466.48 154.857 1471.09 Q157.936 1475.67 157.936 1484.42 Q157.936 1493.15 154.857 1497.76 Q151.802 1502.34 145.992 1502.34 Q140.181 1502.34 137.103 1497.76 Q134.047 1493.15 134.047 1484.42 Q134.047 1475.67 137.103 1471.09 Q140.181 1466.48 145.992 1466.48 Z" fill="#000000" fill-rule="evenodd" fill-opacity="1" /><path clip-path="url(#clip510)" d="M170.181 1497.73 L186.501 1497.73 L186.501 1501.67 L164.556 1501.67 L164.556 1497.73 Q167.218 1494.98 171.802 1490.35 Q176.408 1485.7 177.589 1484.35 Q179.834 1481.83 180.714 1480.09 Q181.616 1478.34 181.616 1476.65 Q181.616 1473.89 179.672 1472.15 Q177.751 1470.42 174.649 1470.42 Q172.45 1470.42 169.996 1471.18 Q167.566 1471.95 164.788 1473.5 L164.788 1468.77 Q167.612 1467.64 170.066 1467.06 Q172.519 1466.48 174.556 1466.48 Q179.927 1466.48 183.121 1469.17 Q186.315 1471.85 186.315 1476.34 Q186.315 1478.47 185.505 1480.4 Q184.718 1482.29 182.612 1484.89 Q182.033 1485.56 178.931 1488.77 Q175.829 1491.97 170.181 1497.73 Z" fill="#000000" fill-rule="evenodd" fill-opacity="1" /><path clip-path="url(#clip510)" d="M206.315 1470.19 Q202.704 1470.19 200.876 1473.75 Q199.07 1477.29 199.07 1484.42 Q199.07 1491.53 200.876 1495.09 Q202.704 1498.64 206.315 1498.64 Q209.95 1498.64 211.755 1495.09 Q213.584 1491.53 213.584 1484.42 Q213.584 1477.29 211.755 1473.75 Q209.95 1470.19 206.315 1470.19 M206.315 1466.48 Q212.126 1466.48 215.181 1471.09 Q218.26 1475.67 218.26 1484.42 Q218.26 1493.15 215.181 1497.76 Q212.126 1502.34 206.315 1502.34 Q200.505 1502.34 197.427 1497.76 Q194.371 1493.15 194.371 1484.42 Q194.371 1475.67 197.427 1471.09 Q200.505 1466.48 206.315 1466.48 Z" fill="#000000" fill-rule="evenodd" fill-opacity="1" /><path clip-path="url(#clip510)" d="M51.9875 1206.81 L81.6633 1206.81 L81.6633 1210.75 L51.9875 1210.75 L51.9875 1206.81 Z" fill="#000000" fill-rule="evenodd" fill-opacity="1" /><path clip-path="url(#clip510)" d="M101.756 1192.16 Q98.1447 1192.16 96.316 1195.73 Q94.5104 1199.27 94.5104 1206.4 Q94.5104 1213.5 96.316 1217.07 Q98.1447 1220.61 101.756 1220.61 Q105.39 1220.61 107.196 1217.07 Q109.024 1213.5 109.024 1206.4 Q109.024 1199.27 107.196 1195.73 Q105.39 1192.16 101.756 1192.16 M101.756 1188.46 Q107.566 1188.46 110.621 1193.06 Q113.7 1197.65 113.7 1206.4 Q113.7 1215.12 110.621 1219.73 Q107.566 1224.31 101.756 1224.31 Q95.9456 1224.31 92.8669 1219.73 Q89.8114 1215.12 89.8114 1206.4 Q89.8114 1197.65 92.8669 1193.06 Q95.9456 1188.46 101.756 1188.46 Z" fill="#000000" fill-rule="evenodd" fill-opacity="1" /><path clip-path="url(#clip510)" d="M121.918 1217.76 L126.802 1217.76 L126.802 1223.64 L121.918 1223.64 L121.918 1217.76 Z" fill="#000000" fill-rule="evenodd" fill-opacity="1" /><path clip-path="url(#clip510)" d="M146.987 1192.16 Q143.376 1192.16 141.547 1195.73 Q139.742 1199.27 139.742 1206.4 Q139.742 1213.5 141.547 1217.07 Q143.376 1220.61 146.987 1220.61 Q150.621 1220.61 152.427 1217.07 Q154.255 1213.5 154.255 1206.4 Q154.255 1199.27 152.427 1195.73 Q150.621 1192.16 146.987 1192.16 M146.987 1188.46 Q152.797 1188.46 155.853 1193.06 Q158.931 1197.65 158.931 1206.4 Q158.931 1215.12 155.853 1219.73 Q152.797 1224.31 146.987 1224.31 Q141.177 1224.31 138.098 1219.73 Q135.043 1215.12 135.043 1206.4 Q135.043 1197.65 138.098 1193.06 Q141.177 1188.46 146.987 1188.46 Z" fill="#000000" fill-rule="evenodd" fill-opacity="1" /><path clip-path="url(#clip510)" d="M167.959 1219.71 L175.598 1219.71 L175.598 1193.34 L167.288 1195.01 L167.288 1190.75 L175.552 1189.08 L180.228 1189.08 L180.228 1219.71 L187.866 1219.71 L187.866 1223.64 L167.959 1223.64 L167.959 1219.71 Z" fill="#000000" fill-rule="evenodd" fill-opacity="1" /><path clip-path="url(#clip510)" d="M197.357 1189.08 L215.713 1189.08 L215.713 1193.02 L201.639 1193.02 L201.639 1201.49 Q202.658 1201.14 203.676 1200.98 Q204.695 1200.8 205.714 1200.8 Q211.501 1200.8 214.88 1203.97 Q218.26 1207.14 218.26 1212.56 Q218.26 1218.13 214.788 1221.24 Q211.315 1224.31 204.996 1224.31 Q202.82 1224.31 200.552 1223.94 Q198.306 1223.57 195.899 1222.83 L195.899 1218.13 Q197.982 1219.27 200.204 1219.82 Q202.426 1220.38 204.903 1220.38 Q208.908 1220.38 211.246 1218.27 Q213.584 1216.17 213.584 1212.56 Q213.584 1208.94 211.246 1206.84 Q208.908 1204.73 204.903 1204.73 Q203.028 1204.73 201.153 1205.15 Q199.302 1205.56 197.357 1206.44 L197.357 1189.08 Z" fill="#000000" fill-rule="evenodd" fill-opacity="1" /><path clip-path="url(#clip510)" d="M50.9921 928.79 L80.6679 928.79 L80.6679 932.725 L50.9921 932.725 L50.9921 928.79 Z" fill="#000000" fill-rule="evenodd" fill-opacity="1" /><path clip-path="url(#clip510)" d="M100.76 914.137 Q97.1493 914.137 95.3206 917.702 Q93.515 921.243 93.515 928.373 Q93.515 935.48 95.3206 939.044 Q97.1493 942.586 100.76 942.586 Q104.395 942.586 106.2 939.044 Q108.029 935.48 108.029 928.373 Q108.029 921.243 106.2 917.702 Q104.395 914.137 100.76 914.137 M100.76 910.433 Q106.571 910.433 109.626 915.04 Q112.705 919.623 112.705 928.373 Q112.705 937.1 109.626 941.706 Q106.571 946.29 100.76 946.29 Q94.9502 946.29 91.8715 941.706 Q88.816 937.1 88.816 928.373 Q88.816 919.623 91.8715 915.04 Q94.9502 910.433 100.76 910.433 Z" fill="#000000" fill-rule="evenodd" fill-opacity="1" /><path clip-path="url(#clip510)" d="M120.922 939.739 L125.807 939.739 L125.807 945.618 L120.922 945.618 L120.922 939.739 Z" fill="#000000" fill-rule="evenodd" fill-opacity="1" /><path clip-path="url(#clip510)" d="M145.992 914.137 Q142.381 914.137 140.552 917.702 Q138.746 921.243 138.746 928.373 Q138.746 935.48 140.552 939.044 Q142.381 942.586 145.992 942.586 Q149.626 942.586 151.431 939.044 Q153.26 935.48 153.26 928.373 Q153.26 921.243 151.431 917.702 Q149.626 914.137 145.992 914.137 M145.992 910.433 Q151.802 910.433 154.857 915.04 Q157.936 919.623 157.936 928.373 Q157.936 937.1 154.857 941.706 Q151.802 946.29 145.992 946.29 Q140.181 946.29 137.103 941.706 Q134.047 937.1 134.047 928.373 Q134.047 919.623 137.103 915.04 Q140.181 910.433 145.992 910.433 Z" fill="#000000" fill-rule="evenodd" fill-opacity="1" /><path clip-path="url(#clip510)" d="M166.964 941.683 L174.603 941.683 L174.603 915.318 L166.292 916.984 L166.292 912.725 L174.556 911.058 L179.232 911.058 L179.232 941.683 L186.871 941.683 L186.871 945.618 L166.964 945.618 L166.964 941.683 Z" fill="#000000" fill-rule="evenodd" fill-opacity="1" /><path clip-path="url(#clip510)" d="M206.315 914.137 Q202.704 914.137 200.876 917.702 Q199.07 921.243 199.07 928.373 Q199.07 935.48 200.876 939.044 Q202.704 942.586 206.315 942.586 Q209.95 942.586 211.755 939.044 Q213.584 935.48 213.584 928.373 Q213.584 921.243 211.755 917.702 Q209.95 914.137 206.315 914.137 M206.315 910.433 Q212.126 910.433 215.181 915.04 Q218.26 919.623 218.26 928.373 Q218.26 937.1 215.181 941.706 Q212.126 946.29 206.315 946.29 Q200.505 946.29 197.427 941.706 Q194.371 937.1 194.371 928.373 Q194.371 919.623 197.427 915.04 Q200.505 910.433 206.315 910.433 Z" fill="#000000" fill-rule="evenodd" fill-opacity="1" /><path clip-path="url(#clip510)" d="M51.9875 650.765 L81.6633 650.765 L81.6633 654.7 L51.9875 654.7 L51.9875 650.765 Z" fill="#000000" fill-rule="evenodd" fill-opacity="1" /><path clip-path="url(#clip510)" d="M101.756 636.112 Q98.1447 636.112 96.316 639.677 Q94.5104 643.219 94.5104 650.348 Q94.5104 657.455 96.316 661.019 Q98.1447 664.561 101.756 664.561 Q105.39 664.561 107.196 661.019 Q109.024 657.455 109.024 650.348 Q109.024 643.219 107.196 639.677 Q105.39 636.112 101.756 636.112 M101.756 632.408 Q107.566 632.408 110.621 637.015 Q113.7 641.598 113.7 650.348 Q113.7 659.075 110.621 663.681 Q107.566 668.265 101.756 668.265 Q95.9456 668.265 92.8669 663.681 Q89.8114 659.075 89.8114 650.348 Q89.8114 641.598 92.8669 637.015 Q95.9456 632.408 101.756 632.408 Z" fill="#000000" fill-rule="evenodd" fill-opacity="1" /><path clip-path="url(#clip510)" d="M121.918 661.714 L126.802 661.714 L126.802 667.593 L121.918 667.593 L121.918 661.714 Z" fill="#000000" fill-rule="evenodd" fill-opacity="1" /><path clip-path="url(#clip510)" d="M146.987 636.112 Q143.376 636.112 141.547 639.677 Q139.742 643.219 139.742 650.348 Q139.742 657.455 141.547 661.019 Q143.376 664.561 146.987 664.561 Q150.621 664.561 152.427 661.019 Q154.255 657.455 154.255 650.348 Q154.255 643.219 152.427 639.677 Q150.621 636.112 146.987 636.112 M146.987 632.408 Q152.797 632.408 155.853 637.015 Q158.931 641.598 158.931 650.348 Q158.931 659.075 155.853 663.681 Q152.797 668.265 146.987 668.265 Q141.177 668.265 138.098 663.681 Q135.043 659.075 135.043 650.348 Q135.043 641.598 138.098 637.015 Q141.177 632.408 146.987 632.408 Z" fill="#000000" fill-rule="evenodd" fill-opacity="1" /><path clip-path="url(#clip510)" d="M177.149 636.112 Q173.538 636.112 171.709 639.677 Q169.904 643.219 169.904 650.348 Q169.904 657.455 171.709 661.019 Q173.538 664.561 177.149 664.561 Q180.783 664.561 182.589 661.019 Q184.417 657.455 184.417 650.348 Q184.417 643.219 182.589 639.677 Q180.783 636.112 177.149 636.112 M177.149 632.408 Q182.959 632.408 186.015 637.015 Q189.093 641.598 189.093 650.348 Q189.093 659.075 186.015 663.681 Q182.959 668.265 177.149 668.265 Q171.339 668.265 168.26 663.681 Q165.204 659.075 165.204 650.348 Q165.204 641.598 168.26 637.015 Q171.339 632.408 177.149 632.408 Z" fill="#000000" fill-rule="evenodd" fill-opacity="1" /><path clip-path="url(#clip510)" d="M197.357 633.033 L215.713 633.033 L215.713 636.969 L201.639 636.969 L201.639 645.441 Q202.658 645.093 203.676 644.931 Q204.695 644.746 205.714 644.746 Q211.501 644.746 214.88 647.918 Q218.26 651.089 218.26 656.505 Q218.26 662.084 214.788 665.186 Q211.315 668.265 204.996 668.265 Q202.82 668.265 200.552 667.894 Q198.306 667.524 195.899 666.783 L195.899 662.084 Q197.982 663.218 200.204 663.774 Q202.426 664.33 204.903 664.33 Q208.908 664.33 211.246 662.223 Q213.584 660.117 213.584 656.505 Q213.584 652.894 211.246 650.788 Q208.908 648.681 204.903 648.681 Q203.028 648.681 201.153 649.098 Q199.302 649.515 197.357 650.394 L197.357 633.033 Z" fill="#000000" fill-rule="evenodd" fill-opacity="1" /><path clip-path="url(#clip510)" d="M100.76 358.087 Q97.1493 358.087 95.3206 361.652 Q93.515 365.194 93.515 372.323 Q93.515 379.43 95.3206 382.994 Q97.1493 386.536 100.76 386.536 Q104.395 386.536 106.2 382.994 Q108.029 379.43 108.029 372.323 Q108.029 365.194 106.2 361.652 Q104.395 358.087 100.76 358.087 M100.76 354.383 Q106.571 354.383 109.626 358.99 Q112.705 363.573 112.705 372.323 Q112.705 381.05 109.626 385.656 Q106.571 390.24 100.76 390.24 Q94.9502 390.24 91.8715 385.656 Q88.816 381.05 88.816 372.323 Q88.816 363.573 91.8715 358.99 Q94.9502 354.383 100.76 354.383 Z" fill="#000000" fill-rule="evenodd" fill-opacity="1" /><path clip-path="url(#clip510)" d="M120.922 383.689 L125.807 383.689 L125.807 389.568 L120.922 389.568 L120.922 383.689 Z" fill="#000000" fill-rule="evenodd" fill-opacity="1" /><path clip-path="url(#clip510)" d="M145.992 358.087 Q142.381 358.087 140.552 361.652 Q138.746 365.194 138.746 372.323 Q138.746 379.43 140.552 382.994 Q142.381 386.536 145.992 386.536 Q149.626 386.536 151.431 382.994 Q153.26 379.43 153.26 372.323 Q153.26 365.194 151.431 361.652 Q149.626 358.087 145.992 358.087 M145.992 354.383 Q151.802 354.383 154.857 358.99 Q157.936 363.573 157.936 372.323 Q157.936 381.05 154.857 385.656 Q151.802 390.24 145.992 390.24 Q140.181 390.24 137.103 385.656 Q134.047 381.05 134.047 372.323 Q134.047 363.573 137.103 358.99 Q140.181 354.383 145.992 354.383 Z" fill="#000000" fill-rule="evenodd" fill-opacity="1" /><path clip-path="url(#clip510)" d="M176.153 358.087 Q172.542 358.087 170.714 361.652 Q168.908 365.194 168.908 372.323 Q168.908 379.43 170.714 382.994 Q172.542 386.536 176.153 386.536 Q179.788 386.536 181.593 382.994 Q183.422 379.43 183.422 372.323 Q183.422 365.194 181.593 361.652 Q179.788 358.087 176.153 358.087 M176.153 354.383 Q181.964 354.383 185.019 358.99 Q188.098 363.573 188.098 372.323 Q188.098 381.05 185.019 385.656 Q181.964 390.24 176.153 390.24 Q170.343 390.24 167.265 385.656 Q164.209 381.05 164.209 372.323 Q164.209 363.573 167.265 358.99 Q170.343 354.383 176.153 354.383 Z" fill="#000000" fill-rule="evenodd" fill-opacity="1" /><path clip-path="url(#clip510)" d="M206.315 358.087 Q202.704 358.087 200.876 361.652 Q199.07 365.194 199.07 372.323 Q199.07 379.43 200.876 382.994 Q202.704 386.536 206.315 386.536 Q209.95 386.536 211.755 382.994 Q213.584 379.43 213.584 372.323 Q213.584 365.194 211.755 361.652 Q209.95 358.087 206.315 358.087 M206.315 354.383 Q212.126 354.383 215.181 358.99 Q218.26 363.573 218.26 372.323 Q218.26 381.05 215.181 385.656 Q212.126 390.24 206.315 390.24 Q200.505 390.24 197.427 385.656 Q194.371 381.05 194.371 372.323 Q194.371 363.573 197.427 358.99 Q200.505 354.383 206.315 354.383 Z" fill="#000000" fill-rule="evenodd" fill-opacity="1" /><path clip-path="url(#clip510)" d="M101.756 80.0621 Q98.1447 80.0621 96.316 83.6269 Q94.5104 87.1686 94.5104 94.2982 Q94.5104 101.405 96.316 104.969 Q98.1447 108.511 101.756 108.511 Q105.39 108.511 107.196 104.969 Q109.024 101.405 109.024 94.2982 Q109.024 87.1686 107.196 83.6269 Q105.39 80.0621 101.756 80.0621 M101.756 76.3584 Q107.566 76.3584 110.621 80.9649 Q113.7 85.5482 113.7 94.2982 Q113.7 103.025 110.621 107.631 Q107.566 112.215 101.756 112.215 Q95.9456 112.215 92.8669 107.631 Q89.8114 103.025 89.8114 94.2982 Q89.8114 85.5482 92.8669 80.9649 Q95.9456 76.3584 101.756 76.3584 Z" fill="#000000" fill-rule="evenodd" fill-opacity="1" /><path clip-path="url(#clip510)" d="M121.918 105.664 L126.802 105.664 L126.802 111.543 L121.918 111.543 L121.918 105.664 Z" fill="#000000" fill-rule="evenodd" fill-opacity="1" /><path clip-path="url(#clip510)" d="M146.987 80.0621 Q143.376 80.0621 141.547 83.6269 Q139.742 87.1686 139.742 94.2982 Q139.742 101.405 141.547 104.969 Q143.376 108.511 146.987 108.511 Q150.621 108.511 152.427 104.969 Q154.255 101.405 154.255 94.2982 Q154.255 87.1686 152.427 83.6269 Q150.621 80.0621 146.987 80.0621 M146.987 76.3584 Q152.797 76.3584 155.853 80.9649 Q158.931 85.5482 158.931 94.2982 Q158.931 103.025 155.853 107.631 Q152.797 112.215 146.987 112.215 Q141.177 112.215 138.098 107.631 Q135.043 103.025 135.043 94.2982 Q135.043 85.5482 138.098 80.9649 Q141.177 76.3584 146.987 76.3584 Z" fill="#000000" fill-rule="evenodd" fill-opacity="1" /><path clip-path="url(#clip510)" d="M177.149 80.0621 Q173.538 80.0621 171.709 83.6269 Q169.904 87.1686 169.904 94.2982 Q169.904 101.405 171.709 104.969 Q173.538 108.511 177.149 108.511 Q180.783 108.511 182.589 104.969 Q184.417 101.405 184.417 94.2982 Q184.417 87.1686 182.589 83.6269 Q180.783 80.0621 177.149 80.0621 M177.149 76.3584 Q182.959 76.3584 186.015 80.9649 Q189.093 85.5482 189.093 94.2982 Q189.093 103.025 186.015 107.631 Q182.959 112.215 177.149 112.215 Q171.339 112.215 168.26 107.631 Q165.204 103.025 165.204 94.2982 Q165.204 85.5482 168.26 80.9649 Q171.339 76.3584 177.149 76.3584 Z" fill="#000000" fill-rule="evenodd" fill-opacity="1" /><path clip-path="url(#clip510)" d="M197.357 76.9834 L215.713 76.9834 L215.713 80.9186 L201.639 80.9186 L201.639 89.3908 Q202.658 89.0436 203.676 88.8815 Q204.695 88.6963 205.714 88.6963 Q211.501 88.6963 214.88 91.8676 Q218.26 95.0389 218.26 100.456 Q218.26 106.034 214.788 109.136 Q211.315 112.215 204.996 112.215 Q202.82 112.215 200.552 111.844 Q198.306 111.474 195.899 110.733 L195.899 106.034 Q197.982 107.168 200.204 107.724 Q202.426 108.28 204.903 108.28 Q208.908 108.28 211.246 106.173 Q213.584 104.067 213.584 100.456 Q213.584 96.8444 211.246 94.738 Q208.908 92.6315 204.903 92.6315 Q203.028 92.6315 201.153 93.0482 Q199.302 93.4648 197.357 94.3445 L197.357 76.9834 Z" fill="#000000" fill-rule="evenodd" fill-opacity="1" /><polyline clip-path="url(#clip512)" style="stroke:#009af9; stroke-linecap:butt; stroke-linejoin:round; stroke-width:4; stroke-opacity:1; fill:none" points="
  313.651,504.879 349.548,87.9763 451.35,236.441 605.369,442.35 799.099,286.792 1017.2,552.041 1253.3,691.665 1502.02,855.089 1759.75,1029.07 2024.09,1225 
  2293.36,1445.72 
  "/>
<path clip-path="url(#clip510)" d="
M1997.21 198.898 L2282.81 198.898 L2282.81 95.2176 L1997.21 95.2176  Z
  " fill="#ffffff" fill-rule="evenodd" fill-opacity="1"/>
<polyline clip-path="url(#clip510)" style="stroke:#000000; stroke-linecap:butt; stroke-linejoin:round; stroke-width:4; stroke-opacity:1; fill:none" points="
  1997.21,198.898 2282.81,198.898 2282.81,95.2176 1997.21,95.2176 1997.21,198.898 
  "/>
<polyline clip-path="url(#clip510)" style="stroke:#009af9; stroke-linecap:butt; stroke-linejoin:round; stroke-width:4; stroke-opacity:1; fill:none" points="
  2020.53,147.058 2160.43,147.058 
  "/>
<path clip-path="url(#clip510)" d="M2197.59 166.745 Q2195.78 171.375 2194.07 172.787 Q2192.35 174.199 2189.48 174.199 L2186.08 174.199 L2186.08 170.634 L2188.58 170.634 Q2190.34 170.634 2191.31 169.8 Q2192.28 168.967 2193.46 165.865 L2194.23 163.921 L2183.74 138.412 L2188.26 138.412 L2196.36 158.689 L2204.46 138.412 L2208.97 138.412 L2197.59 166.745 Z" fill="#000000" fill-rule="evenodd" fill-opacity="1" /><path clip-path="url(#clip510)" d="M2216.27 160.402 L2223.9 160.402 L2223.9 134.037 L2215.59 135.703 L2215.59 131.444 L2223.86 129.778 L2228.53 129.778 L2228.53 160.402 L2236.17 160.402 L2236.17 164.338 L2216.27 164.338 L2216.27 160.402 Z" fill="#000000" fill-rule="evenodd" fill-opacity="1" /></svg>
